<mxfile host="app.diagrams.net" modified="2022-11-04T13:37:33.970Z" agent="5.0 (Macintosh; Intel Mac OS X 10_15_7) AppleWebKit/537.36 (KHTML, like Gecko) Chrome/107.0.0.0 Safari/537.36" etag="FZ-d5F4gIT7FohhyKk5X" version="20.5.1" type="github">
  <diagram id="ekkSMnJyig2bX4rR-UvY" name="페이지-1">
    <mxGraphModel dx="1234" dy="708" grid="1" gridSize="10" guides="1" tooltips="1" connect="1" arrows="1" fold="1" page="1" pageScale="1" pageWidth="827" pageHeight="1169" math="0" shadow="0">
      <root>
        <mxCell id="0" />
        <mxCell id="1" parent="0" />
        <mxCell id="Y2iIYTTKfApD3LMO0uSe-5" value="" style="rounded=0;whiteSpace=wrap;html=1;" vertex="1" parent="1">
          <mxGeometry x="320" y="810" width="480" height="290" as="geometry" />
        </mxCell>
        <mxCell id="5E6sWLluoOo3w7mo-r-d-42" value="" style="rounded=0;whiteSpace=wrap;html=1;fillStyle=auto;strokeColor=#000000;" parent="1" vertex="1">
          <mxGeometry x="422" y="585" width="256" height="200" as="geometry" />
        </mxCell>
        <mxCell id="5E6sWLluoOo3w7mo-r-d-32" value="" style="rounded=0;whiteSpace=wrap;html=1;fillStyle=auto;strokeColor=#000000;" parent="1" vertex="1">
          <mxGeometry x="422" y="60" width="248" height="240" as="geometry" />
        </mxCell>
        <mxCell id="5E6sWLluoOo3w7mo-r-d-26" value="" style="rounded=0;whiteSpace=wrap;html=1;strokeColor=#000000;" parent="1" vertex="1">
          <mxGeometry x="430" y="345" width="310" height="225" as="geometry" />
        </mxCell>
        <mxCell id="5E6sWLluoOo3w7mo-r-d-3" value="&lt;b&gt;Google &lt;/b&gt;Cloud Platform" style="shadow=0;fontSize=14;align=left;spacing=10;9E9E9E;verticalAlign=top;spacingTop=-4;fontStyle=0;spacingLeft=40;html=1;" parent="1" vertex="1">
          <mxGeometry x="130" y="60" width="250" height="240" as="geometry" />
        </mxCell>
        <mxCell id="5E6sWLluoOo3w7mo-r-d-4" value="" style="shape=mxgraph.gcp2.google_cloud_platform;fillColor=#F6F6F6;strokeColor=none;shadow=0;gradientColor=none;" parent="5E6sWLluoOo3w7mo-r-d-3" vertex="1">
          <mxGeometry width="23" height="20" relative="1" as="geometry">
            <mxPoint x="20" y="10" as="offset" />
          </mxGeometry>
        </mxCell>
        <mxCell id="5E6sWLluoOo3w7mo-r-d-2" value="" style="shape=image;verticalLabelPosition=bottom;labelBackgroundColor=default;verticalAlign=top;aspect=fixed;imageAspect=0;image=data:image/png,iVBORw0KGgoAAAANSUhEUgAAAYwAAAFsCAYAAADffY7IAAAMbmlDQ1BJQ0MgUHJvZmlsZQAASImVVwdYU8kWnluSkJDQAghICb0jUgNICaEFkF4EGyEJJJQYE4KKvSwquHYRxYquiii2lWYBsSuLYu+LBRVlXdTFhsqbkICu+8r3Tr658+fMmf+cOXfm3nsA0PzAlUjyUC0A8sUF0oTwYMaYtHQG6SkgAi348wFWXJ5MwoqLiwZQBvu/y7sbAFH0V50VXP8c/6+iwxfIeAAg4yDO5Mt4+RA3A4Bv4EmkBQAQFXrLKQUSBZ4Dsa4UBgjxagXOVuJdCpypxEcHbJIS2BBfBkCNyuVKswHQuAf1jEJeNuTR+Ayxq5gvEgOg6QRxAE/I5UOsiN0pP3+SApdDbAftJRDDeAAz8zvO7L/xZw7xc7nZQ1i5rgFRCxHJJHncaf9nav635OfJB33YwEYVSiMSFOuHObyVOylKgakQd4szY2IVuYb4g4ivzDsAKEUoj0hW2qPGPBkb5g/oQ+zK54ZEQWwMcZg4LyZapc/MEoVxIIa7BZ0qKuAkQWwA8SKBLDRRZbNFOilB5QutzZKyWSr9Oa50wK/C1wN5bjJLxf9GKOCo+DGNImFSKsQUiK0KRSkxEGtA7CLLTYxS2YwqErJjBm2k8gRF/FYQJwjE4cFKfqwwSxqWoLIvyZcNrhfbIhRxYlT4YIEwKUKZH+wUjzsQP1wLdlkgZiUP8ghkY6IH18IXhIQq1449F4iTE1U8HyQFwQnKuThFkhenssctBHnhCr0FxB6ywkTVXDylAG5OJT+eJSmIS1LGiRflcCPjlPHgy0E0YIMQwABy2DLBJJADRG3ddd3wn3IkDHCBFGQDAXBWaQZnpA6MiOE1ERSBPyASANnQvOCBUQEohPovQ1rl1RlkDYwWDszIBU8hzgdRIA/+lw/MEg95SwFPoEb0D+9c2Hgw3jzYFOP/Xj+o/aZhQU20SiMf9MjQHLQkhhJDiBHEMKI9boQH4H54NLwGweaGM3GfwXV8syc8JbQTHhGuEzoItyeK5kl/iHI06ID8YapcZH6fC9wGcnriwbg/ZIfMuD5uBJxxD+iHhQdCz55Qy1bFrcgK4wfuv63gu7uhsiO7klHyMHIQ2e7HmRoOGp5DLIpcf58fZayZQ/lmD4386J/9Xfb5sI/60RJbhB3CzmInsPPYUawOMLAmrB5rxY4p8NDuejKwuwa9JQzEkwt5RP/wN3hnFZmUuVa7drl+Vo4VCKYWKA4ee5JkmlSULSxgsODbQcDgiHkuTgw3Vzc3ABTvGuXj6238wDsE0W/9ppv/OwD+Tf39/Ue+6SKbADjgDY9/wzedHRMAbXUAzjXw5NJCpQ5XXAjwKaEJT5ohMAWWwA6uxw14AT8QBEJBJIgFSSANTIDRC+E+l4IpYAaYC4pBKVgO1oD1YDPYBnaBveAgqANHwQlwBlwEl8F1cBfunk7wEvSAd6APQRASQkPoiCFihlgjjogbwkQCkFAkGklA0pAMJBsRI3JkBjIfKUVWIuuRrUgVcgBpQE4g55F25DbyEOlC3iCfUAylorqoCWqDjkCZKAuNQpPQ8Wg2OhktQhegS9FytBLdg9aiJ9CL6HW0A32J9mIAU8f0MXPMGWNibCwWS8eyMCk2CyvByrBKrAZrhPf5KtaBdWMfcSJOxxm4M9zBEXgyzsMn47PwJfh6fBdei5/Cr+IP8R78K4FGMCY4EnwJHMIYQjZhCqGYUEbYQThMOA3PUifhHZFI1CfaEr3hWUwj5hCnE5cQNxL3EZuJ7cTHxF4SiWRIciT5k2JJXFIBqZi0jrSH1ES6QuokfVBTVzNTc1MLU0tXE6vNUytT2612XO2K2jO1PrIW2ZrsS44l88nTyMvI28mN5EvkTnIfRZtiS/GnJFFyKHMp5ZQaymnKPcpbdXV1C3Uf9Xh1kfoc9XL1/ern1B+qf6TqUB2obOo4qpy6lLqT2ky9TX1Lo9FsaEG0dFoBbSmtinaS9oD2QYOu4aLB0eBrzNao0KjVuKLxSpOsaa3J0pygWaRZpnlI85JmtxZZy0aLrcXVmqVVodWgdVOrV5uuPVI7Vjtfe4n2bu3z2s91SDo2OqE6fJ0FOtt0Tuo8pmN0SzqbzqPPp2+nn6Z36hJ1bXU5ujm6pbp7ddt0e/R09Dz0UvSm6lXoHdPr0Mf0bfQ5+nn6y/QP6t/Q/zTMZBhrmGDY4mE1w64Me28w3CDIQGBQYrDP4LrBJ0OGYahhruEKwzrD+0a4kYNRvNEUo01Gp426h+sO9xvOG14y/ODwO8aosYNxgvF0423Grca9JqYm4SYSk3UmJ026TfVNg0xzTFebHjftMqObBZiJzFabNZm9YOgxWIw8RjnjFKPH3Ng8wlxuvtW8zbzPwtYi2WKexT6L+5YUS6ZlluVqyxbLHiszq9FWM6yqre5Yk62Z1kLrtdZnrd/b2Nqk2iy0qbN5bmtgy7Etsq22vWdHswu0m2xXaXfNnmjPtM+132h/2QF18HQQOlQ4XHJEHb0cRY4bHdudCE4+TmKnSqebzlRnlnOhc7XzQxd9l2iXeS51Lq9GWI1IH7FixNkRX109XfNct7veHakzMnLkvJGNI9+4Objx3CrcrrnT3MPcZ7vXu7/2cPQQeGzyuOVJ9xztudCzxfOLl7eX1KvGq8vbyjvDe4P3TaYuM465hHnOh+AT7DPb56jPR18v3wLfg75/+jn75frt9ns+ynaUYNT2UY/9Lfy5/lv9OwIYARkBWwI6As0DuYGVgY+CLIP4QTuCnrHsWTmsPaxXwa7B0uDDwe/ZvuyZ7OYQLCQ8pCSkLVQnNDl0feiDMIuw7LDqsJ5wz/Dp4c0RhIioiBURNzkmHB6nitMT6R05M/JUFDUqMWp91KNoh2hpdONodHTk6FWj78VYx4hj6mJBLCd2Vez9ONu4yXFH4onxcfEV8U8TRibMSDibSE+cmLg78V1ScNKypLvJdsny5JYUzZRxKVUp71NDUlemdowZMWbmmItpRmmitPp0UnpK+o703rGhY9eM7RznOa543I3xtuOnjj8/wWhC3oRjEzUnciceyiBkpGbszvjMjeVWcnszOZkbMnt4bN5a3kt+EH81v0vgL1gpeJbln7Uy63m2f/aq7C5hoLBM2C1ii9aLXudE5GzOeZ8bm7sztz8vNW9fvlp+Rn6DWEecKz41yXTS1EntEkdJsaRjsu/kNZN7pFHSHTJENl5WX6ALP+pb5Xbyn+QPCwMKKwo/TEmZcmiq9lTx1NZpDtMWT3tWFFb0y3R8Om96ywzzGXNnPJzJmrl1FjIrc1bLbMvZC2Z3zgmfs2suZW7u3N/muc5bOe+v+anzGxeYLJiz4PFP4T9VF2sUS4tvLvRbuHkRvki0qG2x++J1i7+W8EsulLqWlpV+XsJbcuHnkT+X/9y/NGtp2zKvZZuWE5eLl99YEbhi10rtlUUrH68avap2NWN1yeq/1kxcc77Mo2zzWspa+dqO8ujy+nVW65av+7xeuP56RXDFvg3GGxZveL+Rv/HKpqBNNZtNNpdu/rRFtOXW1vCttZU2lWXbiNsKtz3dnrL97C/MX6p2GO0o3fFlp3hnx66EXaeqvKuqdhvvXlaNVsuru/aM23N5b8je+hrnmq379PeV7gf75ftfHMg4cONg1MGWQ8xDNb9a/7rhMP1wSS1SO622p05Y11GfVt/eENnQ0ujXePiIy5GdR82PVhzTO7bsOOX4guP9TUVNvc2S5u4T2Scet0xsuXtyzMlrp+JPtZ2OOn3uTNiZk2dZZ5vO+Z87et73fMMF5oW6i14Xa1s9Ww//5vnb4TavttpL3pfqL/tcbmwf1X78SuCVE1dDrp65xrl28XrM9fYbyTdu3Rx3s+MW/9bz23m3X98pvNN3d849wr2S+1r3yx4YP6j83f73fR1eHccehjxsfZT46O5j3uOXT2RPPncueEp7WvbM7FnVc7fnR7vCui6/GPui86XkZV938R/af2x4Zffq1z+D/mztGdPT+Vr6uv/NkreGb3f+5fFXS29c74N3+e/63pd8MPyw6yPz49lPqZ+e9U35TPpc/sX+S+PXqK/3+vP7+yVcKXfgUwCDDc3KAuDNTgBoaQDQYd1GGausBQcEUdavAwj8J6ysFwfEC4Aa+P0e3w2/bm4CsH87LL8gvyasVeNoACT5ANTdfaipRJbl7qbkosI6hfCgv/8trNlIqwD4sry/v6+yv//LNhgsrB2bxcoaVCFEWDNsifuSmZ8J/o0o69Pv1vhjDxQReIAf+38BKg2RE44EfvQAAACKZVhJZk1NACoAAAAIAAQBGgAFAAAAAQAAAD4BGwAFAAAAAQAAAEYBKAADAAAAAQACAACHaQAEAAAAAQAAAE4AAAAAAAAAkAAAAAEAAACQAAAAAQADkoYABwAAABIAAAB4oAIABAAAAAEAAAGMoAMABAAAAAEAAAFsAAAAAEFTQ0lJAAAAU2NyZWVuc2hvdJ5vRCEAAAAJcEhZcwAAFiUAABYlAUlSJPAAAAHWaVRYdFhNTDpjb20uYWRvYmUueG1wAAAAAAA8eDp4bXBtZXRhIHhtbG5zOng9ImFkb2JlOm5zOm1ldGEvIiB4OnhtcHRrPSJYTVAgQ29yZSA2LjAuMCI+CiAgIDxyZGY6UkRGIHhtbG5zOnJkZj0iaHR0cDovL3d3dy53My5vcmcvMTk5OS8wMi8yMi1yZGYtc3ludGF4LW5zIyI+CiAgICAgIDxyZGY6RGVzY3JpcHRpb24gcmRmOmFib3V0PSIiCiAgICAgICAgICAgIHhtbG5zOmV4aWY9Imh0dHA6Ly9ucy5hZG9iZS5jb20vZXhpZi8xLjAvIj4KICAgICAgICAgPGV4aWY6UGl4ZWxZRGltZW5zaW9uPjM2NDwvZXhpZjpQaXhlbFlEaW1lbnNpb24+CiAgICAgICAgIDxleGlmOlBpeGVsWERpbWVuc2lvbj4zOTY8L2V4aWY6UGl4ZWxYRGltZW5zaW9uPgogICAgICAgICA8ZXhpZjpVc2VyQ29tbWVudD5TY3JlZW5zaG90PC9leGlmOlVzZXJDb21tZW50PgogICAgICA8L3JkZjpEZXNjcmlwdGlvbj4KICAgPC9yZGY6UkRGPgo8L3g6eG1wbWV0YT4K6aO4DgAAABxpRE9UAAAAAgAAAAAAAAC2AAAAKAAAALYAAAC2AACJz1ok2PIAAEAASURBVHgB7H0HoCZHcWa/vEEZhAQiY4zPBJ+xAQewOXy2ycYGEUVGEkGACSYnHyIdySQZISEEkkBIQiCwDD5yNsHGJGMwOQhQWsXdffm+r6qrurpn/re7b/dtkKZ331T6uqu7uqd78j+2jJR6EpVjUQ/FMhSmY66xLCg25DBW6HJaRi7Lp0UaIDqo+Q4CisH/EH8bR8P4G/a/Yf6Js2mYMY0VuovnX1swOsXGPbKey0Xq4CtMVeNi6ahNgcWgXVYG/2VGKBF0rhMvt5CxuBrNRhONOm6Ifyeew/gbxp+tSNW+pUJnvFQY28GMXnP2v7HlJewZdtjWtIsiT0DGcuCa5me0ko6tUTSiZBJdjyGqBv9D/Ifxpzto3C+qnQ9Cx9YoGnHY/yxmPYGJqmH+aeYfO8PQARhDRU2UI6/oypxVlkfR2MbrSIYZefTW+ohy5Af/EoGekAzx16D4dhh/5TrmsP9pBIb5Z8TZYzuhRFn5MS4YSH4WoRMO45pPOwSnYG6Z7ISkaGuNosJWMmIz4hRv8D/E384ihvHX7GWyk8lGjs+G/W+Yf+rZVseGzraRX5v5VxYMPVMog3KMLJPVTKUVt1WWSuhm65ipEKdjpSrMNvjvBm+EpoppJXQzdMxD/IfxN+x/MuH4rsDdZph/OpPHGG5h8KQ9JAlZlsPUktXRSpDKI4xWKszLGJDlWSkrpe/WkdmsdFLUcIQLVY8wDv41AgjPEP9h/A37n810eb7ApBJHhe8svlIQxzTMPzb/4gxjCVEJR/YWU42UbC28QbVDbJU/9IEWolbZVsDiYoS6ALbBVfkpMHk71SrbCqgwbkeoC2AbXJWfAtPgX+OQoysxqgKVzSAj1AWwDa7KT4FpiL/GYYi/DAYZI9VAyeEBGaEugG1wVX4KTPvo+NNLUmxA1SoqQrKbRMD03UMMyA5biu1bzQO8AIMys4N/DDCMsCH+w/jDMPC5prundDRltxr2v+7ZRAhXCVRQZnaYf3z+6bkkFYNEvn94rhRfWXxyMf3Zc26QkQuQdNLgf4j/MP5sV4p02P9G7RmIEoNjqXf4DPOPRG8V869fkpL49ozCWlUCLQtBbbQuAlWDmY06oFIEIbCGrVVZMqVRAztVg5mNNuYsBmtgDVursmRKowZ2qgYzG23MWQzWwBq2VmXJlEYN7FQNZjbamLMYrIE1bK3KkimNGtipGsxstDFnMVgDa9halSVTGjWwUzWY2WhjzmKwBtawtSpLpjRqYKdqMLPRxpzFYA2sYWtVlkxp1MBO1WBmo405i8EaWMPWqiyZ0qiBnarBzEYbcxaDNbCGrVVZMqVRAztVg5mNNuYsBmtgDVursmRKowZ2qgYzG23MWQzWwBq2VmXJlEYN7FQNZjbamLMYrIE1bK3COZrf9DaLUcvRQxUyGti1tJoiO2eM0R6/plLIaGDX0mqK7JwxRs1ZD1XIaGDX0mqK7JwxRnv8mkoho4FdS6spsnPGGDVnPVQho4FdS6spsnPGGO3xayqFjAZ2La2myM4ZY9Sc9VCFjAZ2La2myM4ZY7THr6kUMhrYtbSaIjtnjFFz1kMVMhrYtbSaIjtnjNEev6ZSyGhg19JqiuycMUbNWQ9VyGhg19JqiuycMUZ7/JpKIaOBXUurKbJzxhg1Zw0t9zDcYDlImXhOB96uHZlZteGKkxmMMm83uVUYlwLQdKRMg/8h/hgLw/jzXcF2OttTdD8xyahq261bhXEpwExHyjTsf8P+h7GQ97/8aRAbJDpE+rb9CNMarXOWF/KaG26A2/6vV6/688fS+hGmNRpzwAfug+gLYYP/6oYfwjXEX6fCYfxhn8nvYNR7Ty2N2MOYGX8jrMP+d42bf+QMo+puF5ypR06PZEh/mACK6qVuA/Tkpaoyu+DMiFxFbcjBv8bd4uARsgC5omYqswvO1OAeyZDm16hDDeCKmqnMLjhTg3skQ5pfow41gCtqpjK74EwN7pEMaX6NOtQArqiZyuyCMzW4RzKk+TXqUAO4omYqswvO1OAeyZDm16hDDeCKmqnMLjhTg3skQ5pfow41gCtqpjK74EwN7pEMaX6NOtQArqiZyuyCMzW4RzKk+TXqUAO4omYqswvOVODOJSmF1eBK16lNVV6PUMoSDhs/uh2JLnkIUSnrBv/NatwTxEpVYikcNkP89bi4ClMWNFolZlRXumH8DeOvOhruG0VRV8aScNjsy/tfs2CUxpXD/qDznUcDYvuOBcKurcZwZSQIT123lYIvZ52RzFEa/Ou+KzGJgemEeUVjQAecs84M8UcEYjSG8TeMv/x61Dau6sVRE3a3DhtwzjqzV+x/zYLR7BCo4uhpXhtSN6cTAVe0aJF7MkdV5L0gZ9S6MsbB9VEi1JKvJ3NURb6UZJxaV8YY1uJa0MIV0YFRFXkHOKPWlTEOHtqPUOTvGUhQJG49wYuqyJdIGqfWlTGGHfq/jZbIPcGLqsiXSBqn1pUxhh3i30ZL5J7gRVXkLZK+YPQZFWQ3jAPCWWesvExH6Wk2m1HNUku5GCGDf71hHSLkrDMxYOBH6Qkzm1HNWkuqM8vgn19hChFy1pkYMPCj9ISZzahmrSXVmWWI/xD/vWX8YcHQb0n5EPWR64ybWqZG2MSeUZURQr5wZ6fxpawKWPYn37EKsuXqnIP/9kmocno4xH8Yf7hWgP/D/qeX0cpcUs8iZdpp9CWDczXi2jH/+BlGmKklIKX5hfNIGVNHzLQl5lljMKVx61nAGEp1xWvhIlr4OoubW7XJSuPWs4AxlOqK18JFtPB1Fje3apOVxq1nAWMo1RWvhYto4essbm7VJiuNW88CxlCqK14LF9HC11nc3KpNVhq3ngWMoVRXvBYuooWvs7i5VZusNG49CxhDqa54LVxEC19ncXOrNllp3HoWMIZSXfFauIgWvs7i5lZtstK49SxgDKW64rVwES18ncXNrdpkpXHrWcAYSnXFa+EiWvg6i5tbtclK49azgDGU6orXwkW08HUWN7dqk5XGrWcBYyjVFa+Fi2jh6yxubtUmK41bzwLGUKorXgtHiywYdtRRmUL+6EL4YBNHIvPwhSWqQ91CsdIjARk6+NejniH+4RwpjCVlwzbYhvGHYEg8hv1vmH/Wfv4NZxhxogdf7ZS0RUWe2qLKs4dpz+3O5GKC7PkapgOJisG/TK0xJB6+If6+7Hh8nBnGn4QixMPHTcN0IFEx7H/X1v0vLBg6IOphkU8YolLGVVAIqzK3TOUko+CMM6rIuFVLtDvvjOGDQliVuWUa/Gsc4iJvETNqiEJLDC1+jnXG0EEhrMrcMln+wX+Jk3FGNVJxq5Zod94ZwweFsCpzyzTEX+MwjL8yTowzahEqVC3R7rwzGFv4fAavCOkgcyYXY9eKILrJmeJKuFbfK5sy05oEJ4N/jSkClF8SssiVjhjiX0XAA2RjB7TMnHlsGSjTmgzjz8JjgR32/2H/a+afcoYRBoeNF1IbQ0ajzfhiK5zZjIqlYw6Kwb8PTosZqUXIaLQZX2yFM5tRsXTMQbGH47+4uJw2z6f0rZ8vp2/j7ycXLaQltF5qiIl/eUnDwzWAlwN0y4cNM0Yaau3RxzApSWJ+CPbJJM1NCxHjSnP7ieFtN6BFT4S8nLWb/a+fHk+/cb3xdNsbj6dbHDaepiZSmpB6sW51kjqKqnA1Qltq7S+2gN/D/d/z+FbVolDTUv3MFVvhWpBYOuagGNqvA70JnEXIaFkwItCspmtl08sOV4/ikVDPAwag+jemo1Ht3aPDBiNi11tX05Nv8L/XxH9uYTmd+pnFdM7XMCPiCe/F+a0YHOggmcd10uZ4kUmbIiZuHRsQuIqMkyqOywQXGUqSVG1Sobn/x+FElxuYHAtmb/KP6kxOrU/7zSylv/3LlO58ywk76USl0ZDSWmlfVyPqepPbz3j1praQVvZMXUNX4+DCADTs/36nrcTFuDaIrWy4PdD/9YIhHRmG4IhVt6++2qamZSYK5YZDHMM0680cy6seqhr8ozNG7NQaTO8sjWUTUROFcrN3xf//fWsxvf5jE2lu89UcFZinMX2judZiDE7I+QygaS8xHB4CRiZOQFTI14lhpI0qWWgER4F6jj8wMGbCkmHa+/2PjU2m6x4ynV7/wOV0/YMRF2mXVD+zQUG1iUK5oWrY/4b5BwOB+4ISDgtNUMg+4TIUzfyjC0YnZ1tYAATWyl01tbKMhoJqVZACG+CrY60so6GUWhWkwAb46lgry2gopVYFKbABvjrWyjIaSqlVQQpsgO8Qy8n8xe9fTF/83mJaWsJ1KI7ScShZdk7RjRyNAiOD2c8wDFkoSolFQCoa5RrZnOxj/qfWrUuPv+tyut/vTZbGr4bz9udQhTLMpKogBTbAV8daWUZDKbUqSIEN8NWxVpbRUEqtClJgA3x1rJVlNJRSq4IU2ABfHWtlGQ2l1Koi1WcYnqEAVlKJTaAB76wzvpIVTbsguZfMRORo1eAfEZBQhXg568xeFX9W5mnvWUjf+Okcf+6xdGHuZp3S9XRdrWqQEwg52qEtLAyY7MfGyoUoPesYw8WmWidnGsjHvEyy+GQHJKbfV/yPT06mh/zBRHr0XbBo2CGzNMwaU1plnNEKRqGTIjIbe1RiEX0wOuvMXjX+rJ9L7TqNh6LH2qO6NrYfC4b+SKudefTFxXRGGSjjjUrwejcREXkD49KA7PQq9yPKsWLb4X14K7lbYh968L874/+K85fSx78xhz7nqQKTxl9uRVDCQOSlKCbta96XAM9LSFB3+58Xk5g0j7BZGodludz0QGZguFJUad/1PzU1lZ5zr8n0v36bl+1GJcbF2hx5ww/jf3eO/9IX+2j881O1qH0eTELiwIp6NjLarNHbTz03GDnK86zRj6OKP1c54zl3hPHcYAb/cfjmyAjxKO3S+P+/byyk//sRTFALczKMGP9xOfSHzsZV9C/zXK6LrC9Q4GxClgiwsq7ArEXQZvUmRWJ+Uy2p3UTqrwn+N+63Pp37pPE0iWcGtie17WeINGWLEEfBFPVERpvm3JGt5wYz7H86RDV+Mc4epRJvVzmzI2F3rOcGs5r4j7gk1TMsGgdytJdHm1bCq1Iyi4pTgR0FWr0D1lQN7SCgiA0c/OtEybBprELEjBW6d8R/8+xyesTb5tJlVy7IxM4bz6xemdVFyBu9AR3PenmLYwmnIZILfDkq1PaN87IUBwgTC+Ypi3xXs6f9WFiuMf7RzNvccCK94eHTaHRoP1nGgWdmw/5nkUFAmCQwyo7YdhBQDPMPh5O+t4cQNsMqzsg9Qe3gK4yF22g2mmg0dFynvME/eidPAFVsVejEq8JYgI3u+fi/9RML6X1f4rsVOFWQa0ysW64fiDzlZBMbms2PKPPsg5eo9FSiaqCMV7GziE6ikpdpxJFYJZL0IwsJVHI2QhzLx/98diI4qvYh/xO4NHXSo6bSTQ6V2qNNuV1OJQQ9asPRNOz/1WHtMP/0zj9jvIXRLL/VMON6Io8qhmGYh19FytBrBme/KFrJ08lYxjVBg/99P/4/v2Q5HfPOhTS7FZeiPPFcAW3L/a/nDhRC/9vEjQHKozs9qwDG8ogdGUiVKJPXCj6Ry/2eAJ0QyVu6Zvk//Lrr0hnHhOtSHhBtbyOKUnQ9hqga9r99f/9jZ8c+1RGRdT2GqOr0PxS05xShVEU58iPgolacb+N5XM4me3Hv0XPrI8qRH/yHUFtUq6DsTfF/0QcW0uf/i4/PYufDmJJjlND/1PKmts7uXDp0MvfxhwUh2qhn+3QDKnYS3CCXexz6Qh5L4UoTF45rqv/x8cn0vPvaDXBpuURRVlrGJybu8iH+xcSoRnCUI59z9Ki0Uwb/Ghpsr2Hzn1ySiqtIvRdiYEjLvfkyUmxIFW2tycOpEAJZUO8ghYUTidsEDHwuU5zIppofcom6UxhWK0tTnaRIbNxHYx78r1n8v/z9xfSCcxfxBjfOLhh//kdXcJGQRUBIvvwk/YjLSNDJhpM9+mZZb2Bg35OO1G6UMnjhyc4dZLnQcnP3shj3A+6a7n/jhqn0wb+dyq0PRMKW2x/Uxg773zD/bO/8q/cwOKDytQFnOZpkx7VhtTKVMWlZKqGbr2N2p/nIpAPoltFqqiyV0CI5iWjy5lExtJ9BkNjkeXmn+58HV8e+YzH94Ff83EcOOoixGn9secQrL+7Rvy4S4twrQok2zcl8coM756HMty6YpEw6JhqXpHK3FqdiITJjmeMa4p87/QPuMJme8Ge8Ae4NVD5s6/jDQMUw/hmEEgrGSwYTmW2nKqaV0M3bMe9D8ce7U/5sSW6Z1D7wZLlTVSTbTT3CaCiY5W1d7wHzoUeHdb+YjZnJMw3+98X4n/Pl+fTWT2IqX1jo9j8mN549LPEsggOAG07c1lB2e1//AzcOnI0MZpHLWWGMSNacW8YWMJ3xdw31P7lufXrfk8bSfuuk5RqKvvbLvjjsf3KAYgNGKEeWxY48E8dmRUTLjapHGA0Fc2f87aPxxz4rzx5qw3O7rZ1GR6jNvE1a5afAZH0SQ14BFcbtCHUBbIOr8g/+NVprHP+r8Rjto05eSJsunwvPKqHbEX+5TORnD9o7slU29yYrCAUmdi4KvPQk+y0xPUnQtOVsNr4olmelrh3+b3fjyfS6h83oQoz2W1gkbBY/BsYV4cja9WZv8hf1dnODfx2WHm4yHmeNjmyrQJXwjlAXwDa4Kj8FplX610tSLKAqlYqQ9DBOMDzbd18BMootxfYdzYRcBRiUmR38I+iIOmK0r8T/dR9eSP/89Xl8Kyq/aIc3u/lIq68T7Nrc5xxP7GIZWE0b1QZlp/1i8TI8M8uCyfxosVBci/yPz8ykkx4xnm56qCyzeX8d9r/u2QQGiyUbfyZHOsw/vv/1XJLKkZIgkeeO2U0rxVcmAsvSmz3nBhk5AQ7+c+h7A2hzrUW5pgyvpd7saxv/X25aTo87ZSFt3Yono2TmjncgWLHWPysJXSZS9ab/i0nLimcNgucmtluUyHWt9L+cDjt4Jp12zFSa6P0+YRt/j2BhmvgXg3K5hFZdjGZhx3XS4F8GO8Kwr81/fklK+rRnFNSq0tG+c68wICyvUR83lSIIgTVsrcqSKY0a2KkazGy0MWcxWANr2FqVJVMaNbBTNZjZaGPOYrAG1rC1KkumNGpgp2ows9HGnMVgDaxha1WWTGnUwJk+4z1z6T9+vIizhqXO63NynMu9hO9KyKSEQigzZZYSjwbHMdnrBVMxiVZ+wwL5JAvwPPFok353Si+z5Fcy8mEPdSj5WuB/bHw6vfCvJtKf/NYEw5rbnyNVKYIQWItprcqSKY0a2KkazGy0MWcxWANr2FqVJVMaNbBTNZjZaGPOYrAG1rC1KkumNGpgp2ows9HGnMVgDaxha1WWTGnUwE7VYGajjTmLwRpYw9Yq7Dt+09ssRi1HD1XIaGDX0mqK7JwxRnv8mkoho4FdS6spsnPGGDVnPVQho4FdS6spsnPGGO3xayqFjAZ2La2myM4ZY9Sc9VCF9AO/+sOF9JyzcfmJny1nIixOWZKt5K1exouzOyBcDHhBS9YWLShvOQEqYAzfiFrCwhLXDUp6I/za7X9qeiqd++SptEEemqojZEuI94QxRtltI5JCRgO7llZTZOeMMTrCN9UKGQ3sWlpNkZ0zxujgvzcC5R6Gmy1ipEwcaOB5VJZZ2zsNKbDcjdadqutuPY8wLgWg6UiZBv/7Svw5+T/q7Uvp5xdu0X7zyxrSkaLjEb6dXNjlIutiDiE5O3AF87X9z3GoC4RclpKzBWTkWQew+fat5ru2+0cUjrrzdHr0n5TrUrZ36e7qEgOdk+lImdr4ZxWIIYkqUq1VW9m6VRiXCsBLpY1p8L837f/50yB9HafdZdt+hGmNGlppeSHIduZsB9zWn9EDtykLIodOncyv0caKCUNfSBn862Sa47NG8T/ziwvp7Z+ex9kFzjDQWXwAj/HnJL5Eym6iJBM5zwIgEoP3KZb50gQHA/Mhc5n4JZNPIyxBk2QGS2oNsnzQsJzBf5pavyGd9tiUDj2QH3vPycJFkeGVjnFrBtVEYLUKkmmN1oBh/7/mzT9yhlF1twvO1KOgRzJkngd4sKeTgWENYHJDK7MLzjTormhI82vUkQZwRc1UZhecqcE9kiHNr1GHGsAVNVOZXXCmBvdIhjS/Rh1qAFfUTGV2wZka3CMRiVct0gPfupQuvwJnF1DIYlBN5th5oOdEzkTCfEykos4K5uUSn7UFKwYFsY38jiBKRZm5bBYuTkCkQG4AzPprq/873WI6veyBU/U+ichYKpGGxgVnDDaSGtLGnVHPYABX1ExldsGZGtwjGdL8GnWoAVxRM5XZBWdqcI9kSPNr1KEGcEXNVGYXnKnBPZIhza9RhxrAFTVTmV1wpgJ3LkkprAZXuk5tqvJ6hFKWcNjI/tuDpKrylTGVbvBvs+GICLZqjR61wmGzFvH/+/fPps99lz+5yilcfSkz2r/gilnaJUelUtP8SChmeX21lDfQ7ewkfxDEHcEh+LxWDP6b+E9Mr09vfNhYutX1EcE16n+4HJFKBws3+F+T/W9E8KHetfFvFoxSePETdJV7VAUmPRrUnVX21N6a12X0QkQZcM460yIG/wjN3hD/Kzan9KATFtLc/GxeKdBV7DYmOdTPD8HapM4Vi5/1YDIcWF6G0uUm67kgCAAMcSjLEDRhbcrt5+UuCPmqFnMJnnTwjyAspesdNJVOf8JMmpCYMjB9SYKsBmedEX2Uhv3fxh9oDEwntCsaAzrgnHVmr4h/s2D47tmpXGhVZrUhdXO6KNO0aJF7MkdV5K2cQtW6MmY0WvL1ZI6qyJeSjFPryhjDWlwLWrgiOjCqIu8AZ9S6MsbBedotaOGK6MCoirwDnFErt49622z6+SV8jFYvDbUHDryzgLsasiDYXQbmy5+C8hJZSTn74aRGHkTnN5vlqNGdk5ehaLVJi0DhSybBCh7Ga7v/ZfwG+AvuPYafc9WPE0qYemIVVZH3YDqj1pUxDs59WdDCFdGBURV5Bzij1pUxDh78IxQ83LI9SrgieqCiKvIG8AWjz6ggPaaLzorfUblG6Vmi2YyaF2uKymU7+OdUu7fG/9s/X0pPPR2LxSJf0mOvcYMzCjn1Ic9+ZjLeWkO9nRKwdaon3pCSTSy8GIUy7VoaqBQPHW+qyyUrWS3Mz+C/L/6TUxPpfU+ZSvvNlLhrjMteaXKh1jNhf3XWmQIXbpSeRrMZ1ay1pDqz2IjJA6wU4WVFPPnRpRVbjamlWN7Q/hh/LBhyYl8i5JFzptgarkZYYDOoMkLIO7sfEXpZFbD054qdrpnrnIN/m3IlOlVw1i7+DzhhOV12Ga5Job/Uf57ug39ZDtj/uEuNd/lkQdBzeNY0AEUEjmcPdrGdupAiOvKD/+2I/8REeugfTqfH/ikXDEt1FEt3NHqDB1ojzH8GVEYIw/4vA39fn//8DKPdcUv3Fy6MFWWrQVGsrdpkpXFb8gz+LUoWWpv+9974v+dzc+ntn9VLUew/OzOoW6JnD5yisFbgnELbo60j0lLMxTz2yp5eTOI5lowRcwKprCmqNFMsiXspPQ7+Nf4z66bT2x45kW54nfCYrXRBHbUy6gpnPeW0zjJSbTClcetZwBhKdcVr4SJa+DqLm1u1yUrj1rOAMZTqitfCRbTwdRY3t2qTlcatZwFjKNUVr4WLaOHrLG5u1SYrjVvPAsZQqiteC0eLLBi26lWmkD+6ED7YxJHI2F0rPYuHIh9ZUBqVBv/oCAmfLRKIVIilsmEbbBpj4LUAzo8hAbiG8b/XG5bT1quvznWN/c9KsJLm32StWlV9olBHv8RkDQDImsSojGMB4bQvebmRGyAsD4IoB/8aB8bE4s3YgGcgxUhbSn94q+l0/P3LDy0N+5+NtX1r/9Pe7Bv/atF9g/1vcj/dkf4PZxhNYbITRl1U5KUlqhwalh23O5N37iB7vobpQKJi8C9DO4bEw7d74v/sM7ekr/4AFWiubsRzAw5EnbvA8HdS8+Re3ub2SjcMRriNYuTRYkK7RIdFhobBf4kdw4zY2LnZqPhP4JMhrzpyIv3uTcNvgJdSlNOgB21UDPvfnt7/9pT/sGDogKiHRV6colKGUFAIqzK3TGVBKzjjjCoybtUS7c47Y/igEFZlbpkG/xqHvDqLYBEzaohCSwwtfo51RtGbrl5KD/7HlBbntsi8zpmbl4x4yYnJ8uvFIL2YRBv1pShIfk2J+fk2OGZ/zHL29BQPjsex0TfDWQAXCUxWeTGR8qTAwf+Oxv/Gh06nkx+Hr9kyiJK0Z0r/hL6KyoAtbMlLnRcZetuKMCp5q00pw/I71hnLEBTCqswtk+UPLfCahJwK9m0pw/I71hkDB4WwKnPLZPmvif71kpQ1MsRBWp53TPJuckYQZdPqe2VTZlqT4CQXO/iXSZLRsMgVpoReOAdkfa9sykxrEpxYGQDI5Yxiwlc/0iNO3Jp+uWmxroBfVrJCLS9lJLk00iwbNOkagZ0Mu5n0t6B1s0P9jxJYhAXI8w7+JZhN/Mcnp9JT/vdEus/tJy1ipZOtCzyGwcRwlhnRkAGQVS1OZFNmWpOeMgBoxl+pbHEtnBVt6l7ZlJnWZPBv4fEYQtHEv5xhhMFheFIrw2i0GV9shTObUbF0zEEx+PfOsZiRWoSMRpvxxVY4sxkVS8ccFNsZ/6/9eCn93Xv5GO2cTPKcoEspxnH6V734t7UAZpm3rFKS0y5VwYjBaScdes6Qy2Z+rDUcu5yreMmF5ZsX81qiZZbsaPCva3ET/wM2TqZTj55JB25AnLaz/73rAtONfzBmVjAFGLXKD/73if2/LBixj9uObWXHdg1djYMLA1D9G7fFJFxbSCs7vGvoahxcGIAG/zrhlqAErg1iludwUvFAvNF95ZV4o5tTN2dx+aATp3G7LESak6pNKjTHX37bQhYNmBwLhpOHrCNZCZGLBRcbue5FOvjf6fhPjE+lB9xpMh37v5p7Gbm/GWVJrWx66TvpjBU0bioMyhv2vx3f/0oAjet2TFdj2EB3Iv71giEF6b4rxY9Y9d11qJ2yQUGQiUK5oUqPImV/h1wNN0CqI9DBv86UErmejcVX4spYBgXhJgrlZufif+YX5tPJn1nAOsFjfJTl5cOznBqgd/NpgHQd7DLRm39kkieipJNx9gCZ2ZjknACZYv9jcELOZyAEmT/BD/53RfzXzUylEx4+KT/nyvjG+I8662BXSAr9oWxQEGCiUG6oGvZ/GfPcFxAP7keeoNjb468LRqfmbWMCILDe0NUyVpbRUE6tClJgA3x1rJVlNJRSq4IU2ABfHWtlGQ2l1KogBTbAV8daWUZDKbVqOV2Oj9A+4AR8XHArzi6qUV4yUc18JRWNco1sTriX+GOymttMlLgYTcDpApSE7Yx/LqrT+HmI2fz7TlLWdvjnr/TJzmy3YbSa1ba0ztRFo1wjW1v2pH+cIf7BLWfSyx5Qn2VY1bQlQQqstXLV1MoyGgqqVUEKbICvjrWyjIZSalWQAhvgq2OtLKOhlFoVpMAG+OpYK8toKKVWFak+w/AMBbCSSmwCDXhnnfGVtGjaBcm9ZCYiR6sG/4iAhCrEy1lndjr+PJJ92Xlz6ZP/iW+Yo7Qy7VHEEeOYvlzH/tCjXntvgkjVyZkGeNVINj+7KDVVO+9cyBmH5NbN1tnldOLjNqTX/vNs+tGFSwkvLWvaQf8MxpsftS6d9Kn59JUfLKYZLB7b419OoNiIPdT+tfQ/NjElC8adbuFBRTutpyzOXZVYJHghgs464/Etmjrm2UMgEZnVParBPyIgcQnBcdaZXRp/LBj6I62yL5j/3EdGzLVR6o03atgujYjIGxLTg+z0KvcjbCIpw9hwRq20Lo2IyBty8L+t+P/gwuX0hNOX0sLWrT6NWCR1amcsqSmJknyOvNx0QOdBy6PpKmn89bctaOYlCy1Lkfq4Lpeklz1gJv3xb06mUz41l971+Xl5JHRH/S/hJ13v/buT6Wn3mEn/9O/z6Y3/MpsWoZvg01qo1yj/+jvhfeOPSxuT1lnYLO3K9q+1/1veYF06AW+AjyMO3R5SHVtoNuONWru7NCIib8hh/9vW/mdRM8rIGW/UotmlERF5Q+5g/PFMO0tByoUJiQVHfcBJnh3feMlgOHfYABz8xzh7lJp+2f3xX8Cnxh5/6nz60S95DYcdps8okZWRg6rK2YN0ptWbVOE2rPCSBYAYnFlNhlnGNTPEbBGSedh9XOBS0P84YiK96VEzcD2WvverpXT8B7amn160nCZxYMydTk9ZmIn5kYwlDf73n0npvKdvFP+b8KL6C8/akr75s8U0NQngCv6lwD3Y/rX0P4ZTtmPuOpGOvCPeAOfCLsFjEDPvKmdo3OHkucEM+3+Jch1njxLim3lXObPDsWcGzw1mNfEfcUkqFGzVahxwsqjPSrwqJbOoOBXYUVgozAek6WoaSlMDFLGBg//dE/8v/PdietH7MVvPz6UlnAbIjXX2BTpD+1/7d5yXpdhBTOw8njLIdy17+h8TktwTEDDzMENM8IIOjuOL9y4244rYvzxnQ9p/hnZt/wkfm0vnfHkBWNRxO/0vIvP5z9iYNq7L9YXrc740n976cbQRvLSyx/+ebv9a+z/kwJl06uMm0kbGV+IQ+gSKYf/j2NBk44+SxipEzFihPeO/G91caiFWhGug2Cvib2cYnWbFiHitC9PBFxM4a67RbDTRqOOYo1lWBv9lRahiq0InXhXGAmx0dfHfMpfSQ07EY7RXgWkS/fPsgN3UTVTy6SadfmmXHQ3qZVlIqCCGf7BQn49qBUcVFhspn6tGdsLHev/x0evSbW44gSxlvHzngqX0f87Fy4SX4eY43Uq5o/0voZzH3nUqHXVn3MDIUwDLu/jKlJ773q3p+zh7GUd9Wv8s2dKeaL/5Jl0L/2Pjk7hcN5Ge9pc4yxj2PwwNGY0x7M7H8edKZ/K4lnEYyuioTaH9WR1W76XxH+MtDF82c4NLMzhueKSnjY56j01PHlE14EYskB5DVA3+91z83/OvC+nkT87jKhTOHmTe5lkFeid3kMzleU3wPiOT5+r8pQ8oeMTaDrOss7IyhgPDy6JPLhy0Zf93u/V4esH91hFWpUVk4v2ID30VpyG4RMUTjpX8X2e/8fTep6yvr77kEk/H/ZFTP4OzDVYE4z/639PtX2v/MzPT6aTHTKYjDs77/LD/D/NfnP/tDEP3Fd9V864T5cj3mLPKdndFYxvPowyDQdi/erc+ohz5wb9EoCckuyr+v758OR114nxaWsg/jMQ+w8StR0Gc/pFkI2rhaVuSa/zlI+bs/zhxc5mQY5Rw9MalRCfC4kM9qAwzys88hPOfuT6tm+YKkn2DWPrOBYvp+WfNpcs2814LACP880b3J56/MZ+RWO5S4IVo/9+9Z3P66cVY//jw0F7S/jWPPzrrd286nV7zEJ59lXjUfI5XNFsIcx41YTvs/9xt6rQPz39yDyMexevAYPtyK6Xnvful4db+oq01dXQgEchNmCQiZvBfziL2hvizu17xocX08W/i7AJvcy/zBsISFgG5bJS7ESribGngeOHzTPE8gqNCZJlsgWb/87/kBSM7Dkm+/CNjjqcGHB20o0zYov8tc8vpjCdtSDc/NH/qXGohGcQb833+e1vTs949l9ZP89JV9kNc8L+Isl/01zP4yVJg4MPOolljTVrmOz8zn975Obx7gvbrSyBaDGFE7u72s26yG62h/3H8nOsrjpxKv38zPk1Ah7JpIpNNCmC1kBSnfNhSTduw/4egFHal8ach3Xvirze9pT6lUnleQAeXRm2LY24myVIJqo/bjllcy6bExwuLOUfzVZmV0M3TMYtr2Qz+Ea7/xBNDT3svv0a71YPH5SCfV0gfyw1uedlOj3m5VDBp/3PLiR6yhlXnEkEUVocXtlw4clmc4LlISEk+ECkV/w/C5yyO+TM86hSSelf/V29dTvd+xQVpbOYA5GIlADRAZuniZlh0TjlmvdrCpOhutYLpF5twtnEG75Hg3oYVxyPnPdR+ac4a+7/J4RvSyY9B9HIMQqh7WQuvwCuhC++YqVgh/t0SupqqzErYBpbmwf92x39M38KIQZXoZUWIfFZHq8daI54DH8sqxfDoVKeWkosZolbR0cPgX2OC3XA3xZ8T/7GnzKcf/ire6A7+cZQ4jtnWeoYTr1xO4qyc65h7vYjQd/of5XBhWOJZBGcZblhYyZV5llbK5nsSB0wvp3OetjFNYvJWl9lxJszxrNMuTv/631vT5MyByK1nR9X4QzlzOFv5zIv3Y+khhUKkdJrU/ym4r3Hq5xbSlK8oWuXd3f7dEX8+Znv0XcbTg/6IP7QU4q8SgyJpVPzNbqBO/0vUh/1/X5v/sM/Ks4+648V9JfT4CHVArMxW+Skw+V6qVtlWQIVxO0JdANvgqvwUmAb/Goc45SI2n8Db3K84HxM5713QhomV87hcAOK8YfHLuY0wnGITBkKOL0l5Vgpq5OdOokeUzM0C5W6DHWRSiZQL6vF/Nd76PuspG9KN8TOjo9JHv745vfDMS/AmN17KW3cQmqEViv4XUbETH7su3er6vHSVq6Swqlitoap4lvGkU7emTVfzMlqBSW0NaJRl4m9Xt794Ldxa+D8Ij9me9US8zIfCWf5qUwiHdjcL8gLVKtsKWLyNUBfANrgqPwWmwb/GYeT+l80gMX56SYq2qC1Y5TgTcIcD4Zmwx7rF9cil2L6jiZChAIMys4P/3RL/rfwa7Rvn0lVbce8ih56U11i7/S+WMG6yTDxYOwjXboVC7oXwrCIXTJL7XHJmvh1jaoMxjD9W57g/n07350tmI9LFVyym+77yAvmECM8wptYdKI/0Rv/82O7tbz6eXvNQuyxVCrMmi8YE+LXxz6fH3vHpubQuH4CjgoCyERmjbG7irm0/Pbk/+hHFrvc/hutvd70Vn0qbruKv/qUS29x49RCJ7tF0yF6AQZnZnvh3Qf2aUuzgf1fEv+eSVOwk8v3Do3RET0fRaKk3e84NYjugwZ3KIKHUW0DeER1dM4P/Eo/e8PXH/x34Eu0Zn8fXaJexcjTxZzEaVl7YwRkI5E7RMe5SAyBkhtY8xdz6z6UXJ9v0f3089nnaE/hDDj0pOzr6Hy9K3/0l78PoxajJ9QdncPG/BV80/AIuS7XpYa//ZTr+YddJN7seJsuexBIuuJSX7zanq3FPXM42st8CX7v27674T82sS2c9YSIdsIGdU1KOYFFELsahzpZROTfIsP/37EeMUrP/xfCKGZve0JrRMvSCVh9/vyQl5edyzJf5Lj6LI6ltD17zqsHMRr3cShGEwBq2VmXJlEYN7FQNZjbamLMYrIE1bK3KkimNGtipGsxstDFnMVgDa9halSVTGjWwUzWY2WhjzqJaL9i0lB598lKan5/NXcsbnrzHoAOTKC4Z8hsWGMzc0bmC5Cs9YrUNr+nzpjjz8KJRmdyow3EOM9MgOwVQUhhlZbXolf1vnl9O5z51Q7r+wX2Xpeh5LJ37pavSaz+4CTeqdcGg08n1uKcR/M+jgefhfsjBG+FVsyFvSu/9wtXpNR+8JN3n9/ZLL7j/IXKz2wGGA+X7H/y21Sk429iAN6SZdkf7JWTwvebxRxxvedhEOvExfMggNzwTE6XR1UYBI2FmkDxBCKwVV6uyZEqjBnaqBjMbbcxZDNbAGrZWZcmURg3sVA1mNtqYsxisgTVsrcqSKY0a2KkazGy0MWcxWANr2FqFfddvepvFqOXooQoZDexaWk2RnTPGaI9fUylkNLBraTVFds4Yo+ashypkNLBraTVFds4Yoz1+TaWQ0cCupdUU2bi//8Bi+sx3+PgoNDpjy2TEtxlkbpfZQacM1kOWA8xWY3ifYQkLhE6VWkM59ZUzC8h0EGcWcWheYcHMJzeNqYqrC2ROhqP8L2KmfvH916W7/TbfF6iTlf6Ti+fTA179KzxeS3tuFJxMYdFQmc0dS/e9Pd5uvjsmRIOAbsYN8Xu89BdYEMbSelx2evPRh6Zb3UDPNrR886K++QXd4965JfHteFZcb4SDJ2wN2r874z85MZle/eCJ9Ds34Qsp1pq6/WLIm66l1RTZOWOMxgIbXiGjgV1Lqymyc8YYbXxGUSGjgV1Lqymyc8YYjQ4bXiGjgV1Lqymyc8YYbXyaWO5hmMYHN3My5b2IhzRhh6KlLtsko0R0k1uFcSkATUfKNPiXSK9h/P/tx4vpuecspcVZ/Owqzw4s5r3x5zhQhJw5sF7yeKnm0/MK9hn+/LRaChIdUXZyYZer3B26fEf83+ZGY+kfHm6XpeK4oX91/2BcWoq/Py7+8XLa5MxB0g7WEz84mz7x3P3yTexSzpGv+WX69eVs5XJawFW6e/3exvSc+x3in1Y3pDgDZnZhDGcbs+ldn53H2QZaucbt353xP+w6G9K7j2Wb0FoNb2QlRmoIAA1MtXWrMC4FjOlImegM/BqOf3Hjm8G/x1xiUsc/fxrEguRR6zD9CNMarbOVF1JsMsl2wK3/ddT154+l9SNMazTmgA/ssPp0zOBfjvotPAhXjP+x75xP37/Anopi3HgJx2JKCh3+8jwhskp2sckKtHxaPh/AY/xZ1hKpFAVJJlLILJAYLDjLfGmDXqDbXv+Li4vp/U/fD5eTWKW6dtTQz6mfujKd8vHL5exFLkWpA7R/PE1vwKIB/1vml9LHn7d/PhNhTk1v+cgV6d2fvRxvg2s0WO0DcX/8VQ+/XrrNjXm2wQbRr1HNx29RPeX0rWnLVr63sXbt5/mX+5cOVV+sBcVdGX++7n7Mn06kB/1hfNDA2m1U22/bYf+75s0/coZRdbcLzlj/j6SGzPMAdlQM47j/GmBECZXZBWdG5CpqQ5pfo44wgCtqpjK74EwN7pEMaX6NOtQArqiZyuyCMzW4RzKk+TXqUAO4ojAf+Lf59OaPYcJexIJBHBL7jkusTkY+JWWDguiDN3q5EMkz9pA50cuqAF77n4OABtVzwSDLlC3CQy2yuCQP4/b4n8dR/2seui7d8Tf4e3zIk/0aZeHf/cVcOuoNF6b1vOIk/tVbrgbuaRwsV+Ge+L+n05F3wmQYKvOLSxfTg173q/y7G6yY+sCntdJ9fn9jevb9Ds511fqbX1L+oh9/pOndX5hNG6awGPKsTPyzVhmvbHSptu1s/+6O/8b9N6QPPtkilysPYiGL7R/2/xIfD1BQRdbiJzoXnInQXt6QuyP+nUtS6tyqoPWrdFar3qr3KUtZwmEj80cfFLrKV8ZUusE/ZpvuTjsinB5R2tv4b8Eti4efNJ82XZFf0kO5clQoyPzpDcxyshDgaFY+wifxzx/EYDVYKBN4mRCVVbXYtfcIaf03ZmnXjvq/62+Npxf+NQ77R6S5haX0V6/8FZ5k0nfRddLmMsd/rNMY7mkclA7Ap87f9/QNotPzCVpTuu+rLkibruKRPC+laXwYf97sPuygifTSB10n3fpGo5+k+s4vFtMzzpjFAoIMKNIWDZYu/kt4VtV+DbQWtubxH5tId7nlWHrxA7off0QNRqTSQOGwGfZ/7fu+gGm0SsyIqXR7eP5rFoxQUWedkfZFyeouumjoRGJFY0AHnLPODP4RgRiNnY3/mz62kM7D112X+b1vJE6UnEAluaPMCCkIouT+OBiZflmZfFXJ85ORxS1fOgFWJjXOGLzvwZQJ2VJ61tOJAMSJlGU1pIn+Z3BS8L6/3YijeCgEzzx1et2HNqUPfBm/lAS7TqqZIUz8j6XZ8QPTp/AxwvX8qKHpwR5/ziXpw1/bImcZbJ/EHHY2iy/+EX3fO25Mz7j3wflJKsldbXgD/YSPzqVzv4p7G1NcdJBrF7Wf9did8Z/E12zPxst8B6xnOzQODCHjOir+3odVVPqEUIizzkiGKA3+d3/8mwWj7trYOd3uVevKmJKrRYvckzmqIl9KMk6tK2MMa+0qaOGK6MCoirwDnFHryhgH52mvoIUrogOjKvIOcEatK2Mc3PH/s0uW0hNPXUybcaPbEwqToz/OguRByNpWNZAEp1bbaQkUvmSSnJrbPksoU5uUS5jcK1cHipVydSfYXv9bcOnnRPxGxm1vrE/wuNPAfOPHc+mx//hruUdhV/kr/6gDf7r1FQ8/LN35VpM+7xHz9R/PpieefHGaZKNZVye0colj3uV0g0Mm04uOvA7qMfps4+s/WUgvOGsWT2BJ1l3S/j0R/5seOpVOPnoKrdf2xy5Ey3pTiZaiRVZlhY+qyFcgEdS6MqbkatEi92SOqsiXkoxT68oYw9q+VNDCFdGBURV5Bzij1pUxDpZxGntL8vVkjqrIW0m+YPQZFaTHdNFZ9g7zqFyj9CzRbEbNi+6PKsXt4L9Ms3nX9NA5EwMGfpSeMLU9733z6Uvf4wt6PLtg76oX2vO8SDASLbwYg8Npu5YAqke2eOgVjBwxy8xFPHPz0BuUeOTWZLy1hno7JVm9f5b2gDtMpSfize+S6vZfhctR9zr+l9IS1kfr3PV/y8On09ufdD1pgZXFS2R3f9kv05ZZjVNpHutc2s8oMQQP+IP901PudQDu77C93cRLY//w4fn04W/M47MlO9/+PRH/8Ynp9MajJvGTuWxfXzvr+NdRMJtRtdZSzGEjMyCcdSZmAD9KT5jZjGrWWlKdWWzEelsd7EzMAH6UnjCzGdWstaQ6s+xN/rFgyIWFUkOvuTPF1nA1wjo2gyojhDzZ+BGRl1UBSzw9sA7sMHXOwb8OrG3H/ys/XEoveN9CWrTvRcWdXvoJkdXTiBVj3h//vDAEoywHLJdPG+XLOHoNg8UHoIjAydE89LLg1FWIaOMPwYvaZx63Ibyg1xa7nJ53+qXpc/jsufiXOc4WtVwKfF69ZTl99qU3ThvkEr2VntLfvQsfMkReXSR92mhqjvGHcpcWx9IRh0ykFz3gOuk2N7FFDGVJXEHAspx//f5ietkHZhMXs2pxERxBOU/d/MonEKHnbPyzccxbjGsR/wPww+hnP2lSPgCpVTT/KkX/Wh/UC/+t/RkFEipKpYvOFGjD1YjB//bu//WxTB3FbcXfzzBCT0m3lPAXrumvNoubmyp4HVQft54FTJ2reC1cRAtfZ3FzqzZZadx6FjCGUl3xWriIFr7O4uZWbbLSuPUsYAyluuK1cBEtfJ3Fza3aZKXL6bHvWEo/+iXf6KbGkqEo02KvzOlvXNgtYpmhcrYyp+kklaeqpiUyXcm5BKZoUG1POWraef98IumUY9al38RHBJliS0z+Cr5c++RTLpJvP9E3z4ra9s9jsj/p8YfikdmZXEtt0Ue/uTW96D2XpCkWb40kC0ec301pJrYQT/ymh95l/3TcPQ7y+mi9yvZKLFCv/ee59El88HFqItZ674//GB6zffKfTaa/usPoFycZGSZrWWm5Rl5Cp5CAUkUZ9YVzqDFWsMmZtmqTB/+6Z5dtDJxFSXUl6oWjRRYMW/UrU8jfCXSwyXAQGd1f6Vk8FPnIitKoNPhHR0j4wjFCiKWyYRtsOxr/s780n976KUzdi/gp05xk8hT/XCTybgwfdkTNWo1jAeGlKXHNjdyAYAEQRBn7n2VQSRt4OaShrEngJoDurH9OzsfcbTo99I9wRJ+r757y+Lv0qsV0z+MvSNO46dwmHX86Sd/5tzakV+AbUtomRfI+yX1f/jN5MU/qzjK32f6ltICT9xsdMp3+z0Oug7fE4/sLdQ0+9Z9L6XUfnk1X4OuPE3b4B0d7e/wnptalDzxlTG7ke2Wr8KIRw/7fjMm67yntS/NfOMNoGtLu1XEPAi9TWwcjzVebsjlYAShskBu3LnYgUTH4X038N2Pie+TbFtKmy3Fppp5ZPezKYK+3USx9zW6MhxMh/rwMbwldFI+NWYS4kbLy9XpicGi+q/3f9LoJN2I31vU0//DGihz7tgvTd3464m12NJlnDHN4XvYTL7mRfA5E6p7b9vi3/Tp9+2f2FV+tv6wZ29H+2bmldMxfHpwec7f9xUfeWNSEXoEffXrlebP4tcDFNDmxj8QfAfrL35lMf3ev6RCqME6a+EtDReeGKgaV0IFERRh/1QLFEgb/MjdoKHT/y+Nf4ruT8Q8LhnZI3S1df+J0RAWYl6n0YSnNOKOKjFu1RLvzzhg+KIRVmVumwb/GgTuPRYPca86fSx/5Jg7H+eYZo+TXVDjE+DY2Zj9M7vb0kh5IwyITPrPg/AO8yvkilbjQIcpSmSz+cZHJHkONdq1/nmWcgfsYN8DHCM1/2/6PfWNzevF7L83X3fv8j6WteAT2nKcdnm5y2FSpK9p49hevSq87f1Oa5n0YWiQWEi6JI6NR2i9BkZhqZJYT1gycbUyl4x96HVw66zvb0Dwf/dZCeuOH8Yl51IPdMY5O2JvjPzGzPr3rcXgn5UA9+4z938af/aKtJKpNaol2552xPEEhrMrcMo3q/8H/zsdfL0lZkEM/SORlotDwu8kZQZRNq++VTZlpTbqtGfzLxMQgW+QKU0IvnAOyvpHncHbx4LfOp8uv5DOdIfC6RmAnQz/bwmBF71D8UQKL8LLhgwqRScCPNcsGq7GL/M/jO07PuvdUuvft82TctJ/V+PXlC+leL78gf1VWKiuTsj/2AQyzPfCP9ktPvic+GxLaf9GVi+l+r8STVg4GMCa0T9uf2yj+u+3nI7VPveeB6SF3PgD3UxgT9Umkhe4y/DjT8bgh/pUfLujZRjE5JroW3v2L41B3ykhrGH8+ivz3f5M/3qjeuvWUauW6WUOtqsgT229FxPhbTsvqGGMckBW9sikzrUlPnQGQMRxMVoT5Ndrqe2VTZlqT4MTaAMBe5r+cYYSdw2JA2jQxmpw3TEG7yRnBFGDWB8Xg3weHBw2MRchotBlfbIUzm9EP/juOXP9lAS+7LerOKQbiMWPTS46/nXTYkbGUyEkN8yDHLndsvdNREMWrcVx+dOkQN8wPk5XNMjQRv+v83+5GKb3+4fJhKXPglJ74BPGR+BjhxZfzc4NM3ObaWPuh4X2Of37eEWkK93MNQcqffF3AG9srtl9WjZXbzxO8mx46mW52GG8Y1/6h8PThry+kN/wL3hLH7SbGbm+N/8TMhnTuk1LaT54uK73rDQEjcbRguiEohv1fO9hjo4xFyGhjFrHYCtfixNIxB8V2xr8sGNFDKKepUUSBb4F9miYLRWSrf+O3wbTFtrLDu4auxsGFAeja5J9vJD/93XPpWz/DzMOBkdsvv20hfYjQcD9n8MgQI/N4VkLM86C8YqFzHHEoWD5opDhOk/pMFctBytlVCNs18s9L/2f/7Xp8IJCV709nfu7K9OYPX57G8FTSOD546Mua13UsbcbN5/Oed4N0xMH5CSDGhfZO6hq6mk4mjz/j1ZtCIfwp2BedvTV96+d4/JZPaSHkmg1595L4j43PpLc9ajzd/LD8UERvo4IS7bs27X+h5cruw+2vFwxpSNg3Rqw6HoAwsJUNCoJMFMoNVdhNst7MYlCjnjmbYvCPzhgxqeR42ZyjsWwimkU+vvnEM5bTBRdtxlrA+KNMdEImEm1OXrxWLrocfwwOyPkMoPHHWrF7xD8ycQKggi+SUUebHRUrjgrq187/HI7+jz9yJt31t5vLUlJPbvArefihqPu8/Bdp4zpMbqyqVI5VgwyeOo7b43DZ6EF/iBc8dkH8dT9Q/6sd/+d/bSG9Hk9SyRUx1pvVlHaR2dPxH09Pvsd0ut/tOVZYs5y8fpBlp2doh/1fQoEwWXgsXFTImDQFO3gvGX9WJV0wOjVvGxMAgbVCVk2tLKOhoFoVpMAG+OpYK8toKKVWBSmwAb461soyGkqpVUEKbICvyF54BX5KFO9eXMHfEpVh2p1wymOiWlR0I0eDMilxD8xnAABAAElEQVQhnx/hdl3KJFapi0a5RjYn3Ev8MdXV+2fOu+A3qF9y/9EfI5zHU1D3wOO18/hp1jjhtv6vd+BEOusZ15cTqGpvsDpX7VylYGUZDcXUKpUux8L/THw2/b9/vYRPrgdwZkt0zVY0yjWyOdkF8f+L202lZ9/bXlQ0/9ug7h84Vi0kM6kqSIEN8NWxVpbRUEqtClJgA3x1rJVlNJRSq4IU2ABfHWtlGQ2l1Koi1WcYnqEAVlKJTaAB76wzvpIWTbULuovCRGTW9qgG/4iAxCUEx1ln0i824WW9k+fS3PyC75dyJEOIFaGs2DGV8jgwLy1qkBMIOdqhzZYdMkBiFVEtRHFr723oLGAHSqVGks0OOrUJu8j/+qll+Y2M+CKc+TX6xvMvS2fj51vzQa/4t/MobdsyLkstp/Off4R8kVaqZplzPZ2IPhiddcbbVzQav2aO9CJ7rSHzP/37fHo1nnib5CWqvST+t7nxZPqHo3ATw+vpjKuKJsBCqwsbkVnboxKL6IPRWWcG/wiU7bM25kp0StQL12PNKiwY+iOtdubTA10x4H344phcRETeUDzS46Sjcj9idIP78FZyt8Q+9DXf/wWXccGYx4KBR6W4UlRJ26+/rUAzLxkwTnbQp4+LyrsTUFtui6QuLURrHnJMlORz4OWiOzJDu8b+53Cb5h146/s3Dte3vrUmda1/dslCuv+rL8BTSrpMcPy17Z/DGcjJj8cPJd2Eb33vXeOP3fPZ/9qSXnA23tnA96i0daxlSZR2Z/xvc6Px9IaH93323KLHukXe6nrN3/+6e421XWOyT81/uG6bR1ruTCGxY6NeG1gCEBu+fbyXDIZzh+3KPpgE4CgUmnlXObN9DhuU5wZzbfF/CW6cHntqwgt7uIeBeEjMc/vlO0YYAvwnFiGZNyBz8FIUKc4mePbB/zJyAOViz0Gvh+ygUpbCrVi85CH2XLJAmGVX+z90//F05pNHX5Ki//PwqfPXnreJM6pecoKybT/fx/joS26IG+hsD/5ixSmvMsViVjP+tuCFjqe94+L09Z/M4nMi+C2PdflHnPZw/P/kVlPpRfff9iWpnW1/6IhV9cDgX0az739lJOfICPEoIcZRz13YF4w6/jGLWKCIA5yTRX1WEHIYK5S7okwxwYEBgqphOwgoBv+5sxGrHYk/b10cd0ZKP/3VZo0yjvR545sx1hKVU6PqOCxi//IWwxIOwyUX+wL51a79O87LUuwgJhbHQ3a5Q9vT/2vkfxGL0v3xbaPj/jy/E8B6wFccf4zbka+7IF10GS+jdZO2YCzdGp8pP+HoQwsA4D09/j7/37PpaadcKO9vaPzZgmX8auAhCDfauQfj/3j8YuED79g8VcbqNfHXgIqhxLaH6yCg2NPxH/yzO/OCUe9W6ME4I/V2aNwNW4B1t9FsN9Go7LK6iw7+m3juwvizqOeftSV9+Qfc6SDIjWt2Qu4IENHbwo4u4QtqPPrnJSoZC00Xs7/EziI6iUpe7il3yKWX6UcWEphYj13sn79q96ZHrk+/e1P6pkf6EM+gSBAvuXop/cVLfp42yqO3xR7H3yIC9nJ8/+lPb71B8/VsI75rtnKNZoSJRkP9OuWF/t+Cs51nvPOi9B8/2ppf5OOyXcefvxpY2koHuy/+/BDhG46aTre+IX0yWQONqrarLvaV2p9zV6SDb6yj+r8eFoN/GzOdeIbxF0M7xlsYcZ+isYQRPM35UDPqYyFtHrE14EYskB5DVA3+d038v/LDxfTcs/Hrev7RQZ10ZN7GnKrnDox86H/oZeGAlUdXflSbO0jWkrwmeJ+RyXNV/tIIFNkXC/e06/3ji9v49b0N+VtMcFSvFSJ+6tub0/Pffak8ZSR1trYATpbbK3HD+6MvOiJdd/+JPT7+P/lNfM7krEtz3bSX2CyptvSJVFrk6XV50djN8Z/csD6decxYOnhjT8C1elrfzBuJ8Tcdae4SUQ37/67Z/2NMLdarij86hPlyaouNcuRHwEWtON/G8zh3A2tehEyltPUR5cjnXD0qG25qwnbwLxMn4/Hwk5bTr/AuhhwjhPjziIE3tfVMgpOSTuYWS5lpZZiojXqWpxvQPIPRuiT3OPSFOJbC+MeFg7q18M932P7s1pPp+X/N6+jiWbdN/x/71gvTf/4cn3bPd7ml6jbP5TZe/+CpdObTDtOYSOOssQakjMQgNCpTqknb38HQT4i/lCWbUiDvoTznjIvSl/8bT0PxSk8n/t2yGf/xdfzxJix0+Le74n8LPGBw4mPX5WZqG3zbxF+bCes22q8x0VK6vGrWMv5dn7Eu117/ckkqruI64BmQvCdInDRY3DLZPlK0tUZRYSsZsekdJNwXyio6+G+iLEGWjewfOxP/931lAZ82x2cxFvhpDPSZTFwaf7m8JD2LmVe6k3ZMQcAs6w0MiFo36UawlGxpYKbmPW8pxv0QzYz8L3lZPnW7xv/s/Fh61YOn0h/j5msnsaLwv2nzcvqLl/5Cf1dbaqdt1RemdZHhWHz6Xx2U/voO+2sxzJtPw6QYimqR9tvSFMDZGkj2v73j/9Pf2ZJeevYmfAgxJZn65R0V9cRSdXGHjIqMs39yjQQB5cT6A4HRp6fWOv5T0zPpHx+Bt7yvx9MaCVZoeGZ3sP2aK0dZitRypRgY1zr+g39GoD/+eg+j6ZQ8L3geDeDK26ozK6Gbr2Me/CPWEgTd5ToB6saw1VRZKqEgeQ/66FP540lbRKlDAltO3D4p6SIhne8DgRKnIy2Y+eQGa85D2W4hS5mcyYjGHJKbpXOJeC2sYDkwd4F/1v9cXI46YB3Ly47UQRZS+uoP8CNKb78o3wfAPQBpU+3/KlyO+sjzb5D44h6rtr2pclkJ3RI6ZioQqC1YIJ7/nkvTl767RV/MM/+g8nZ+7gHtiRxcLurI3sZ/EmcaLGRt47+UbnX96fSWR5bfIZEqdxpYx6Bjzu1nwJ1lFmt/nb1XqsqshC68Y3ang38PBcPWE/8xfQsjBlWyZEUIbVZHK0EqjzBasTDL28JeAytFj47qepnNSicFYoQLVY8wDv41AgiPxf/ff7yUnnXmHOZofIQQE/USJxx2ADecuC3QkpMyU4g/cHpUqxZmkSPegFFLKCn4z7nE3670//s3m8QZBt4DYFvalP0/94xL0hf+ayswbJcujP6TUbn966fH0vn4jpT8JoXEgoWF9qtEpSQtSbdV6AxAmv3r1J4VUtEy/j/57a3pVe+/FD/ZuigLmUbPCgn+2/gDkqe5EHCpcRqfweUpfoCqzz/K2dn4T+LT5qcdPZauh7Upxshq7bTPf9N+x1ZBZFyZQvtVEi03RPS13wEZZONf9ZqLuXkGVg8Zs+WMkmHwb92CMSPPPqocY6WRle0IdUCszFb5KTB5L6lVthVQYdyOUBfANrgqPwWma7H/Z793MX31Rzic5bWYHF2JURUoBggKTCxyAiA8NBY/xjAkQVt+o7BTTy8Wbs7VcplEJm0WoGDZhnyaA4rt8D+Pr9C+8H4z6c9vmx/rZLEhsdirty6lu+OTIHydz/2HShPDqhz1J/unY//iQEqeaLP6u3IHmCq/OCoFzs4vpRfhNzo+i8tQk5zE4ShC+JQaL5Px0p/ForhWnZiglL5pKjqFRWMZi4apd138x9K9/udkevo9d+DdC1Y8Nk4aQkWe8pUVbdyMUEfIinyVnwKTBUQqNPiXGFWB0jBxG9VYMPIUELUFqxwheSTzaoPHusX1yKXYvtU8ZCjAoMzs4H+Xxv8Xl+IX4E5dSFv526O5P32yQT/EPmZfyxDp9L9YwmjKMvEsk/1JHn9yDIfFiY/Umj4YZTztjP8FrEhnPWUDfsSHdaiTDatv/ng2PfZEvMMw2cVIzQHcgsdyz3v29dMNDmkWnjUaf1wkXnnupekKfCNKapVvA1id2RKtGzSj4u/NBVJXgzr+qPvUOr2nsSvjPzG9MX3oqctppucnb71KYEpbhv2/ezYTIlUCFZSZXaPxVznaTv89l6RiJcnLUK7KprBS+WK0HL3Zc26QODlZFqESJHK9BQz+R0YGBobXUm/4lvE7C4vpQ/iNDP19DIKQKRPJ2sS/mDj98zchenom+pVCkEtWCM1TzORgA9H+z6UXJzDASFk3stX8Xf+3PHw8vfUx4e1uBUoNcvb0fz+wKf3Tv12dddkxfMinUFQrv8H96b+/IX4Hg3Wr/WeIE7qQ6rkmMD3+gxW/b7GUjj9nU/rY168On/bIBWa3ukgzl3rh1oolz3sWjESVrFIZKJHCU2tMU9O8p2ELYQaCrCb+4+Pj6W/vPilnGJV/E7J/EZsqKqT1bxkDXcP4ayRRMW9/8Gvs4L/a/ywsfklKFLkfzUhaq0pHy1itjSGbGsxs1AGVIgiBNWytypIpjRrYqRrMbLQxZzFYA2vYWpUlUxo1sFM1mNloY85isAbWsLUqS6Y0amCnajCz0Wi+ClekHnXSfNp0JV4D56zBBKAt4JyO+PawXrDUccCt/IaGTLSK54Fvm/S7U3qaz4PmsrhQh5LpRI6m4VCOilfvn/V7yl9Op7+5Q3w6SlusWz1zuO8rLkizOKHyRvb4v9tt1qeXPOg6VXOsDFVmyZRGqxwU1GBmo7R8Hje0X3b2ZekKuVcBxYj2c29lHGP8GT30Sj7joxuU3NMBJf56Y1/jjzfCZ3CpjZendjL+B+w/nd533KRMAbphy2Ia3X5BxYDkWHX1Wl4FNawpjUbXoSAzG3VYpQhCYA1bq7JkSqMGdqoGMxttzFkM1sAatlZlyZRGDexUDWY22pizGKyBNWytwvjzm95mMWo5eqhCRgO7llZTZOeMMdrj11QKGQ3sWlpNkZ0zxqg566EKGQ3sWlpNkZ0zxmiPX1MpZDSwa2k1Kp/9pfl04icxhS/xo4QoPc7ukDkX8aawzK0CUBjrIcsBAGP4HMcSJra4blDSG+EAslzb0Z1V/yJi8hLsKv3PYuE7/Ynr8Qt2rKWmUrrK371gNh31hgvTernczpoaAm3Ho1z0z8+dn47f8r7FoVh4YmNymZFobisjWpTvWlh+Si/HTe1//urmNBPqYf6lSjH+KIrV0PhzmS3J/TP+iF9tza2zNkhGqxE+i44zjXE501BA9TJm9I8sff0/PjWd3vywiXSrGzC/OSl1I2feirbVFNk5Y4yWzB1OIaOBXUurKbJzxhjteC0KhYwGdi2tpsjOGWO0uOtwChkN7FpaTZGdM8Zox6sqyj0MB1gOUiYOCvA8KsmsjRNDCsyHSa1VW9m6VRiXCqAqh+rB/1rFn5/AOPYdi+lHF/IsA6HGnxydWsylV9r4cxzoAiFHrnK0iow860A+WUgkP3ByBCyF5I1ObrIASdfLxrt4Nf4PO2A8nfGk9XI2VApinUs68aOXp9M/faVMgKylvHOilQeI7dGb4l942Y1wTZ75mJ91Y8r8Toz/r3x/Nr34vZfgXgWeTENxff7NnUZoG/4RQHRBOXMTeI6lFERFf+LFRF6eGhvnwrjj8b/l4dO4/Kdnc+ZRPZlkdJR/jahWsw9rOlKmHIudiL+Wo1srffDP0Ho0QohM1x///GkQA4V8DduPMK3ROhOvw+pnRWwyyXbArf9Hd1xTFsTubmB+jTZ5Bv/bjP8Xv7eYXnzeQlrko0bsDARZjjq1Y1SXt3X8KdnFJutQWzC0f/kAHvufk+CSHA0jCyVZSKCXIoDBOxQ80t5R/3jCLx31x9PpMXflBFbXjp7ohz9Pe+Rr8DveV/MxYmLwB73cu8izLv3/1g3WpRMfHz42yAJCGjHCgGCZ/dYts0vyc7DnfPHKND2D9q7gP7Zfdg4ps1SgeDCOfkP8WY8ca2alqzr+MLt//NzrzP64pYFTHfbRdsZ/3bqZ9J5jJ9KB/gkQq4vRUl9yw/5/zZv/5Ayj6m4XnKlHQY9kyDwPcH/UycCwBjC5oZXZBWcadFc0pPk16kgDuKJmKrMLztTgHsmQ5teoQw3gipqpzC44U4N7JEOaX6MONYAraobfmPry93FthxfMkTiRc4kHpzK2YhGDYuhDv66BBQATL+deeZlPGOt/5qcB1DBapE+zdMASRU2GPITt8T+Ly0hvP3qjXB5hfmu3UZb1g1/Ppwe/9tdpPT9gK1VRb4InAIlPWb3hMYemO9wCoKoyUisFrbC1LOaXYfyPH82mF555SbocC9UE3rr2GLESaG30b/nFBYTR7QeC4Jy0jDb+aAzizTIsyWUrj7/5x5nW9H64PDVdNxmZev2jDX9+24n0nJ5f1bP6W/uNmv/iwDUVY/lF6YIzFbZPMKT5NepYA7iiZiqzC87U4B7JkObXqEMN4IqaqcwuOFODeyRDml+jDjWAK2qmMrvgTAXuXJJSWA2udJ3aVOX1CKUs4bCR+aMHSVXlK2Mq3eBf9+gR8euqNXrUC4dNG/8f4Cc/jzt9Ic3h14fkqFCQ8uQ/Jg8e/XP2wVEppjk9O6CNR0+5UBYOXiZkZaUEnRVH+5fsxSzt2hH/GzG/n/PUjWnGHv5hPZr0ns9dgaP8K6qPDdpLXFb9K7cspS+/6kby+xJanVipZkxuY/xdjbOKt+ES2Ls/exUWKXggXgIR44/YyT/VeZUzHFGWWGhHMf5E6A1sjT+A+j/b1AV2ZvYKTduIv/lHmVNYNHimwYQOHRX/A/abTh94MgOd6yYZtmfT136LSDe/okseIirdNuI/qkQvB4W14z/mqXxlQ6W7lvtvFgwNjcTJWWdqNSSLnSBqWA61kRWNBmKJ+ONwR3LWmVpNCEx6NARawwRbNisaC6w4vdb5f/PHFtN5X5nFSQZjheQhy4wQTmWcbLSXeCSt8cckxXz5qpLnJyOrSr50wkkOMFmAcBmkwhHqpUOgWYZCZoQUBE13v91keua98y/iOR6GnFilR7zpwvSTi/hb5nSO/9BJC2TAQA35kP0m0vvx/gVLz067/q3MgqjGH7N+6+dz6bmnXZwuw1nFOE+/JJE27beK0E6XOZXWQZGr4jrKiK+MebAM6xKKrcY/YyqLey5QyLb9850Knmm4L+bL/smMT0ykJ9x1Mv3NnaaKmhBgKv/WZPEbN15YVPbwAeesM4KP0uB/98e/WTDCOEH3xM7p9q5aV8aUXC1a5J7MURX5UpJxal0ZY1hrS0ELV0QHRlXkHeCMWlfGODjHsqCFK6IDoyryDnBGrStjHLxN/5fhV/keceJ8umrrvM7xKLiUbTMBNRiktMmEiykGvKwJgAhfMrlzHvPqewN6ZEsI/zrzG5Ry9Ed35EHUc9f/VtycOOHRG9Jtb1TeYga8Sj8PP8WqU3bXP38I8Fn3PTjd5w4bJW/xGf1XxWZBkdzO4suyJ3/iivQO/O2HT4vUc7b6HOVfsLm90mbwEk8U7HWRWRlSxilRa8EAT4grrM7b539icgMWBiy+Pf5vePj69M7H8GggpsZ/NPXwLVrkTl1Dm1FGjzmU3JYYTD1sixa5x0FURb5bpFpXxpRcLVrknsxRFflSknFqXRljWItlQQtXRAdGVeQN4AtGn1FBdpobEM46Y+VlOkpPs9mMapZaysUIGfyXaY5TBZIHyxnV+3aUPmauMZTO++piesvH9TczKGti/HkxClOezCbQguqRJR76BCNnDDJbMQfraIe+OrVR67MdSuMCwlLLKYnK1LNxMRflPv9S36evS/vLDyGx/JhoHUsfwiOsrzj3Ynk5Tmdx6lG+1Fn9b8WnOb70ihtJ9ei3m1Yef9/9xTx+3OgSnFUs5LMKlhLbH/muf9aHztWLeh/ZfkbGi2eeEH8ph/kdgKJbfmX/k1NYNCZnpAQimSamJtKrHzSdfufGLIt/SFrlyIi6bBxQVM6ZzagaasnBYFaOv9cpZikVrLQqmCejtbabYfBveyxjjQVDLiyUOHkcnSm2hqsRFtgMqowQ8mTjR6ReVgXcjsHoGZthMfjXjl19/PlE0SPfOp9+eRlugOtpRAl2T7F1z1n8Oamwv0Hy/CLTIfsfl2n4+SpRy6EwCw1AEWGlbRv+73SLifSyB9lvMGg5bfufcNKF6ds/m4M/1C36lwroRI75MH38xTdkAZq8Os6YpaJb8RmRt330inTapy5PG2b0no4McXvaK2Rfyb+cFjAi0l64yPvJttrPygQXIu0K/xOTuDw1lZ8QwIHCrW84md748HyPg05D6vhHOyS0xFRGCLldw/6PrvYgdQIV4lYFMES9sDXC9r9sr4y7Lv5+hhFqKh6L+8KVqvZVqlirukJtstK4LXkKSnXFa+EiWngruDG0apOjZ9OVrLWmeC1cwWauzuLmVm2y0rj1LGAMpbritXARLXydxc2t2mSlcetZwKiev8z3vHNTWpzbgp2flyHsIxQc5cBkwpxlTlelmbQkIphkuswl8ZxC21OOWhRl/lViHntlsOufL8G9+iHrEheNMkNZOVrSpVcupvu+8pd+s5t+pURUmr7trOih+NjgE+Rjg3WtS9QLZx5+iCevnnTSRekqvlch9yra9ldLF/xpu1v/bGVJff5z/DHD6COxwFiQkXF0/HfO/8Tk+jQ2tS6tm8FjtE8YTwds4BlmT6qr7IBWbbLSuPUsYAyluhL1wkW08HUWN7dqk5XGrWcBYyjVFa+Fi2jh6yxubtUmK41bzwLGUKorXgsX0cLXWdzcqk1WGreeBYyhVFe8Fo4WWTBs1a9MIX90IXywiSORMaQqPYuHwo6YKI5Ig390hIQv7OghlsqGbbCtRfyf+Z759LUf4sg8dylrNS4LB6ddnaj0BgQ7FBpRxv4HL0rawMshFUGaBG4CKCdv9cUplXmptJiQrf1vnV1OH3rWhnQdeR+APoC3yubsH8dPmz7/3RenafwmhKxWxDRpfnE5fezFR6QN03zbm8WsHP9F3PB4K84qTv34FWkDvqTOcSvOO/5ZCZzBMLH9nPd7/IudJtjkMpksaTkWOPFXndaqLLTASpnIJGVmWrV/5/3zTOPuv7shPes++aECcaZLHBcq6yaphMgSwKBn61g36FmdFdKw/yNEEr6Vxx8DKaHeg/EPZxhNj1aVoi0q8q4VVZ497HZudyYXE2TP1zAdSFQM/mVoxZB4+HY+/j+6cDk9/rSltDDLp4tYng7VMpxD/DkZWgKQQ9rODWRC5WQhM0KeNYnJR/mWrUu59wiQmTv+b369sfS2x22QI+zuZKR1e867Lk5f/B5/+4KlawuElytRiuEjpJ89Hvcv+lLOYqYLNs2nR7/5QnwmHXdU+KIbCpOb9tvT/hH+tV70gEryP3zSrQhy7U5jplVRn9IcoNba/yEHbkgfeObBUhvdxIDkukSVI0M93e5M7ooge76G6UCiYvC/lvu/9EQMd1CEBUMREee8M9apQSGsytwy6aAmV3DGGaW1TmqJduedsRxBIazK3DIN/jUOOxP/t3xiMb3vS7M6KcrkzcDy0gh21jyZM85kOdPxzCAfU3v8uXioRY+3BU84/mQrM6RqZaHJP/5tT0/pgTQswf8yzgqec9/p9Be3089T6BCr+59vWN/r5RfgsVPzj0VM6l4iwrOau95mXXrpg+1jg6UMrV/Bvun8Tem0z1yFSzRsP/XYWHmSrW2/llXa3/Xf3354RlZZJpRF/Nl+vd/CwO0O/5MTU+nxf74+PfCP8QkRdpU2h1xOQSGsytwySR7hCs44o2KuNmqJduedsQxBIazK3DIN/jUOseMsYkYNUWiJocXPsc5w/DFZkJ3JxeSJgZKbnMkYI62+VzZlpjUJTnKhg3/0kHafRa50hAXeYgVqPU2VZ4h2U9aBN23Mcxl+//rIN82lpUXcMIjFOTiXawQTG6sqkykr4n3HDEic/eVT26xk8I/ZUaCeR9C68TI8hxzhf+AZG9Ph7W9fhHp94ptb0/NOvyhN41KT5iSp/S9CfveTD083OWzSalOc5CpccOl8etwJF+EbUDhnQlGseQFnkBFvP5dNIKU+1lbmq/0bhuX6YyehDVJsT/t3h/9bHHFQOuXY/dAKVGgPjb8db7+GXfJx04kl7abMtCY9eQAY2i8htciVM4wwOAWRNwY0Gm3GF1vhzGZULB1zUAz+fXBazEgtQkajzfhiK5zZjIqlYw6Knvj/038sptd/BAvGMh61LQe5+Uq7HlVzgSilGMfzDdWLf86fMNkJBadRTcTnST37N0wpXcNi/g/BfYv34seS/L04lGBeeejzInyO4+Pf3OJvbYuf4J9zOf3zcyCff9kR4HJtmvaf8C+XpdM/cyVumueFkO3nogFn9MfEnOTZUrZYJCEuQYcEnbWffEbCYDUnCx6Tk9nMIpT5d5P/CZxdvPYRB6Xb3xxPSoUaWn1E2WyKrXANRFvaMQdFE3/Lbwijpo+02AoX7eTF0jEHxeBfxl9v3Cx+oGXBiMgQR1G3smO7hq7GwYUByD7PUJSBawtpZYd2DV2NgwsD0ODfJrkSFudyEPGlkPTgE2bT5Vcu6NkDZzNMXDKrccNZjDM3j57zpKnPNOWSVJ2FQHL85bc1ZFeGzbEsDwBZR7ISIg/06PpxfzqdHvrH+XKUTgNSML/d9JzTL05X4ob4BLMx5ewqlC2rfdubT6UTHntYUWbuwssWcVbx63TpZnwKxcrJ/nMzgYRCKoiCOMlDpIZw1tGyjfJP8DKuu43jEVxfVr2uYLz9KIwJeLZ/zf2jwne85X7pNUfhdzO8Eeq/kqVSuWKNweLgkD6G7UfQdHnsAbSFtLJn6Rq6GgcXBqDB/+riXy8YEsgwVkasuh750DvKBgVBJgrlhirdwTjOzCwGNcpO4WN18K8zhQeoYUIAlQ2KHE/Zn0XNzY7H/+s/TenvzlrE12zzJ9Bz55Cwe7R8nE/IrIne5cyG/9J1sMtEZ/5Fz/4nBlOlElYLWXitPutEQwjlfAYC3Wa8UX3OUzekIw6mDin7fzHOKj6Ks4pJTMJSDsoV2wj/S/gw72sedd30B78Z3+NI6YSPXJ7O+BzOKpgfqfWvSmxZLkn2T72y2+efoWIB2n4KFLF4bKP9Gbhm/qemp9NpTz44Xf+g/HEuNpAdOCrldtCsbFAUZTbSRnbY/73/EY8qugiRjAmJFIMFxV4Wf10wmn5mfWtVkAJr7Vo1tbKMhoJqVZACG+CrY60so6GUWhWkwAb46lgry2gopVYFKbABvjrWyjIaSjEVv1d03Blb03d/tqiDuTqEDhnAyiRaqYpGuUY2J9xL5E53yWwmauRoEBj8WFw6/+kb03Q+wfjGT2bx6OwladNVOBvAGlJKL+WYTim3OAdCWZ956Q11Z4XqosuX0rFv+3X69WULcglKfGJDNJP5l53Z2q8FKiBve1ReJ7VxqwWIbI3czvavpf+xyYn0N3fcmJ56z/2lNVY1bVqQApubvXpiZRkNJdWqIAU2wFfHWllGQym1KkiBDfDVsVaW0VBKrQpSYAN8dayVZTSUUquKVJ9heIYCWEklNoEGvLPO+OJTNO2C5F4yE5GjVYN/REBCFeLlrDM7Hf+fXrKUjn7HclqY08dsq4kRs9gYbmbzyJGJB0U8KtL3NopOzjRoIghJJj9iyePP9KS8TCNnCjTmxKOye//eFH5LWt86Pv6cS9JH/mML/NT+7ahM76Fk/7E8lHPT602mdz3lcHH89k9cjm9AXYmzk1KPUf75GxpEWR2l1k37t+Vfa4RSwMiRppSYr8CBt7L72r+W/q970IZ0xnEHyVvrJRI5+CSxk4Ja9cHorDOetWhGF6dFR2R21qMSi+iD0VlnBv8IlI4rpYxbiY5Esdn0WLMKC4b+SKud+fRAvfBoM95o4zGIERF5g2D3lJ1O5X7E6Ab34a3kbol96MH/tuLPY+LXf3gunf813MuQ0VAGnE7tjDRjWxIlTuZ8K8OHKWdIzpRV0vjLrRDo5YeNZNWxXPq47hzuUp/+xA34DfL59JKzLkkXXbFUJnlZjYIfloN/eo8k6OF/cXEsPft+B6c7/MYMvgF1cfrxhXM4qwAS1WKd+/2jlbQDYLUnlrzQHfBf2l9KYPz3pP8xfHTwaffYmO53p43aHrQrplLTEe2P4A5vuWmIvAGH/W9b+59FzWiMZNRZRGsaEZE31A7GH9dNWQpSLkxILDjqA07y7PjGSwYjR1leRPTjKFijnuBo88zbzXhuMIP/MgF4XCVAHiWP91V4zPZv3oIJd34zJkpMlXkCZXfoZEqd5SNF8hkVPD8LC7shyDD+/LlSzsRuEUBGMX/OsYQb8He/zXz64Fd5NsCyJBsB7kYEkfIiwfzmkM6yl8fe7YB0yseuwI1n+lfMtvzziWA9ws9vo++Ef96B4V6n7d/z/n/ziP3SW48+UC/HxfijaoyZBluJyzStIll3sNhh/9Oxq2GMcfYowRT1REab5tyRrecGs5r4j7gk1VOtxoEcbXFnQ9JKeFVMkSl3RZliFBxyBEWHDaWpbfBfdfCeiP+5/76YTvjYXFrGVwrLUZH27zgvS8mkjO5i53EmlhcMevofC4f8Cpz0bJ6xtZfzVm+Acy1hkuKwmV2YTWOLm0Wh/mkx/6CVf5hk3ej6X0DwplA4c7dJXdrn2IuVa+ES2iS5wO+Mfy6cpf3FB7nd7Z9fp33Nww5Iv48zrpgYmxx+VbPNUJhuT4y/wf9eEH87w+jsVnFExJGU+Q6+wthwM+qZtMWudibv9jYcgR/8I1YhHlV8bZocZbe4Gt018edjtke+Bb+ZcTUWDfzj2QG7qZuo5HF0uRwkNYV6WRYSmDgDy5QNC/Ui5wMLqrDYSPmMQXCytLAFZzlbJOdK/uWpo17/sVqsg9QM5YXDGlkdGH60j2bCJBnDZWPl9u8T/tG2P731AemlDzpA2lMd1g373163/9koJK3GazQIb+PaaAaYaBSl9I5/wkf0/xhvYfhhQ1Ou5oM5T1yl+AwMpGNrFI0oOUXXY4gqXjEb/NukZt0bAp/ZGLMS3ILr2GESXY8hqtr4f+Mni+mZZy7hDfD8ccK8JngeMnmt4BOxHHestQ5w8payLmfUY3cBl2GMZsvCwfzkseF3qJawYCwubAVv5YOiWLnUw+IZLtSr6z87IwZJpKxiFrLc+tLB8n3hAk//YlXsvu5/emZdOuWYg9KN8RBATDFKbf8zTn0p5hF7o2jEAukxRNXgfy+b/9Ah7J+cYldRFeXIj4CLWnG+5Z7ejjK6zItQLmlEgdFn5EfAB/+IgEdeJrfqOkIO26ijB8trsFrO5YI85qT59NOL8ZsZVDGxf8FzOl3CpSk9uua0CyUn2bBwUCfHKKH/ZYLmUb0MRZZCFAvnXx4/wUb9Is808An2OI7EP1YKzc+cwT9KkrpAJ/55pgOzVJ0bpuBjW/7F3oztfcn/+ORkOuouB6Sj/0x/aTAHAMSCIQEJcu4LBeq2RyVB1ch7/KsipVgGPvqxQtsCoxz5jO9RDf41KL5txqhEbifmX7mHEVdxDTiLzR0qnt29+LOuLtpaI6C4IVD2TsNFIyxogJ1FDP4lWAjQ3hv/i69cTg87EV+znduKo3o9Imd92yv/bAEXA52I0S5OEvwP1vVizpd3aJRTA44PGlAmxgbfisYNBIgaG5lrwMqlqYXNKIvnFsxBO7YsBqwSlkM9FeD5H6z4z770hXXN7RkJjP7BsxQmnuXQRj/jrJ94YtFEqJ4szGrbC/0fdMCGdBoeoz0Av1g47H/oQV/AvJfZ1TIc9PJp6H+1WG9DYk8zaf8rH7ZSJAeE4YKNuTA+9hX/etNb2qmNdZZt6m9f3dosMR+TZKkE1cdtx+xO8y7XAcTc/XyVpRK6+I6ZCpmMBv8eCoZthf5/3lnz6Us/mJd9hDC+ieFZOJNC5lNIOay6LwmisFo8tpxQ5cU9xl8XCXEumTUTlyNOzUxSus7WcpaxjMtTvDLGJGW6f5RGXjKonVsthcuM+uv3b4UplXJyDbQmuXEon8X3t3/v9D+GG93Pvs9+6Z63X4+aIzEgw/hnEEooGBcZTGS2nXRM5SyV0M3bMe9D8R/TtzBio6T2WRGaltXRSpDKI4xWLMzytqz3gJWiR2d1v5jNSicFYoQLVY8wDv41AgjPro4/5/h7/sNymt2Mx2xtVcjdEMKuPd7nH0dbPHtY4oTLAcANC7WOlkIoM4X+B06P6tXCLEs4y1jCoiGH/CwLiSSvGzIXLmFBkk+Fi5HlZv+koqMP6NkWy0i9JNrAkLT+RW1GxTALy7RiWOTe5P8WN1iXTj72uniMdtj/5ACFHeYp96XI5JlC/6skWm4UnfPErI5Q0K7e/6z43e0f+6x+XFkcj2jwCLXVeZu0yk+BiXuUJLXKtgKa3TqlyDvKVcVSYBr8axzikK8Clc0gI9Tp1E/PpdO/iE+G4PshMkEa0GgOc3lWCmGHjTupMOJCwbIN+bSDoMAEzXmcl76YTdaUUjXnlvB+yOI8fzDJO1ZslEb6p1EKLEeWzM5qMIlZ/PNspNRFrdyqLlfNiipmcHub/4mJdekNjzwg3e5m9jvdbG1pv1S4aoHGg+1YbVIPOTcFJi9w8L8vxV8vSbEDq16lIqT/z961hXx2XfUzM0lmJpNJmqaxVYQKLQH1Ta0gWIygvvkQ0ZdS06JWIoW2loKKgvqgIMW+CAoW6cXWIi0FqWhfvEBVRAqCVcFoUaS2tgbaSZvLfPNdXL+19m9d9tnn/833MZl8k+yTyVm3315r73X25dz+59MzLznCgsFZkx/rBNliw+3obCaVCmBSNnbGl6Sfzfz/+O8eLF/9mkzU2itwEFsfMbZ1K9RdbtrgdwxNb0DZt/7U5u1VH0Nfwz3edfvVonjrkOf0R4V47dZ+ra0RJD6WJzx1H8Q3iNUc9cKjEKFg4R3bsfENZkhbDW2MwIlsZyq+fFXx0e+4Kq/Rytdo+y03emUT4xntf31VezmaNeef9dVUylYkKikbm8bf4JZUBoHn0Gl6mjctYkBwbsPirXZCNhcgrSScDB2UQc1QTmd8T8U4fbcu///w+f3llz9xYH9oKeddayDHTlcI3PbBgOXWx8cxFl0jiuqOf5jMV75qoFe4OMDtKVxpiDNF4ifayqVuqRO7eJQYurjQQa7GZnyrJp5ZwH/ZWrPY0LMW/+5L9y0f/rn7lm95pXzFEXWX+s7xZ8ezHEcI3fHv7TzUvV5lGLl1XcTUrfQdmH+/JaUNGWShqqKhOlaqkSkSagaaSR1QFElILLFV1SQqSQl2agaaSTtzE5M1scRWVZOoJCXYqRloJu3MTUzWxBJbVU2ikpRgp2agmbQzNzFZE0tsVTWJykbf8vv7yxfwmm2bKfVvdstMBDNO2mNyt2VDHyDr2bwgOHkjoIicwPS6QGx2w5SecWvI3uoBDnic+Pbb4f4zcrXRflwoHTXH9yDHxMc0or/5QAwLJdSuVuyKB8pxBaL99mD9TMSX72X91A++Ynnro/daMj1v0gZtoTdSmNiSVZRNopI04I0zA82kDiuKJCSW2KpqEpWkBDs1A82knbmJyZpYYquqSVSSEuzUDDSTduYmJmtiia2qJlFJSrBTM9BM2pmbmKyJJbaqpP/7Q29aSFliQA2yDVxbek3IzpEhHcSlyiDbwLWl14TsHBlSBhtQg2wD15ZeE7JzZEgHcakyyDZwbek1ITtHhpTBBtQgAfzK00fL47Jo3NjDooFpxSbbJqimTkpRlj/G07kory4CwWJgv+qAT5SxKQtUlyMBnJNvVB3KwuLzn2JEd+Mb+uNCK8Z4a3okr3LpQ3uYcnyNwfiMLkrZzIvsEV8XRmhiUzsrpCbVCGBNb1f8yxcvLp98z6uWK5d0pZS6WAVZo1XVojkrzsp4yQ17VvfYkJ0jQ5qLd7xBtoFrS68J2TkypF3MLBpkG7i29JqQnSNDmgN2vEG2gWtLrwnZOTKkXUyK8QyDmtJzoETHEi9x6se+5kgrykikpu33blXGpQSjDhTbjH8n5P8XPvbc8tn/ksN1JH+dSI+ZHDe/rBeVbnaFwZN73q7iIUaH0rNzV6BQf/xFbguEnrmjX+oruZjUZQL3XinPNPbaomHBdQ+UflLECpv/FgIAq2FSrOILSBqACyO/clB47rdQjLcXI/55+bOr+PzHG7/9smfHGNY515U6UGwtF3P8eyo0JZIZZkrT5FLVmi32blXGpQAUP1Cfrfy3T4OMKp7aIOwYQS1pV0YmDPtBCgdzswuc/c8cj8tnb2MEtaS5BOarGf925f9QzvQfk6/ZPvN1+TigbDi+eAEP8TEJH+rZOCwitVs5opJZVzB4vRM/2kBnQDkpHBM/jq1aYEqbFhYZVDDaoVjORMTHK7dH8tFC+1gusPK/xNdnF23W7+OrL+2YES56GLkuPvy2trI6tf1iRh1fhPjf/ODdyx+9+9ULnlzoxnRB0OawTWYe7ccIaklryTn+Xnrzj15hlMPtgjO1FwwkIts8gPGIsRMbAaEpXDG74EzBjgQiGZfUsQS4ojLF7IIzFTyQiGRcUocS4IrKFLMLzlTwQCKScUkdSoArKlPMLjhTwQOJyN+TL9l+4rPymq18zdaOPzqBWHUyl8HTWLhoFvXG8pyjURanGIZKWDVAL3Yh9nUPWVpwxSEyFhpjhCBAi3J4XV65PZQv3QKDneiH8VFEzNvxzQ4YNvPRx5frDqmHxW84kb2Otzn+hYtXlg+87eryba+u34uymtneMtI0LjiToUOeSPY7UgcT4IrKFLMLzlTwQCKScUkdSoArKlPMLjhTwQOJSMYldSgBrqhMMbvgTAUPJCIZl9ShBLiiMsXsgjMFvLolZbAKLrpVbYq/gRC+lJOdjusBEqoSq2GKbsa3GW0jf2u1ZQ965WT3guVffL/p/YfLV56yr8najLodXyfcMGu79KxUa6q/fJCJF1cfQMqfYRWHdnUCG87eWqPQOOF1QTBWPeT4B3vyIBwfTNT2S1n9z3KC4rqJD+1eKK2rhjmFDsiID73+UzzLymBCrWBaxTcPrY5SidsV//seubz81psf0ipqqrX9VndVdjvFaO3RCtuKbo4/SV7khjnappY92JWT3Qs2/oaVuLXxuwUjnEefSTo2ulWMfUcRFdZVfacxYRPOWWcUl6UZ3/qu5iQnJmXU2J3GhE44Z525qfz/5b/cWH7zU/LS6YF8Cx2bDq52tx+TrLjTBQDPHbA1AlaWA/mvDUYP2xglgQBK36ASRqdfdAY+z4Uz4LGl+Ps3nlnkA1gWAxXBRpyw4b3pUV8BaJ2AE//a54AVG/7eOShM6k6fpYiibJC79qONtyH+XRcfWD7+zivLQ1dRh75epZJN0JYY76wzqs/SHH/d8d9Mcc7aKO/UJZyzzpyJ/HcLRuv8rf61qmwUqVl3Y4il30ArF6IDsyrzDnDGrLsxDrZB3fbQarlB4azKfHgiZ9bdGGJfXu1/4kMHy7//j/39b2QAZ9P2uwU7s0bO8P9qfhWlnn1h4IHXsrLzyQ4akRRnVk5agCgfhRSr+BT/4PozMtHfqPFbPI0pvK4xiIFY6oDORRClwc0amK341mZbMjbabw7V97D9uip54JuMf275mR96YHn8B+5DC1pbvLYmh6iYwJk4MDtu7TGZBqz5Co/KheglsirzDnDGrLsxDp7tl1Tg5Kf16FMff18wwlUk2TheZieEs850hbb0gNFGyihsSudK8DHMdPiGC/e1LrPlLQrP+DlHNRs5nyfP/+e/fLA88eF9ebUVb0zBM7aYFbGAwGtcEvA83jBEajFF4maQTLm8lhdqZ/Z4ViJloeepv8bhqX/2RB5/ZlYWDbnSWMe3iESu4sM3jOoedU7xtT0o4QCrr4EbjzZLb9Y6j9qP8pEpk5Cp1v4TxL9w96Xl07/08HLxbvMSe8RlC0Fto5Zy0JMff7TRYoSX4GgjNUuVAg1fc/zbiPGcerKcyQkTfksPGG2kVrRKpqMl518WDL2wD4SXdCZsHVcRPLANVIwitMHuZ4TuqwCjPd4wB66YWnLGtwN7NvL/65/cXz7zb3ImL5/k0OUAx1+eUuNT4jpN8ZZMf5y1n8iRtcuIncd8fPzbZJiMo/gHN56WKw25bYYOqROxULCtn54qvoQ+x7e9dsXXBHBRu/Xxz124a3nvm16xfO8j/LOraBsqZ83FYhtbqiiULjoT0I6riDn+ztL4i+PYDuotOv5+hZF6inaLOPzBdf2lL+Lm2pECZvq89yLC1FIRNbiMVr4WcXOvpmw0772IMESZLqIGl9HK1yJu7tWUjea9FxGGKNNF1OAyWvlaxM29mrLRvPciwhBluogaXEYrX4u4Geprzx4tb3n/Qfw5V9HJFCnnyuYvzlpYLDtrZ+/6UIIf4cAsJ5hGUCrWFFPSlD2hACLi8UYfH7/TOJIH4bbVUlZLK2XfpjpJ/DJ1oNbabiyd56XSsOKqCDWL7dbFf/jBi8vH3/XwIj/u1o2ejeZ9RL/Vxx/Z4jbjR7e1Y849MwTKLJnOeon1udqbUplaxA29mrLRvPciwhBluq34umDwrD9AtXwOoXzxLYLK0riiR2DYRJ97j9Wn7Gd8SZGmL3WNlEtj0z7ZLMeSTnPQ5VqAL2L+3//XN5Y//nv7mq3Wsx31Un3R6eSp7ceU2jqLgNgkZOW8TPeY9rUsdvoABA5FUKU6aO2HDyhhE15PqSHbpvDG71/Hj/tuCASD2OJrXPw+RHU2KmKhE3fweWx8LE+yKRZUpeHO+v+tiY/XaD/69vvb96LY/mFYV87xx7720hp/0f/9UA+Zkxz/dIXR+cqjSk1Z0ZaWrPLiadlxuzM2cPR2BAb1ji0VMVRWzPjatXNKPJVnJ//X946Wn/7AwfKlp/DZcZzuSoXlX/ya2yvdMdI32IulgDUztUt1srTA0M6i1QF8i03P5EUBF7r+qK/t+PvXvy7YfbtiUUeIj1tGVmYrvq4ZNxO/tUDrArftKkOTwXgSEu1BLK30KeO/4XWXlve+9VWWFraf8eFadW6AZrytIFkxx9+dMP7isKdjp2ySx0e/9ZNstDJpwTBFduW8M3SQFMqajD22WAoCR47UkHlvlmx33hnik0JZk7HHNuNbHvJRZ8ZIiQgaOWT+HOsM0UmhrMnYY2N5xP/0Px0s7/tz+XOuOIsXW5QUSWdI0+pE3/74N9+eshN5seiED8dYJGSyUtmuRcDCD6R2Tu/x4ZPnjLDtin9w/enlAJ81EX+6TAgYrvWPLunkjfpqKPVqdRHMML4qBc74sohp3Y9rvwU9bfy7Ll9d/vQ9V5fL93AVs3pIM7Qt4t0pdHUzbJRI2KzUQkmhrMnYY0Mc2wJHjpSIoGbJduedIToplDUZe2wzvuUhHUE/7ilzBDUaOWT+HOsM+j82JtkZ+hAFrs9lc5MzDUPS64cylY1WkoI0p21igMSSwTAwsULZUqi8QLZTWQNTuy4jltl+TeBmjlp617kTgxwPlHvHH+4v//rf8udcz/E7U80biMxtepgVLIpyDCHfbP+TJUPj0TfLQpZNb011ywZMKf7+809LXdrvR7QMfaTuhDK5jsBhE/8Wv8VQHIBgQIRvn1p3b3Av8f21k973Sfq/fPjjJ994ZXnbj9zf4gnJ9VTfDNBoJV4tc4A6C+Cm8z+K556a7xnfDkpNPLOyHkNnL/9xhZE6RzrM3gZvVDY2PmzB9TC1rMxJMeP74My5Y4ZIs4182IKjjVQtK3NSvID5/9wXDpZ3f0z+ZsaevDWFeZOV0t6Fs2GpR4vPiw67MsAZuqUlneS3Jw2BiFaQw/WGldVQElDdI8wx8Q/k9hTenqInpSgv6wAm97htZO2AndcR4LRxWDysVRoeAuODDxujAIyyUY4WpSh/TPyrV64sf/aLD4ojeF9v6odO3ZwULb6bGkMEaW+HHLbgepxaVuakmPH1+A/zVnLcI25v/mPByPVIx1HVvezYtWGtcXAwAqp/4zZMyvVOetnha8Na4+BgBDTj82ZNpMW5Pom9vAnMnddByvzGp/aXv/pne80WMwzyr3/bQqcbgfgsitlRALqONKWIevYOkRcJKIBZVD8oZThMt/ZOVYvdijcpyM7455f9569JrfDKbSuS46sOO1QQs7hEFRGaUj0U3RVf7rudl1dwfVlzrDDefjiRTZx7+xFIo0X8C+fvWn71J+5fHv3Oe70eQG1uqK9U2panAYqNoamXqR9E24R6GWFm/Ds2/3XB0ANp/VyP78aq78c+9Q5jkwIgikqxg8oGGAYTzWowoyRyxsfcodtLKP9funa4vO2D+8uzz8qzDD3IMlXiWFu30MkLN0fz8ZfOKbKuHC0fQlpyQJAelaUQJkAo8GaT9i0RodKJVnEQAEH/A2ZX/HPL/vVr+PN9NT5qoYEbUb9Qsi/bJAz32rk344sdddFqwAlEWTyOa78B1beGaPFf+xr5S3pvf4X4SBUClqJS7KCa40/7HPIv+UAefROFHhMq0MHQgba25MDYpEAZikqxu/PzbwsGG6ZNsl1VJSmxCX46lr5Ik5eqSlJiE/x0LH2RJi9VlaTEJvjpWPoiTV6qKkmJTfDTsfRFmrxUVZISm+A3xX7oM4fLR/5uT15jPdCBmif8eE3VXOUwejYsI1kHs19hrEPqJFrUoTGukxkEjv012Yh/oM805LVgmWGwyJT44cojDlTWTkGYDXtrgMrHxAcG267491y8vPzBzz6wvPabtr9Ga14Ge48vNgZrMJpMTFJiBx5PpqIv0lS6qpKU2AQ/HUtfpMlLVSUpsQl+Opa+SJOXqkpSYhP8dCx9kSYvVRVSvcLwAgHYpVKbQhPeWWfqQtschtUjJGZgHahmfMmA5iUlx1lnzkz+9+SZ9zs/sr88+UX786l6pscmtKOvE6nUGLdL0AJuwOIHdHaOZs1Wm8zi5+RhMkpgs0WIv9sInV5piN008CV8CxCZ4sQe8ffl7amjQ1ngVvFbqS6+VkCCofZeJ+WsPVvxeR0Fu5U8rv3iXW5FPfY99y7v+lE86G6evTHOiD+2y1GuE9NgY4lkGqjUqvpkdNYZjxUaO37MRYrS2IzcVs34kgFNVcqXs87c0vzLgmF/pJVXXhGmHSjWKVFYiCOFbrxlROaJluGhg87kMWK7w4/w9Lz2OELP+Lcz/1++drS846NHy1PX5OOEOrtb/u1vW4gKk63qObnZ67L2mXPqcv/D5IwNxzY2SPo58njoIYVFi5WibMfH38PtKXnlFtViafgHr1RXo3rpI14lPp5RJH2JHx6Q/93tl8VBguX4+Bn3d7/uvuV9j9/vdSrNcoFxoMg8AbP/387+Hz3oDs1/e6s2OpP2qdyxGu8qZ9jiE1EvLQzGLgegd2YFOKqrF0Jl24lCK9hLCzPjvzj5/9+vHi0//7Gj5f+uPW/HX2ZC/Ke1UdJ47RyNx7wLtFxN6BIhrK4rYrbJFLaGVV8Gp9v2J/dcBIPjjz/XCkfHxT94Vr49pZN/Fz+FQQ21jlwkxLUHRLAWRa8mPL5hjouPN3LtCutwuSB/cvW7Xn/v8ttvbq/Qioub3Zghth+1sq1ZlDhKTFkPZLZZyZPsvbQwc/xZb7H85Tx7liLfrnLmJGl3rJcW5jT537glNegWXQA922m9zSrhVYnCqsJQ4Fkg652wVHV0hRBFbuCMbxMl0ma5Shkjq/Rs5v8Z+fH3r/3JwfKP/ym3k+Rz43WT2zFygDGXY0Mz8IjhUE7D9UaN8HFWaO07j9tSOimzgBTWHzgM2i8Liz6TgHMsQhpBhbYbx9/be1qg9uM+i4+aMb7QEl9MenFxXPwclxNI97aXQLAWHl44v1y6557lx95waXnih+8r+bEbWClhbJYUnONvzj+tZ7TOhn5bNbUX2ogoCIw5UfiCsepWeUbuvYm8whcMK0TajBRJdaBatVb+Znw5OuWQdRleTwMBYIJJz27+//bJo+V3/mKRq43rMuGiQ8osK83GR5Rx9q9n1TB0G/qL2tcmQULZXjttA0MzKeoj3PtpE7nhEEz+IUiKSwAACYNJREFUtasTxUG1EX//+a9JPRF9d3x964lXGlIb9avxRdD4QrWealF/Pq3p6oDDj/aj7PnlblkoXv+aC8uvPHZ1+daH7qp4uCob2g+/pM1IkTTZ5/jrxtOcf9ABS6+CIONTMtPpvT8JwM70DJD1vaeVrVN0ohZX3cCQVTO+HJ524HJeXmr5f/KLR8sH/2Zv+Y+nLi7PHRwte8/Zj/x04pYOionTz+pbIpAWrC/ov54bMG2taF8aUYBNiDlrOCeX3NIXYqiX5Ev941lEji+fOXkOv9OQW1NaJ/Pp8SGKHovCOn5BabSIb3Gxx4C8cP7CcunypeXy+b3l+x+RX3E/enV55X0X1LVFrPvqWWydohO1sOoGhqya4+/lMf5yb9p5/KVDwN62DIUqy5nfgKvacL63U6RWgOXEOli9ajxgc8zM049QDM6yeWQxCT/jr3O0efbU5zjLmW8JH6h4zMwk+xPkH1Pls9fPLd94blm+sSczrnZNOcA4xo23s/A2tSMINrWDYGLHCpK+LSvx88Sty0JqvxVFDNTVaq1+tO+Z3Mc/wgNw7Vsa/QWJj8+gX7l0bnng3gvyR5BaA7UiLSZIq17SuNJMsj9B/tcOc4DMt4gDFX2YSfYzvvWPfJBS/8tq5i50OcGZf/Hyr7ek8lmEVRoVQieVTetplcUeW7O0/pobknnD6l4Lym64SEgISSDPomd8TVZkWVOqO8038jnzr71q9j/tC9Y3ckaMT3vtUrKb4y8lJdg5/9z8/GvPMLTPWcdzFvnkzBS53eRQDpsWKYLp835l9qB6TWC3CdxZLrnNF59FWJdZmWd8OXCahDg/mPmf/X+O//XksaEpc0oR1gVWZh16ujvz4++c/QojN8oqbprUtKbOVmBM3jDSrZj116q+AtGL3a+t/ZI2egcVxEYIU28YZ3zLgKRn5h9PBtjTWn+RTpW1nqyCg3b2vzn+SjewriL7l9v8I1cY9nFlbTjHkafDmA11h9oWS3kI2Dh2c8oL0GDYb6gDcAxXys/4lq2Z/9ZrrHfovnSU6FQb6gAcw5XyELDN/Fse5vjXzqB9pHSUlh4hG+oAHMOV8hCwnbL/+Wu1O2vFhzQSbPQMy2ow3kdlR2dzqUwAk7KxM74cYDnCM/+z/0k38LG+HikrTQyrOf7WV5MpXZGopGzsnH98/hnckspJAj/unrvyq4tPczMu3koL2VyA9CDN+DP/s/9xKGU6x9/WyJAsITncht1nzj+avVPMv35LSvM76IVVFYnWhaAaeYiEmoFmUgcURRISS2xVNYlKUoKdmoFm0s7cxGRNLLFV1SQqSQl2agaaSTtzE5M1scRWVZOoJCXYqRloJu3MTUzWxBJbVU2ikpRgp2agmbQzNzFZE0tsVTWJSlKCnZqBZtLO3MRkTSyxVdUkKkkJdmoGmkk7cxOTNbHEVlWTqCQl2KkZaCbtzE1M1sQSW1VNopKUYKdmoJm0MzcxWRNLbFU1iUpSgp2agWbSztzEZE0ssVXVJCpJCXZqBppJO3MTkzWxxFZVk6gkJdipGWgm7cxNTNbEEltVco3mD71pIWWJATXINnBt6TUhO0eGdBCXKoNsA9eWXhOyc2RIGWxADbINXFt6TcjOkSEdxKXKINvAtaXXhOwcGVIGG1CDbAPXll4TsnNkSAdxqTLINnBt6TUhO0eGlMEG1CDbwLWl14TsHBnSQVyqDLINXFt6TcjOkSFlsAE1yDZwbek1ITtHhnQQlyqDbAPXll4TsnNkSBlsQA2yDVxbek3IzpEhHcSlyiDbwLWl14TsHBlSButoPMNwA0uAYsM1nfC8d0SzadMdJxpIUXa9uVUZlxKQOlBsM/7Mv/SF2f98KHDQcaTYOKFEatp+71ZlXEow6kCxzfE3x5/0hTb+2qdB2Emsi4z2YwS1pLVk/CCme+AmcI5/u3s1Lp+9jRHUkuYSEkOeg9gPAmf88sBP0jXzb1Ph7H8yZvh9kjp8irQxwlBY/t+wzvH3kpt/9AqjHG4XnCkdZyQQ6S8TiKL8qJSAUeG+uznWmY1SoSZyxre8Mw+eISbIFZUpZhecqeCBRCTjkjqUAFdUpphdcKaCBxKRjEvqUAJcUZlidsGZCh5IRDIuqUMJcEVlitkFZyp4IBHJuKQOJcAVlSlmF5yp4IFEJOOSOpQAV1SmmF1wpoIHEpGMS+pQAlxRmWJ2wZkKHkhEMi6pQwlwRWWK2QVnKnggEcm4pA4lwBWVKWYXnCng1S0pg1Vw0a1qU/wNhPClnOz87HYTHWUAManpZvxuNR4ksagil8rJbubfzotLmppg2YqcQV10s//N/lfOhke9KOuiLyknuzt5/HULRjQurjKTzgePJYRjh4ngvdWcroYUgkvX47YUy1lntHCWZnwbu5qTnJhVmncaEzrhnHVm5l8ykLMx+9/sf+3nUcfc1cu9Jg23FZtwzjpzJsZft2B0A0KquD3NW0Nqc1YZcEWPVnlQOKsy746cMetujIPrWaKotdygcFZlPjyRM+tuDLHMa6CVC9GBWZV5Bzhj1t0YB8/2Syral8o0KZq3QfKyKvORSXJm3Y0hdh7/PlsqD5KXVZmPTJIz624MsTP/fbZUHiQvqzLPTPqCMTIaiA+ME8JZZ+iv0S09zLSRWpEqNTdKZnx7YJ0y5KwzOWHCb+kBo43UilbJdLTM+PbBcz998mQ5kxMm/JYeMNpIrWiVTEfLzP/Mfz7Z8S4UTO4wwm/3prBVTJWyuzr/yoJh35JyiJd0xk09UxF03FDFKEK7ccfL+PBVgNGenY220rXkjN+/CRWXhzP/s//JvQL5N8efpKHcNqmzSEw7nT4mLOcq4uUx//gVRpqpNSHR/OA8U2RqxqiNnDcNYUbz3osIQ5TpImpwGa18LeLmXk3ZaN57EWGIMl1EDS6jla9F3NyrKRvNey8iDFGmi6jBZbTytYibezVlo3nvRYQhynQRNbiMVr4WcXOvpmw0772IMESZLqIGl9HK1yJu7tWUjea9FxGGKNNF1OAyWvlaxM29mrLRvPciwhBluogaXEYrX4u4uVdTNpr3XkQYokwXUYPLaOVrETf3aspG896LCEOU6SJqcBmtfC3i5l5N2WjeexFhiDJdRA0uo5WvRdzcqykbzXsvIgxRpouowWW08rWIm3s1ZaN570WEIcp0ETU4WHTB4FlHMaXyOYTyyaaBVMbpCzxaQNuLYtcrAQ0649tZz8x/ukZKfcnYtE+22f8kGZqPOf7m/PPCz7//DwAA//93abRYAABAAElEQVTsfQegZjXRdm7fuw2W3gSkiAUsdBTB3gEFpQsIooDl++wdUH8RRD8bKqigroBYYC0IYsOGKPauiIoovW/fW//nmckkk3POe9vebfBm955MZiYzyWSSnJOTk7djFCE0BWI7PMEjRsMoiB0elVgjjelET0DEuXTKVwFqLB7R1t+2f9v/2v0PY0YxRnEMaY8/MjaoKaJ93NgpoEuTrynUWBTRkScMRXi+BCfAJDuEgJrmlSG3YeYzyGLl9FeleHqCE2D8DiGgpnllaOtXO7gZO83dznLGFONsQ7Nf4k2AZXEIATXNK4Plb+vPdjLIYrWUvyrF0xOcAON3CAE1zStD2/5qh7b/ZT8xyGKzUI6V4ukJTgB8ixNGSicgiiGlQ90vkRKQVQlUxTemDRnjMvLtq8Lb+tv2b/tf2b2sC1W6X7ojMHyVT9KGjHEZtfufmSfZEIi2/xX+l58w3OBs9mJsNrTY0wzOtAwZzWKh1MgO0dafnNNsxtgsZLGnGZxpGTKaxUKpkR2ibf+2/ePgaD7D2DzEYk8zONMyZDSLhVIjO0Tb/9YJ/8sThrUsY9eOgq6mE2+dUMck5gyAaRQLsFiFzjgPVYVU04m3TqhjEnMGwNTW37Z/2//a/S8PCg6qDiLVdGKtE+qYxJwBMK2r4085YUhFMNFZ1VrM+kb2E4saqmIuS0rMC+ei/LLSyF7eKJS39UeLtO3feNfl/cWcRX2p4lGWlJiXtv+1+197/LHNEtY9fH8ab/zVCaOWkx3LDdw+VRKSrikBJstiJ6REuZQDHfvUQJNlsZNSolzKgY59aqDJsthJKVEu5UDHPjXQZFnspJQol3KgY58aaLIsdlJKlEs50LFPDTRZFjspJcqlHOjYpwaaLIudlBLlUg507FMDTZbFTkqJcikHOvapgSbLYielRLmUAx371ECTZbGTUqJcyoGOfWqgybLYSSlRLuVAxz410GRZ7KSUqJwqnzBShswwFkpowur4E5iANN1kTHVCSloi4Dlbo9r6YQExlbNXAhPQtj/MxKfWbJESFj8qLp4zEhpQQhG8IyYwAUlvxrT1e1sUps9GLdGtMgjeEROYgLb9Ycnp8n9MGCPYJoXHtLgOlM2c28twFpNisMWZuwp5Dg8bH/ZNt/W37d/2P+kQzT2kdYdv4reepbHn8LBxtftfe/yZxPgfd9XCe6IzSeQdy+PpZJ5mTjfxOOUGUKyXmVxhSFxZX0IlYOJKHWfKDaCtv2HZUQyUrNS2f+GXdCRvG+dYEwRTbgBt/2v7X7xPyn4lDpK8pIKnk3ka05MLKTeAqfhfiyWphmJVFPj3sVqIVJScWVDuy8tUN8ebcCVQ4wDCV7CtH52tuCt3FjNQ4rb96/vBzEClz/lUjQOItv/lAb7d/x6k/c+eMGrDivcI35MiXOMveKy7WZwyqccldAIwb1a6dVt/9sjCtpqo2avgMbta3La/WMDMYbG7W6vZs+1/bf+zO7Kib2mi5i8FjzmYxZFoSYvXQf/r4CsM25podU71AYLfgXdEw3m88Vpco1UQlaRkE1wDwaPa+tv2b/ufPkr6fmH9zuIarYKoJNv9DxYQmzQYxqPa409l/LEnDHU8bypifNrDyl2QI8ryKDeu/jneeFrevVV1+LSH2/rFAg0madtfjZKubf/Tp3rre4zb/a/F01O1Q/m0h6MxG1AP9P4n7zD8LKoVpkH8ArlahlcGe1GTsSVGudxVMuLS4hGvrT/P4m37V7xMnEwucn/S9r92/ytHG/UNHW083B5/kgVoFvaeaRh/9aW32FmNnUDqsJYhPE5gPgbJUiQU7681clLaoQ8tNQafuxkushSJOn+NTET8/DGBzNauf914LTCFTYtEPUONnIzebv9kCpqt7X9152mBKXyqSNQz1MjJ6G3/S6ag2Rr8r0O/wvBGlSwR4Uwb0Z5KJk23IJpYkMuzU0xK06sjo5l0xih5CxWKbkFs61cLwDxt++MpLvWA6C9wKo9Nxir4iG37X7v/FW6groLrg238kQ/32CGk4taPkjkUaIGucLVOFvmZYEizl1LlWjAqG68t0JlhHKjIzwRDW7/awbt8YahIRtQCnRnGgYr8bfurtdr+F71GvUOuhaNkp2qBzgzjQEV+Jhja9lc7TLL/5+8wCqtGWRbZSzLwNL1DNLamOIttuptzOTKjQ0awrR8ODg9v27/tf3CDNNbVe0oNk7tVu//VnyadubKhHDKC7fEnjT8NS1LeSISb3XMs+8qkFcU0Z4+5EbWcgKSRpl//TXePhN/+eyj8/AbEN46EZUPmRigMq8qiMVT0ZxIXNkbDCFhqlrG8IoAXcMR3I8yTyYRAQ6T1j9JjJNlXk/5Hbd0V9nhoV9hr+66w3WadoZtlYKjoV2S+xhpkhIdyRRuMRMZq/X3mCLf1R9tZg5Q2Wt32XzEYwp2LRsLi5Z1h6YrhsHxguO7/VsTU/ih7k/8TR8ePkS4VIsGqWt5K+2fSGP1vNejv7uoKs2Z0hv6+0bDRnM4wZ4YpdbHVgSgWvBbI4OtfY4Adoj2aBVgPasgI1CrUn5akRHOshy9FiYopQ1rsMzhBRrY4sRUIl3Cg8ZaomDKkxcacYiUYmfGygRDOvnwg/PCvg/BhNFYnkNIooDLNEEGmOI10wrFHgNO0MnQiI3d1SRbSYlZSLXQgH8+nAVnU5MlFp421Vf+2G3WGd7ygL2y7MY2jgXXIVYwpQ1pszClWgpEtrpBj0lEdaLwlKqYMabExp1gJRra4Qo5JR3Wg8ZaomDKkxcacYiUY2eIKOSYd1YHGW6JiypAWG3OKlWBkiyvkmHRUBxov5obwwz+PhF/+K4R/3D4c7lvajQljNOA+S/rLA8n/J9L/uzo6Q1/3aFhv5kh4yLzOsMvWIez38I6wxbzcS8Qw6DVmTovNpokgCEd1oPGWqJgypMXGnGIlGNniCjkmHdWBxluiMCqml95GsdhyNMTK0pqxTqlicjpBBljcoNdQytKasUq56veD4WPfGQxL4OjaWJlDDx6LeI6TNroDxc4wwokDaHs+YE4GcQcwdIx0hBFMEKW7AM+7KAaJeIkcAub02qa/F5Xd/xE94Y0H9GLClBrULlr6XIcqQ51SxeR0ggywuCrUpZWlNWOdUsXkdIIMsNjpq4LK0pqxTqlicjpBBlhcVerSytKasU6pYnI6QQZYDH2///dw+MC3O8Pt94YwxDsnBL0+cP1/sv2/CzeGc2aNhuOeMByeu2s3enmeKMRgyWq+M2UjJ8gAi3PmGqQsrRnrlCompxNkgMU1rYrI7zASg+VgzMCKAuYtdQQlVqyBLmX5gWoIiSpASjlOwzFmWDn98388GD73YzxeSNA7fJkAvH6rF3DydGA6Y56y/rSDThAyt9AuncjIpw7ky+4CfHqsjOqFOpoebuxxPalbi/TvsV1neDueNmb36XS5rra/Wd5iaXYmBEgpIxshxkRH51hH/Z818CHVeIz6Lx3oCN/8zUi4+NqRsAhLUA9G/1cHoeWq7Y90Q//HQIonjRCO368jbLkBbdYcJmL/pFNEVPUDSRRCklWkSqyQ3CVRBUipBg7SGEr98WiQpozKbtdmDsNabNwa5w/ybDCNdLBb/2vdcSuykIx2cgTTa3EmcTD/wjUD4YIfYgkKSkb4NEA2pmQg51MAkrhz6sCAPzoaOwZwctefmkMypRQlaJDMABmDRypkE4YmcewKdChuXdS/70494c0H9IT+3jwNxsrHyOxucYUKO+uxHqu//VmSNel/66r+xStC+OTVo+G7fxwJA0PRt2lL/DGVwwPf/1PfRqUnUv+uro6wy1YhvO3AzjBv9gPT/+QJozBGSiQg+0gLyDjjOIyOClN77zKGcfILOfEmoEWujDZO08v4b7cMh1fNX4H5AAkZzDF4RZA5c1dwzkBBpIHIIU65HK8QlIliuWQDqRAfZUc9zKr1j1rWYf0H7NoT/vdZvWKXVhezlLf/mm7/tn7XWtZADuVBIw/jLuvzPxkNl/xsJC5B0X8f3P4/lfpvs0EIHz+uK8ywbmMGFmvWLwU5JRJQz1DBGOfq6H+1JSlVbkXQkhU4K1Wl0K2TWZZAuMj42SJDoSvyFLgJ6L9r0Wg4/pPLwpIBKtPcFCUQUegH7AoynGeyjPJyVyqceLlNHkwGfOLg24xOTg6inzTePUehiChMJiQFJW9Vwbqovxcv+M4+cqbcOUklJ2B/miOHbOBq/TNPhpQ75yGlwLX10ymzwcaFsi0FwsX8v5r1V/8O4T1fGw4Ll5Kz7f9iryn2/0P27Agv2R8vyLtEiphaIFxa2Z9Myp3z1HBr2P8rE4YraAITkCstECoHEn1XOEq2yGHRmERjQuz4EpgA4fOpVvo/dfVAuOSn2AfIIJ0rvsm2QZ0txvcODDEiyIUXPjFISIoiIFHmIJfsoALAPFzDjG/Hc35CDwD9W27QFS44sT90dxUttNa2vzaAv6bG9MgG2PElMAHC71Ot/K8u2OeqUzPG8SUwAatU//LB0fC/Fw6HG25v+39p6Gh/iSbe/zeY1SFLU4/ZhtLKNhT5jRfHl8AESA6fWhP+V5kwyqr5wtXrp9SxeXKuKrekGzJ7lIezJIOUWuW56a6R8BI8XfjAtwgjMqzL0C7Nx3zyrjr2D+EHUmZ/4ggjUrIxEQOc8CnVGo2MAudMwiv8DwD9px/SF564E2aMFGL9kTbrJFIDUOWWdIOtPMrDdZFKHZsn56pyS7ohs0d5OEsySKlj8xiv+VLmFignE6NHeTgxJECpY/Mk5ujLmVugmGT0uR+PhAuxHNX2/3iPB6NE88A65uHETLz/P/mRHeEtB2AjPscGkZIlCpSTIpcXj/JwYkiAUsfmSczTpj9NGK0V610359ZkuAQmIJdMoFZ4Eo1msWYtU4ozSh7mY8Ml5gSkDG/54opw3T/wdCGPPuQnD4PBJo34+KIbNKsl+Y1TsgmFi1F4SrFnScT6ZIVNtwBkyUpmC9MD3geY/u7OkfDFV80K83DnJCalkTKgpkrXerskUspT8pSpzE0d1mLrgv9pyVvXJtus5ClTq7f+N9wewmmXDYfb71fPb/u/tpK1Jfc1TqX/d2MMePtBIey7k981ZS1tsWlJ3u0bH/Da5f+YMGRhJRcy1SMBmVaBSg6rWGQqiEjEwTbdkSdZBWPuT2lgSYw1oMw5Gn5540h46yUrwjCr5IgyHVA/pvpRjuWUxMcECY6RaSkncPoYoSzu6rk9TIU6sMXu5ogPFP1H7NMTXvpke5NXmJiGi/WPxnL1F87V0P5q/7Z+scAE7T84PCq7or72K/1Ite3/6L/s+9PU/zeeG8I5L+4IG87GpAHRq3L8Wx3+n54wWnf/ykAQ+2PdKTOh8FWgLa2xv+Y8mUtxWWuGPLfAJhgJfsl93LnLwl2LufgkbRPZZbiWZwm+yYivq+PgRk4LPhfz2Cd7upjFZS0pY4yYK/uUIo3kJbEkrAHvMdZ1/XyHcd4JMwK/CJdQVlRxuFbRltbYX1OWWq7c6hny3AKb4Aqhira012y4nLXEZK0ZyrwRKrMkchVtaY39NWUBYFyKy1oz5LkFLrMkchVtaY39NYQb7xwNr7l4OCxaZlwU0/b/6er/XIE4fB+8AN8XTykyZ5T2T422htp/svplwrBZr3BN5z++igI7mji6pDFcFngWBYh4Z5kLVoemQ//3/jwczvgqNpFz1LbBPem3oVx1V4upX1uztJwkRIAUXVaVkIUzdydoHPYlLy/yAoTyWEdExvwA178nzpx676F90c6t6k88A20Dg0STKq5+nY72L+1vOtr6x7L/iqEQTv3KsBz7oe7b9v9V0f+34pE7B3WE7Tdp7gjrkv+7JwzrZDGWQdDjPCJOLR6VWN20k+gJiIOrS6d8FaDG4hGl/tsXjoZjzl0ahtAB/L0RG0IGK2kR3hUDgf/5a+6KzpREw1orIoOKcfUSHFyLhHizLVkpGzR7Nnkg6se3SeFjx80IO27epfWv9QFnJzUcTJOACLp0snkFqLF4RNn+Zc62/rQ0kUyWgML+X//1cDjnO/BXkovQ9v/p7P8cEw7arTu88um0KwwtA0et4xQt4LuMElwbgiht7FEp96r1fzdhqHZfhgQnwErlEAJqmleGbIrMZ5DFyumvSvH0BCfA+B0C4IeuWh4uh/NzyYfB9LOhrPOQRnzOiVRaUyIXOg6fGTHK2+4p3hx34qLfXlAAJwnIjJOJyBOBquXBop/rsp85aVaY0W0GVavyykC7aMjWNshi48ixUjw9wQkwbocQUNO8MrT1qx28t5vFLL7tvhDegRfd/7qDvG3/X9X9vxNDyweP6gyP2JIv0JtC9mGjW1u5QStmTJTYxDkvGSz/WO1fL0GWYfmTlgRANga/dCNcK1gcGCk85UlARWUV35g2ZIzLyCmJsieg/x+3j4RTPrtcny5QU04RYrKUl2kEWRqpTBsk6RwBIzMzEGYtycO0IsgqUALI4ALk62N9ZHgA62c933JgX3jqzpwxYqjapTFtSLMR8kKWYTNgMkGZsP1VVszphJos0k3Tg1s/Tz+45NpRfNU9EvD5RXR7NgTtnSwY04owy9XayNgfRP5f2GgS9X/ElqPhPS/qDnP7113/y08YaYAzC2hsjmJxSS156r00c0v+mhCHmKL+/5m/PPzhv3Y2v8nj8K9Th5TA+gLIMm+kYpGfa0ok4A+Dkz106DNDnH6YH3MNxy52H13pzRyUQrzIEejBof/Lr54VNuCZObX6izGKi/BkxkhziCm2PwVlKRkqlBtPjewQDyL9i5aHcOL5Q4EnIrT9f/X1/x6oetlTO8PBu1Enw7rnf3nC0Bro1dVDENV04q0T6pjEnAEwlb8xnUkCVYVU05H9NzcOhTfiu4uRYQ7XtizEOAZFWyrHUb/8toU0GkiJFwAHD/GjiESSkwUnG1n3YswMnEXkqxwiHnz6X7hnVzj5aXgB7kKLpnIcAKP9Oa02hqqQajplqhPqmMScATBNh/9JRSp1WNv183cszv76cPgufuOi7f+6Z1IcQ7swQPZrGGkV9f9HbMFvM7rCJuvreJGd0kFVJ6qmE2udUMck5gyAaar+X04YIkjHTpHe4q4raXalU9AhyGRJiXkhSu/ipV2QLoYMsBRPAGPoX4xtgMdgG+393A6ITDQAG1pOR41tTpQM9Ijl0UHw1A8AxBixWCwVskecYMjCtHiOYkSOgiw3iycVeJDq78Eb8I8cixfg+KU+NYUZRG20KttfNDh1bf10RWcQGsiSEvMSwjXXj4Z3L9DDBdv+zz4uZllt/b8TA9Jx+3aFI59gfUb1yxVlkTYxFAcYDmCtAsseyQo6BPNYUmJeiFq58VcnDBMsIvVSolzKgY59aqDJsthJKVEuFcHLfsEfRbLfudCMMog7GWpNZjAocwhkYtlKaZusCjASUzIby6QAOfYaRNmKa5Zu6IxRqJI2Jeuw/t227Q7vO7J8yrDajxun+oOTpnHBSIpyKQc69qmBJstiJ6VEuZQDHfvUQJNlsZNSolzKgY59QuD9S0N414Kh8LubOGzAr03WOux/vuK5dxk2YxSqpNdQ/Xvx6u+Cl3WHzeaiPFYkxi5Y0RTlUg507FMDTZbFTkqJyqnyCSNlyAxjoYQmrI4/gQkoJ7ooMFOTBgc0UB3qtvtGw1Efh/czwNk7MIprF7BOYN9NaCvYRO1E6ExOBEXgz9pL20/mYcELA+lgGpXZPnY2I7T1h3NP6MNTRjxnKhkzAcm+GVPa3EyZY88ZsQ0ooQjeEROYgLZ+GIp+feXvR8LHvo3f48bJOZwj7O46W0r5+OZOnrij6Rm1/X96+//eD8PS1AE8At1GHmfs5LEO5xvJoZXVEROYgCQtY6be/zBh6I+02pOPF2rlMpzFxBtssfHWY8/hYeOEe8qgq+lmDnNkjd9/xYpwxW+H4uRM12ZgzhyY4gY2fhWhuRgBy55SBNVvB4RxUuBSFINyyikymJTIZzhf/7b+DWZ3hPknzQgzx3V+2rXZ/uuS/9E3rCYWE9ccPIeHjXvy/s+cJslik1aPlWMFXl68av5Q+CfOjSpD2/85/qzu/t+PE3Ze9+zOsP8jseQ9yfGP7WftbnHZpj7lOTxsPJP0v7irNhdBZHrBEU6oBJjGScUpNwCO3Xn4iBSJElelXCH85Zah8LoLB8IAzsCRcR2sHGzkAEC5ZaJE5kcwkDF+e5sTRpIMgPq5pkhBiSIMkYv5LAfnHQrE04xMEZpNyA92/exspzy9L7xgD7fNluZqCFX7i4mFL1K8/Wt4IpIEoU72knIDmIr/rav6P/Hd4XDpL9yxObH+bf/Xjrwm+v/u2+Mp4/nd+Blk59fioMlLs78nVAIm6/rCn3IDmIr/t1iSaugWFQVytx17uxYiFSVnFhSbwu7CrY6O11CVuMYBBMf8l5+/DHdJcHzUVu9KVX4nl6VoAQZm5igm5yo26MfEwRffZMuziiTiRV+Aq/wojvohU3IBbusv7d/fM4p12Zlh0/VgdxqWTSFxg/0Tg7d5CZuIhKXNIZNiGdaE/62r+v98cwivv2goDA6r7Xjj1Pb/Nd//u/Bw8Zpnd4dnPNq8OrYP/Rt/BXZt8X97wqh1a98jcz0SVONPFAJWXYsj0ZIWJz7mqEwrDfp/feNweMPF2EQuGvBFNkZ0stUDkdzdlJejxPhAj8pEApI8jcSCEC/pOLGBmYf4inx9fKipYHnb+kv7P/ex3eG1z+HtUrRriqP5amhDMMf47e8bocbviUlvli9kS1qc+B64+pes6AgfvHIo/OgvqDT/t/0/Dgt0gugItMsa6v+b4MX3h17cHTbC6Qlx9FFPbhj/vIuvKf/v4CuMcipLZtQ+RnK81Y7m9eVOcI1WQVSSKhvX2E5JDgHPy62u1L9w+Wg48qPLw7JBTAKRQcbyOCekPATiXBFP+gCCdxPVakacyYo8hX6bOEgjjAvfZbT1i0nlCY+fotB/aMZ+rEh98MX94WGbc11W8bhKqCQzroHgUdb+zODxIsBdarQKopKUnIJrIHjUuq7/l/8aCf9vwXBYvKLt/3BTF9ae/v/Mx3SG1z2nW/oTC7hW+589YaglfVFrRQeiNHlRMxWAq8pIV/8cbzwtZ8/W+i+6ZiBc8MNBlIBl4PAfVTFWlNBG5B2DfpBDl+BI7ycO4mSOjJOgirGJQPVTh2qI5RH5mdbW39r+O2/NO6Z+aR+zv7QPDW1hCu1vfmUiJI7NU+CyZmlFmekrblusZxWZqwJ92sMxUwPKyqkkXKfJ/03umMUVYtIchvCU/NYvDIff/YfLtSSqZ7f9P98E0yqcSvVGUG23uvv/evitDH7M99ittY141aDlqcMN5IgyP0leMM3+J+8w/F2UKqT22MtEc1IvxbL+l7ElJpXdADKyI7tB2khCiU8RihNmgFn/rQuHw9HnrEDfU5qIAciUTQ3aGfhSz8qiEiQtvQXczMj/kheADFyM4vKS5MUts4ggHa4D2ii/0RiBprZ+aaKx7N+BU9b+76i+sMtD3M+5sqFWov3tMVTEQJI0j0oETGyJAaIMD1L9l143HD519UgYxgaRZH+Yqu3/tAb7N+wi0Zrt/yzN03buCv/7rO7Qh3eBGqJPMynjjno6aZESPV8YNEvRFyKKkYjEZYrjr9evL70rhYrjYi6Z090KlDKBKJUpEvUcNfI4+s/4xorw/T8Mo96akzrkBXc8VpZpThUMql84MNAjLbJBULLwGCi86jGYeYDFBCF3G3Qk4pMhmCJNc4p0ztxt/WIz2sPbvxvr5Jf+T3+Y3U9KPZT2B13MrTZPILM1Z68LjCJSlpqCMkuNnJTG6afGUOZvShVZikSdu0Ymwg0Kye1Wov433zMaTpk/GJbylR/lmFIHqnhc6e9t/xdfXlP9v7t7NJxxaE947Lb4GMDaaiXaH83csv/UxBMxQf/r0K8wRHy8SG4HE6RTFVGkG7oF0bhA5t05B10NpoNDcMaWNKZGwx//Mxxed9GKMMQdHiwGZslO3vUrs94kxMpaGSMpJ5v0Qw6fHkb4FMFi8SIThZWNUkwLaeRp65+o/U95em84ZI8eGlFsN9X2VwHO/kAglYI2izVOhWhcID+Y9POHkc6/eigs+BWelmmapvq3/X+t6//bbxzCWUd1hfVm8CUsAxuPYe3xf4yZsvdUx0OWz/dGKawWuwEdqeNHhVhnA82pVLkWjAG/zY3THc9fHv51Jw9KA5F2I09DYPmEJgASscCMIMaSMpFyktIZFQSteUP9oyB0LMqdTv1duAN/+qO7wlFP6A0//Otg+Oovh8Id+BEom/dYKi0x6zz9+ldH/Xu6O8JnT+oPm2GbLZssNoea26rHuKX9heg4cnqy0INN//W3jsgv6d29WFp6rfP/1eF/5nBrY/8fq/5H4ZypY5+IHydLHcZ6yGS9PvNPp//rkhRlF1KzMoE4YrIGiLgS4+pSYawns9impwnHnxkT8kd/Gw7vunQ5Buwm/SwFC4RIChTTxAKUwVc5QAYC23m4pdDwIKW8ktPkUCTzC4PG06W/A4f1bbFeZ3jfEX1hs/XtLkIVnf2NgXA1Jo8VOB5rVelf3fV/xi7d4Y0H9EVbTr79YxPAIGiUNeB/66L+Edwdvftrg+Enf6VDm4uvHf6/uv1vXaz/FvM6wqkHd5c/57oW+X/DkpT4WeykhG3ojHgjt6SAoL6qnI3ZyUAnxn9ETSz3LBoJR31iaRgYUiqvKpbDf3Hgh+rh1esVLIWrLubJZMURofqj9KwEBBCZjqXLpKnpnzMDv3D2gr7wuG26QifXiyk36dei33b/aDgL72v+cBPW36ZZ/5qoP99lnHfCjLDtJuXkqLUt6y/N5S+V+nsS4WjBKlrTJFqQNrSExXX7GyXF66j+H/1lOJz5dftID5VfS/x/Tfif9LF1rP7sKS/YvTOc+OTu0CX7RhodeI35f1qSko7S0AtLVO5oMo6WxNTXrDsb2eLEUCBcwoHn/2AwfOHaAf1YGxlJ4lXO8Edn5kBPpH90ExZc9NwnuiiXkvySlLqtHG9OggwK4BJhTCuoonm+DN9xiNuJLDJMVj9/xvSY/XrDcx7DX9qKjc+CJT9wiQj+5PqhMP/HOPfnDvzs7ErqX9P133HTzvCxl/SHbhbEgquyGN2MUeCVuUTFlCEtNrkpVoKRLa6QY9JRHWi8JSqmDGmxMadYCUa2uEKOSUd1oPGWqJgypMWR+W78INLrLhoMt9yHp2n4NMlruv3b+ic//szu04/5tt1YFsKtd6A1x25/8xnjM/ewONELhEs40HhLFBbT0ktvo1hsORpiZWnNWKdUMTmdIAMQ/+eekXDip/CzqxgteXITnc6eD8jGIN0Bs0UHzgsZwcCexl/QmJJ91WSUDCY8puNdh5DRsdLHeN67kYWT0VT192LXw+Mf1h1Ofmpv2HgONZUltHQqmQExHsCLywU4wv2LPx8KC5ey9iTE6og0pNfi+pv9Wev3HtYX9tjOnzNlldX6iGUMZTEr2yIoS2vGOqWKyekEGWBxC91EK0trxjqlisnpBBlg8ST1833fF68dws+uDodB9Amz/5ry/7Z+NiSCRK5RBczp4mNgN/48ZquOcMbhvaE37htRYXrV3FmGpxGuU6qYnE6QARZXhcZ0foeRGCwHYwZ2Z8C8C4+gjX3GKWypmCVWafmaqAKkVGaAnDdfsiL84p8YMSVU9bMcOkHIy2yWS7YEckhFR0nlAD4tK5h4fcKQCcjrjyqYlY6u0snAEImp/kiPoZ9PJRvP6QpnHj4jbLMR85Yh1djrL1iMI+s//bLl4drrhzGBglHKsfbWv5X9v/66mWEW7pysdgqklLOA4XL9V7f/pTaXUlXbH8jYrFZSLbylLHZVcmCiCpBSDRykMUxM/824yXr7V4bCf++WXqH51oD/5xbuwG6f0bDhnNFw4124qZPqrPr+5/VPtP9vgo0Z6/WHcMNtLOTK9f+p6LcmZp/w48//PLMrPPdxPTr5p/EnuoSUNLmiS7EO9XEHSAmJKkBKGRmx4RgzlP4XjwYxJmVpujZzGNbiMmf+INAG80gHu9W/OnD8+t/D4c1fWIEdUiaTca5GlICIFbHOYQJtwlD53ADGY0XYiCOMRRRS0pGQFhHgwYQzyo82pMVwReFyw09c/7w5neGVT+8JT9wJ648QN5X65/pliMW98a4RnAm0Ivzpv6wzw9pXfxpU7Va3/4n4KdfD9vTbbKNb07zSMKxP6yBsNbJhLS4Zpsv+lNpCAygsdwsqGk6P1Zm4/1NXU2ihAayq/6P4nYtv/Bq+QWdBYP9a3f7v23+vHbEO/6SucM1fl4XP/gD9uXvWKu9/Xv9k6v/YbTvCWw7sxWm+Q+HLP+cysPmxtW1TC5O2ascfHrHzjhfgh5aqOw2lhaWVcbEyMi7DqvB/ecIonDElElCWoiFlnHEcFp+Vwdh4jcHSldjIK/DDLi/91LJwK9dgXSc0k9AhUodAJrxTBReGKN7xIy0f8wkAM4r9Yk56j/EIPpuZRTH9AiAtajI2NclY+o/epycctFsv7qi0iFOpv5ilKEwsrBDUPa/+E5cdBsNNmEDWpvqPZ/8+nP//abwA32IDTsxlSFUmOiUSUDI3pIxzZf1PRJuwXJAGjSXKsqwp/X+8eSS88eLBMDCofs6ir27/Z/tzu/j2mwb0g67wlEd2hW68tP3ST5eET357URju6As93Tgyhk6LwCvtxmD2M8RU+t94/jdW/3/01p3hA0fpzcwNt46Gz1/DXyUcCUtWaPlSWaVgWmq29aruf7Tn8ft3h0P3dqcmaJGKq9lvdfhfbUlKlVsRtFwFzkpVFHmsRJYlEC4yfjdk+e6fhsN7v45PU6kDby6EH54gEwFmc/lBJNFPGu/ewEYmBsDiNAoqWugiRVgEwsX0V8jSy2RWltzj6+dPLT5m667wxuf1hQ3xI0LNobX+Jn7lznnIU+BQ/yGsUc//yQDuKPF+g79pzrAG6j9Z++//yO5w6kF9yf5a8PJa1DWSCtwq9D+qK3StA/rvx/utd102GH6PJ8/V7f++/bfaoCMc8LjusO/DOwNPYLXwpZ8uDp/8ziJ8eIu79u6+0M1Jg74KBv5JVzd2CJxM//P6V8b/H7NNZ3j/UbijYXnwtxQHNf7yxhAu/xXP4RoKI+hvvF1bE+PPZuvjQM+j3XvQNez/lQlDuwusYz3HAyWaFLCz0SSXyyqMxWVMonDehR0eh390CWRF70lZIiARFzyUQ5oQONUPZ2Rh4qqSCCQ/g3hVfHREpnQnIltbQTc+sibpES9FIQMAiTIHdzJ84OgZYQfsAhJSZANzQxiT6PgdXwITIHw+xRedb75kefj1jXEpYjXWf6r2v+DEfrzbqT9lqBFc7RKYgFr9p9P/1lX9V/1+OHz020N4uoCd1lD7P+PR3eH4/brCBnO4lFOGL/10KSaM+2TCILGrszd09sxGWdmuCDEimHtXxIuw2P4SZY6p+l9T/38MnjB0woi6WBiAA9jdftXvhsIFPxoKi5exgKtGP9UxZOlIpKKMhn2weeZdB+MJCJVOaLIgMV3jL/UX0pOiBAhHZcIoshSFE+7iooJKcQVDkahyS9plPvd7A+HLPxvUuw96A2iZLJ6jSFyl0XmhiRHJnEBjEs6ZQNdAN+YiFxuEMFn4J+/KTTRZgZS7nzH0z8RE8Tr85sPeO3SEGT1xsmDecYIWS69kFSgnU26P8nBiSIBSef07vuz98LdXhL9gaWJV15/qV8b+22zUFc49vh/LE81t5evs4VTtBOT6+yZM5ApQ5ZZ0gwKP8nBFHJJKHZsn56pyS7ohs0d5OEsyaDTcsySE074yGP56C24YVpP/UzvbvweH5D12m278ymJX2H1bzFQtGoFLUp/6zkIZfK3/8UmjE08acsfu80HueP3P9HMZmkqno//nCcNalVoy/J+7sQPtZ0PhV/g9nrtxIoOOE9OnX7Wpwlb1f+cLe8M+O/oJOepHNm/CJKsCVLklrciC06M8bExpwmgiKpPe0+swG4uWmBNg8mLcCk+y0SwO4R93jIaTLliGRz+lUwupGqifrsW7aFCECMMhlk23nPWJF89hDjKwAxFH2CQZbJMG8XZLxtopnvzGCQYE1d/bNRKe97jecNS+PWEev6cgE2gRYMKFVniyGM1izVamnCjRb9OcKM0ikizcDWFT2ff/PBQuxPuNW+/DrdE013+67M9dZKcePAMbA7guG+vjrOJrrrC1jLNQAhNQydYKTzajWWxafGm8uLVX/8U48v/z14zo3fsq9n9rf7rVTpt3hUP27AqP2zaE9WY2PS1m28o7DEwYXJJS26N/4fcGOrp6QhefNGJ7mJWZNk5tBe1/pp/bTPkdFe/+p6v/c1n5bLzDyN6omrP+DpR/NPz5P6PhG78dxo9RyUA1bfrpeePVf4/tApa+e8O8WShlMm8CfIEBt8KTzWgWa9YypTij6MioHJgwuB3JmSrlTIDPXcAlR66yMBVEJOJgn+4IkiR+bLQi/Ba7ozQfysK7B/7JgJ8YlYyrlbZQkUxOKvNmRmkOysJLJP7gj+SXOxSKdIySBNXp5wdn22PZ6dSDcZwHjvXwocw59frnGvnilNK9XoNLDtU/yIPnfjAQrvztUFgyQA5KB22K9TddFnudHqYd1bHGt/+Mno5wyatmxA8ZSym5OSp4K4CLSw7THxkKIhJj+N902l98i0VYxfq5MeT4Tw5gIDODWP3Ht7+UcYL+b9IZc+ff4Y/vDoft1R36seRfVBEpbf+YIxK/iCeMT3/n/jDIExus/0kB8E6ga0bo6sV+1tSjAUo7IXOl/3Oi4s//vubZPWFbbFf/8LcGw7U38APFqC/pp3Ago35Sx/N/Thj2DiPncwJMRYyv+4cuA952X1IOitV/8vonUn/a/g3P6w5PfVT+nqksoemPhSyISEyT/6cnjMLCrvrZELEgPioKlQlVtKU19tcQ/nzzcHj1/HheVHIcNrF9MqeLSfowhryxPagt+5QijWT6tETiLvIswfuC+Loc8u2uXbnK+qv+9fq7wrvwKPgo/LZDOVXEPKUiE5R9rsLma17PWmJy82coKTCgzGJY0c+P/d7+5eWwL/PzGU13WU2m/vrJ5Kqx/7H79YVj9s3OX9rfe93U6k9fsGBm0thfjYOxcSkua82Q5xa4zJLIVbSlNfbXlAWAcSkua82QcS/DjcD7vzkYfow7XY4D1imm2/+t/efgiXrvHbrlqWL7TZxlyyJb8VJNBoZGw2e+vzh8ES++eV8qPRqdln2PNzDsZZ3dmDTwJ/1aL1If6/+d+EG0rfDO62nYMPGcx+Ik15mqhifyXouz5r75u+Hw5/+O4omDUtWKZbHG7/+s03sP78bde96NlK2eoVRBAHfinevlvxwOP/77cPjvPdCLmWuq+lWuL7WOP2Z/Has6wnabBJnY5syIbeCzuMJV0ZbW2F9dptRqVhrVSosaRIpMGHbXX5BMC5i8CoEdTaiSRiUKPMUDEWc2pqphCXYjHHPusnDvYhREstOlsjEURyk0HQcu94JZXkBQInUgMmbJzguRpt/SQCnWtGiazgsWdVK+m8ApuU/uw2zeJb/pIOJViV4VIXlVB8BCfyQl/ZZujlel/X9740j41A+GsM5tH0KqZcRMsTjSeV39BY06WpVWhf1n9naEc47FOVM8/iDpcq7pbKyguzra2m7/sfzfvGGy9f/Z9SPh7CsGwiK+iBUfQ2SNJQ3LC42EP+l/lgZKsWP6vzFx2+hu23WGg/H9zM5bhjADbSamn4D9b7prKFz0o0Xh59cPhPuW4VaNeRoD+l5Xb+junQWWsv/3oR/yHclTd+4J22wI30Adq/rvXTKCj1pHcCLCcLgFvwGiFbP6Ij2B+ndB7i5bDYcX7t0Z9toBkxeDKPKgIuQaaVxC5/dRV/xmCBMXlgbZxahaLmTC3wT0T6b/HbR7V3jF0/LPuaoOqoTiWC6WQIPpt3RzPBn/c08YFWFNypObxamlxkMZbtpJ9ATESmma20I/9K242blQz8qDh0YQeWwCJ9dgivG3/swCmj2bUIS2HQlkREww3uUAUQQ+9j0TOz6OfkJf2BQ/yp6qK1wmjInpqT+37/ElemPw6oTBIyanfxB3X5f+Yjh85bqBcC/ujFrVP5dj9dj/8Tt2hXe/KHbQrFwhX92VrL80ujWmyK0Jr2ovstQLNDn7F8JWUv8ynGb87gUrwnX/RDtS1jT6fzaCtv9jt2X79MgNVFGHMfx/6XIOoPhY7+pF2FmEAop7R3sT5pJw6n/EM+CGEJNGFyYNhh6c6vzILTrCK5+J5aeNRQCwUYZw1O1/H3RdgBujH+A7pWX4HoW5JtX/wTw6tDQ86ZGd4aRnrIdt8njP4m07jv4zvrokXP0XvmtlFfXZYFL6pV52gRRmbhj/eDN79hG94eFbQpc3iWW1tmE60RMQcS6d8lWAGosi3IShCM+X4ASYUIcQUNO8MlgTuxKnslvOuxaFcNg52ObBGRhUGejjj2/b7iWSOnHh454IhQFR4Jj2TsH88lqs0O8nGS5HqSYrH1K0eNTfBfjjx8+U9xXkY7CyZkDxjhJB5eSVwfJ7PpPFeAW2QF79x+Xh/y6/Jzz5UTPDy542N2w0l97JEuf8CU4AiBIcQkBN88owlv43X7IUx67E/K7+a8L+PI3z48f2hx02Y4lzHaz8sZRGkrrpJVGmZH+T7wSuM/q/98eh8IFvDuh5USy1mGLl/b+p/XfbDkuyB+M8I64cFkar25+Tw3X/WBEW/HwJXg7zpAb2yDiwI7aTFnJOCKz4X/eM/vDIh8wMz965OzwRT/d8ChW1OVNsMocQUNPs43yivgLv767FUtEglsTUMrocS1k5Z13/MLSNDCwJW84dCc/dY2Z48i78PRc4ac7UUv9ZC+4L38IW584e7P6KM02u/8T0j0xg/OMaCye1Vz+rN8yCfbRsWkBeGcRmAuWCG2SxkIuLUjw9wQlgkzGYkgRESTJQq/pESkChrW7UKp+kDTkazvnOYFhwHT7txjgpalhNBbLgSemHc4n9oo6Ul2kETgxYD1VzGg+SUX8nMj9y04HwniPnhjn2i1dJhqueVYEyfajiG9Oj4XosDb39C3eG2+/HEhvvtqC/Dy+BD91nbnjpU/GZuJpbJU+jfur63A8Xhot/sgiDDffCYzGYZVzD9t8AH3nNP2lm6MedU61jTmP9fcdKimIbpaZKQGzYtUz/XdjS+crPLpfttLGEOYJ/r4z/y9As9c0iuV329Bf2wT+TxRyQ+a6/ZTBc8N1F4Q//GcDX0XwLLx0REZ2ZRmXU3P/o/7btZsfNe8NbDp4Xtts0vkuYov0XY9HiLNzx/+yflDO2/pr/g394aFnoCgPhITiV4NDHzwlPfTROW8YPgknXrPqIVA76LsOE8VusEXZ1Y3nNH/cwSf2iJAptUf9ZeIfx9uf3ht2xXJhCtVyNaUPGuIzqbdugPz9hOGIqBICKCk9KsPFk7kRKgPBExj//dzi89qLlgUslMmJRS9RvNx16Z8A7BPU7GVzpc0jrSmfmiGJBMYiNq3mBVP8FyWTnNiE/jY6Y+hFmdS4LT3tMDx5L15c7K2LJbzF5qiHTMlTlufHOoXDeVfeHa/62LMkrpEL/Npv0hhOeMjfs90jcpURfMIkWV+UynWkZ8nxX/2lZuOD7C8NNt8fvXEDky8bOHi4Hufqjg5uNsnVRfxhgVdmfWyzffEBveBruKHWA8SXPdWuumfJmWoZKKVFOjewQq9H/c9kmrp8HT37ie4PhG/h1xlXm/5X23+OhneG0Q3plScqVNBX/roUjOPpjUfjKzxbHr6HBJZ1FB1fmkUD/ISkKsf6UWxdcYNhl275w2qHzwkY4vNNCzOJ83Cg5Nh4v78wF94Zv/2FUX6hzd1bUL/NWysqcDf4PbUODS8Po8IC45J479oVTnrle2HJDHHfCFzuVQCnvg74rf7NU6t/ZiS/acUPGnzOW4Oo/If3khyFtDGvqf49+CH+IDe9+YKqm+leKqDyZMZIdYoL+nycMr8HJEXQ1nXjrhDomMSfgfz63PPzh5iE0le7ZEQJty8z0OBZe2jEikRSjMWkPCcKHBBuQrRBNrHt6KAchZteEu0IeP/xp1A/a8IrFYUM8lp709PXD/o+aEXqxpiqynAgFwVwhVDEL8cJvwc8Xh8//cBG+lSAVAdEo1t06ceBhmtZSWTvw4q0vnPiMueFhuOMy/ooaxYvBmDEH008T3oAJ4rxv3x+u+zuOW/Eh6u/pwoFwPX1KcfpXt/1n447pgpf3hw25x5zBKqGpetrwNcYxWFMelV/+xrcnKr2wd7U8ib1OqGMScwbANFn9f8JHme/52kC4k1s5xUy4cBafbv+n8Nj/dn9odzj9kJ7QV1uS0p9PfvtFd4efYxmKxbB6p+7J2rKcJFQD69/g/7ts3YsJY4OwEd4frKz933vZvfhKeznejfRh0uDWXReov1X/t/qDbpMG67AJlqZOO3xeeNRWsU+KOFZOGiOchQnjW3h3Y/XXF/nQK4eaOt0EJ6J/AuPfy5+K72H2Kr8fySWq6PTJqF+ndU+IcFWIS5cThggyEyBzi1knqXCCFHQIMllSYl6CHOr12s/jmRENIrOtomF23gVEnHCShel4B0CcyQMovmhpCKIDsLxyOmj0eaJkohE+JsgCTVExI6wGybHhVf3DKxbhDmMwbI27/jOP3jBsMc/vTIgFFLkKK5gRfHr66V+Xh1MvuVvMKLdXSb9WQIvBPCwadwuV9X/+7rMwcawfuK2xMWR10TSKWIptl5wovoqJigFioQCXin5Oyl2dfNLoB2nN2J/FYjhsr97wsqf0qE8oSgtud2mG87FWVzAKOgSxlpSYF6LY/gBoC42I1gCEtElKA7EW6OdunLMvHwjf++OwlJnFo0douxKYuv+b/ZvaX54w4pIUdfowDP8+6dy7wt9vw7Iygtoy3hdL4RTZ3P9Ao/3xxz7OQP/feeuecCoGZf48gATSpmj/MzBhfPvXeJqnDk4a/N6DOqHU9/+x6t8Bww8OYUIcXi6bU07F08/eD3ObNLTSUtQzoe9beMIQO0IPDcIX+bL7S/hYl0nqR/3HGv94ft2ZR/bJzyhoUfSqxtMyUKc2DmkEV87/dcKo6FHBUj9REjUq3MAbmcaNFuFG94hzlgbuI5d6mCx6TtomW1cjd2PSKVAmm8IbtJltMiljFKqkof/so2bg62icTolDxsSwMTOLNoInjZGRQTR8wJfJ/eF/D1w/bDgTCYoZI/z91sFwxqX34Bfz0JkgKFVTMmoFKGLfh/eHH+P4Z+k5Leo/F1/SvvhJc8Jh+2BdlMGEaap25ZMMlwnuX0o9WlTLolYfwQdzXeGdh20Y3vfVe/FV+BB+ChJLYH3oCGSMwfIwuSrtr47QIUdNfOqE/vCQDXmDUK2mK40DhXFlLibLYierRLmUAx371ECTZbGT4lF/wrdKb8Qv6a3AID3d/m/2b+p/e+Cl9+lYkurDMSDJ6SPIHzc7mRMGfN1C7l2GafY/YoXXxMb+L08Yh+mSlJFUkks5MGupQ/KEgTt+KxO/9eBxJIIAe5P+Rv/HoD04tCTM7BoK70DZ9uG2W2auhLNkwljmRQiHPGlgeUq3BFtpJqEfUlr1Pz5c8mTgE5/SK0ftVIo0ftJsabHLUaJyqnzCSBkyw1gooQmr409gAtIYd9FP8XIMXyEz0Edsds+c0ZDIITO1cOqFvLomGCcbo0FQB3qRYsEjwni/UuLkTgd5rK1N/4Wn9OOOphPbFIfD+VcPhH9jXzXmddUPYcNYyxzhWibkrj+nOzwfuyeO3m8OGihKEn1ywY/XDOFDpftxJwjHQYdKZTJ5Uf8+uEs5Bu8qHrVlr5yMeck1i8IX8DKau6coNem3OiLeabOecPST1sP7jRnlTVfU/9O/rQjz8VL7zzfx6U2tV9XPMh+575zwosfPDv14sX/sh2+TMlMETxHlO41W+leV/VlFtV7Ar/LpD09lDKkxGJOlLY71Ty2b+BKQ5GdMowaTiNhzRnQDSiiCd8QEJiBJy5hGDY3671syGl6PkxBuuhN+KXfb5iNWrpXzf0rx5fLtz11Spx+iL70LJuThURknn3dn+Ds2cfj+Jx2whf95Pdb/TD9vE3bepi+cjkF5Q/TH1J5kYPCZFaNXwTtiBM+87B5ZItKstBm2oWLS6Jb3dhCHik50/OGTf3/H8vC2F80Je+/ol6SsXKPy0lveYXAAKuqP9sExKPZOg/ZlmIx+8rfqf1y+e+cLu8PDtogfwSZTJCCZLmNam5O6GqkxMyYM/ZFW8cVm1jEV+kKIrtpFOfiLYC89fxlO1awyYHiE9WQplvppbBn1zWV0u6zs3YaoZHDwqnNzcGSgnhyY4q5ofpWRcqnVMxOgC0+ZIVvnWP9BbPDgT6IuwPcK9+FLaZELQYMD+FJ1FC+Mo/4NZ3eF1z9/Xthje57x34EPqHDGzC8Xh/k/WISnJ72z56Cv70iy/q03xt3A09YP+z0CS0BaaJRA63/TXYPhnCvvlzXh+PNksV6sP8oS+TnZnPLM9cPWG2OJDLlvvHM4fPq794cf/RlblGMOAJSa9PfifJPdtusLbzp4/bDBLHUsvkQ95iOcMFgvtb8sTXF5ajXa3+rP9mcdP4atzQ/bNFaWFUFgWxJjcSsc8fXQlMtzqf3Nvp7buAxnMfEGW2y89dhzeNg4x9Z/0Y8Hw2fw++6ryv+9/Vk63//0CQM+jl1SVftzyfUUTBjX4wlDloH5IqOF/yV80f/MFlp/tj8njFMP3yBszHcYLmTOJGlc+59x2d3hO7/BclKl/8txJNwhmELWX62/eqGOP7P6RsNbD+rF+0XtP9UynQV9V/4mvyuE1NT/WGp50ujjzkSVmtSDz/rfWPrHav998GNV735RfBeZBUfISsqkh41R9U/Y/zF7UgpCFCaRF+zxjk/yTPxyBl7Yfe9PGJyQRUwGgLbjdlaOxPwnFIkibIzMIeMwYjxNyBSh2aTYKoK0mE9kRUWG4pn2oFuSAPVf/IqZ8otWIoh6gOcxA6dfhp+J/Rd+fYt7/oAfWYYfgRnllsGsf7tNesLJz1o/vGn+naCBJAEyzEkJAs8teS/Zfz0sLc2u6SeLhlHcRQ6HYz96G2SpThbHysWlCL3DVP0H7jkL66qd4Ut4OuEad1IvmbTz0i4bz+0OZ714Q3xfwn2rJo13iCG8GLpuuUeX4swysjzVS+dDZqd/Vdm/2v48u+vrr5+JF62iPJc4miTXgLWZfPBi2P6mJckVhsQFBRFOqARMXnmWJmLH08+viN+Nn+e9Caelri77a3W1jrtvH5ek2Bap2grwFzFPOhdPGJwwYr3UIEyp/yWCMCgXc3M6oItr/2eC/7FLapsZuksqfpMEihIpSNXmtNBaX96LJ4yruM3V8lGZaOmQnVNdODGX/anqf8ofMzFLFDALNngrzpPbc3sihUBiCmdhCfpK6hNac/078aTRgclKdUIyxExU/1jtz8n2rS+YgRtR/XAwFaoBMHOwWuP5n2aPOcwkecIopSfBhq4oYINzQGJQXpfDQIlHwx9w1ssbLlomd/CSAQM3XzyRrAZWSJIRx3nMy+cS/wgsI7kAy8sr0U9XY8PjPlycAgIojlbkYC+ThD2FRA1O/4WnzAybrx8rEsmMKOKft4+Ej393IPwGByN2ojyD3Go3giW1pJ9cph9xoR8k+M3zsIR1DJaS5AMgoDQwX13nqy+4M/zuX/zyPT5VRG5GKHJD/Vvrn9XfGd54IF7S7dSHIx2qjoSlNkygL5YnjHxkiOjBhWu9fHxfHfZXO7AeObzpeTPC0x/dVVoILN7BJ+N/9I/S2tRXYrJ2hWoca0A/l0i/gidePg2uKv9vb4ajEwAAQABJREFUsj9x7H97yISRl6S8/XnI5SmfvAMTxgB6APtfs/+P1/+83XfBEwZ3Im2EJ/iVtf97v4oJ41cYwBv7PzZ74OBDPlGPVX/v/7OxO+YtWJ7bK377UPW/sxfcHa74dXzCYOE5K8q8oeODeRufNPgCXlcfWHtSmMEHtb/XP17777BpwNLUDDmgMRlPjFjqVy0163rlAtc4gJD2twmjJtZbpCbOhkkzQ5XB1OGBEAPTKz+3DI+usB6VykAOfo6AVjMpjOYRibjwHQBnX7mrZlkqgeUVep0U5aYWk5wil3oq+nXC0O2txbAS68/O+p0/8GdRB8LtOCF0eHAJ3mnwSWls/bs+tB8Txeyw63YNuyq0qrGcasOr/7g0nPZFnGLGILMDvgnBe4Yn7TIzfP/3ulFA7SUMLfV3YwvwC/eeFQ57wlysBVO2ymcuZEr+ySeiF3/kVixJ8amJJDesQn9XZ7849qq2vxSI7SL+oC3Qj+NSzn8pnZ9t2ByK8tZYXEVb1F/RxlepP+VNk/+3sv94+m+9dzicdP6KsJQ/u7oK/b/J/iwb+9+e23eH07hLKi6PezMP4te7XvHJu/Aham2NmcaDCPYpGTElm3gh27nolqX9H80njDhhrKz934sP6a76TV6mbdLfiaeMLi5PsVzO/6z+fvzhV+dve0EvbKI7uKr+dxaeaK7ES3YNY9e/swOTRh+PQYn1n4D+KDhF1fGHxxods193OHwffJQb65LkWy4zt8WmX0ri+j/5W/h/B19hqPOa1FKN3umLuZ34zGtQKkMFwU/03/5lriVW1fBZAbiYkUMF0wxJVnRceRdBGFMc1/KMgTOwLZ2mPASiU3JHrva1qEuk20VxF53cHzafxww5JFlA+fqf9/1B7O3GeUz3YXlqhOvKJh8xeClls/W7w1HY1XTgrnAI0C14mQUOBNlxgru1v0nnU0sx67FPnhuOf/KccOPtQ9hWeW/4w7/5+K92FHlOfxcmikds0RPefsgGYYsN0cMrCitJuWvlE8bNOCSO5aQ+8vBKDUzzTqgDHyGtSvu3av8X7N4TXvWM3sL+1TpIceOlRqsgKknJJbgGgkf59vd4r5twjVZBVJJj6l+Kh9h3fHG5/Oyq3DihNXh3tyr8v5X92f5ckjoNgyQPHWTwdeBL71M+iXcYccIgjf7PWJwHc0W9/3kJUV5EUcNO2ARy+mEbhE3n5afLqdifN0Pvwnb2H/2Fp2BrgdSrq/qxPCVHrHOzh44H5E5ctDlvXEHjTcxbX4AnjO3LsYL8DHzJfhUmjKhOni7Gqj+fNHjagjz7Q894+ifS/jz2/V2Y4LfAF+q5Elq+VCdNylVwDQSPqtkfCNJj8KxE+bSHW7ALWvl4XYiDyA75AGZdlp+IaBaZo+x5C1gZoGQi0LzZeJpGtiiAFElow4hMEStFJW1E3nHYEwMYOMmMoZ+7pDZf35wg6oNIDT6tMH8YnseG/+bv9+JJA3fnLE4MRz9xbjjx6XMwkdD5SMKVLe14hJXGcPX/2FULwxevWVjUcbvNusNnXoHzjFPm0XDDrUPhVeffiZ1VupPLZM/Gk8iHXrIxdkrk8zXG04/pLhyDXVI3Y2cXi5jKBTz/6eTNL2Xh1L3ccqsSSUNC6qcXJBUl+SZrf+pt1f5ffnV/2CC9AFX95E+hAUVpLFC6TsD+SV7M1ZxuUNaAmg7938KP9HzwyhVYUY0KxL4Kr0778+iJ0w+ZIUeDWL3MNrJLiu8w4ncYxLNsI/in/hNbwfofGQjDxtL/+aSPKknVeEGYCfd9PLaavwjHcey0ZfZlpTYYuwF1x8Kh8I3rloWv/WJxWLgU/XNc/VCOJ41ufqfhfNz8X0oIFpbtbZgw7AlDyuT08x3Gt367fFL178TP1fIJh99a6I2wClQrEY4KxEiZRjxTekEsdA6zHeE5u3bgnCnd+jvR8YeiNER9ljT9ko76OWEgyCCXMxFiKRCET5l5ZYiUKE5pSvEwXihfMxjO/yG/RSAefxwk+R8gBwnBSxSXd0Qyb02iFjY28vKrUCzgw7CUo2IojimbGpipuvJPMUkPuRv0X/gKHjCGvGkAVx2xEKok3oYZhS/8nv++u8MiDNyBH/ZA87Z4AT7/VX6AZ0ljkIxRv+Ec6YAzbpadViqffCGcfuhG4Sk704nB6PTzGIaPXnEv8HAH8PHdyvFPXS8c+yQeryvMFQ0RbfWPVNkl9WEsSd2LCQPVkMdvoal+KUS0fydegnfiq/BVYX/Wlf6n+tliuf132ao7fOgovIBn+4ORVwZyMWRsiVGqu0pGXFIbOxrlQP9k2r/UpqVQiR52Oiah/w4ct/H/cBrtX25BptXg/2PZn196v5OHD/ZqvaQaqBbrzwnjJDxh/OMW9X/WVltI/VLcDbgx+19s66r/9eJ9wZG4+Tpi37nxK/O6furLWG0Rnmjwga/fi3PaOFFoOSeqn9te5Xw153/e/jNxBsdb8bvanDCa2p9LUt+KS2DslxPV39GNSaN7dqP/e/2TGf8++OIZYWccHZKCNBwNYiVPFAEm4/8YjzkiI58blOK4rBYvZbdMSZkohhxI3L0Yv3XxyWVhOY7wFqQxKJlc0fDIgSLIoABLs4F1WyfwqSDkJU2FUIe8YOZAwk6FNO+5GQgTh4usl8ZqMZmCgeSSdxiYMCZTf37lesB7bwtLh7n0Az14p/HQTfFE8MpNo/6oSgqT1CYg6QfA9xZ8f+HrvzeOBjn7mI1iZVI2ARZctzh86Bv3ojpwCFYOdX3pU+fKx31kEJVJQZnXUiRzwjgOS1L/4TuMRvubMI27u/DxUTxGhDqmy/5S4kb9HaEXH4x9+sT+sGVlyRDqa6GocpGosSZXSM1D/ugoCWS2xFCXUcUUKotElRO2i6gkPintCN/ESavn4Mh/+UnT1eD/Y9l/dyy/5CeMsh7cZXfyJ2/X7zBAau5/6M3si6yoVTqButSTBvTYl63/c2zbEU/Mh2PSeBy2r89r/ClY6IUf/+7GAWyFX4St5VjNoJ7U/yejH12QH7CmbeUsdy70LGwceat7hwEtReCSFL/DYFUnq7+jEz9Xiw9nsUCG4q/8+Pc4/Nb6aXhBP8u9PvWFtVpJWaW8uEzQ/zvweCjmzQIpzkQ50RHtqUmXtBLyOOJlv4Djf2dFNCBtKKaIasAIj+DEMALtMvHxwoHDCxGYWbJs2QoHPnIyMIs8zjkepThJ4Gmlf/7JM3Hsh5uNx9MP4SOcMM68NSzGkhuPHegYHQoPxQ8BfeYV2KpgprNCMG7SD8brcXd2wifu1CxWf9jp0ydtiuUlfiBktcz1v+wXS8KHcRdlFMY85fZY7MQqik69Fhr0D8Hux+IJ4yZMGFJkp98c3rKb/bvYmbjDYxrtP17774U7ujMOsyetehVZf7uznUz9taHoR3rDkeuqEjVNmCHb31NJmU799OWTP7M0/OM202ux0492Wl32z0tSTr9aI364d4d+h2GGV2PQLOJTcdyWsWgEE4L8VIEQlVH6v9m/hf/x/clj8DL8UHxsuiu/so6yGd+IkxQu+cni8IsbloV7FmPKwuQhimM0ef2YNHjHzxfhErL9Z+Kp523YVsudY9JfHAf9j196X/lrPXyQJPJMRn8Hl8Vk15blZpz1JxNPoP3n4iihNx+oZaUU5q2Nf1pCkCbn/2gzrK8gE4sWJxnR4S9C84hx4OVYhTrt0uXhl/h6moZz7Sg6WEhVRkEqva5fTA4+lA1ELj0xG+GmINwiJIkUNuLH0v95fLi3xfpxG5/lryioovk4fqBMGLjNYgNiLXL7TbrC+adsWMmpySI/Ewwo2Mvxovsv+O0AJoQHl8OeMDuc8uz1SU7B5+cTxge/cV+kgQL9POFWl6RSlgLw+UURqDwH0T7c8/ohzlikDJyg+RCq9kdd03bEQoXymiKLwTKe/SfS/l/AtzKbcMVtisEVp6ycyFOqXAvGrKwFOjOMAxX5mWBIDaxUXv+BnYQnf8Z22pABWLH/qvP/sey/B95hnIatmvw9jFRclh1B3mGchyeM2/Q7HimtVkUZ4pX4Vv2PvsYfBOJ4sBynHJBxLP97JjaSvBTLrzwu5yrczX/6u/eF+/kjTTQT9MjYQCAGgvwxpl5MOsuwfIyNXeX44zJJ0SkHOG4p10lDEZQ7G/dvMmHg6/em8D48YVzhJgzjoYpW9feFpv4uvtOQ3VPMLYWTAlH/ZMe/I57QG47et6c4cZtSi86dEHn8EbWCzxeWjaVhwIQhZlZBhlVavpIltiRnzVZsluFeNOIrLliGtUR9EpA5DNM/t7TKpGSMsSSUJ6UQALDTobQm/caMzATlQoExv4Jin7H08x2GvPSOZREB1Uul/lySOvDM2/CEgQkjhh22mBUuOHmeJVOcxZZ3s1f9dml4D16UMWgdQ9gAh6594TWbhf64KyULgZRo/8vwMu9DMmHE+oPpeCxJHSfvMFKOBLTSr+8w8KU3Ptwz/VzlosFyHitb1s+26UaH0vVez5zLI+1HISoO8kFbifZ/3xF9YVesp0vZIIqaJhpyXUr71/JnxhpJnHMS/u8FZLHj6//sjwcCv+xenf5PY9KeTf1vdwyO78RL795u1KJSf1mS4oSRzpKiIPDxfwRpB601HKvS/hvP7ZKfQz0YTw58/33ZtYvDz/AO4g68f8g2s7KpfpaTOwB5B/1XnHZtQxf1CKfT34eJYq8dZ4QD95wddsLT+hW/WhSu+v2y8C/3kl7zmQ6kkv/Hj/vsqBwYhx/Jvu35uGvfoXzCMBnyhPFb/iDcxOpv+RizXmJ/6O/ApMFlsfwjTKRp/ZNsySy5RJ92iJimLIB740nodc/tC+vjBGhSyFh/mhCCXrzRHVpAp79hSSpyCxNhVRexKRpL/h2YKHjIoOSNjy2cw5hHQ8yNSDtHrGyMhKeiP5NoAL/D22QizgoiErnG0f95TBhbpF1SXhaEUWlD/TlhPO/MW8KS5Vkhv6TmOwwJGd2UPSzHaH3Cx+4I/7mTg4M1KJYjnrVeOOIJdshgs/4F1y2RdxhcM7acJ2DCKJ4wxtFPQw3h+5hjsCT1n3vikpRVNapVJzWkVsPE0ix6F8YPn1wwhoQa3/4Taf83HdAXnrELJgwXqEqax+ES6MvRyBRzI1L9KWcGKv6XCQqtCv2nX7oCv5cSP6Ss6Gc1tFrT6/9j2V+/9O6Pu6RKC+jRIPxwz32HYUbRgop/jvKIguipER2eiPPQ+J3QTnhHYT9MRHl/u2UgfPmaxeFH+P2W8fzP+38qWdS/0+Y8d21ueOy2M8KcmeoAfNdxKzZ4fBuD+mU4xZnH+XCU9v1PHAposTXiTryzs+Up/rodt9XaLqmoKqmW7zDsCYNEBGmphvrrxAotLfTLz9VyWUyKruWXMmWpxVOLoHmJegluho+Rzzwc7/821PzE5RBLj2iy/p+WpERYlJMFaxmyyqzIjKuV8jlCuHPRSDj8o7onmZN2fiTTaUNehMlsDnlyVxA1uApwOOQHKLpgZrbg0ggezsTQEMzsuXCpEHruij5mjaf/wlfMCJvzZxgZYvU0odcSpakhrOcceBbeYSzTJSlyFhNGFGR5LTa5H79yYbjkWvxGrQwKoKLVdoSTn39y/R1ImXc0fPW6peH/8A5D7Q8qDFCbMMbRTzKHJW6r/e893MVWtz8V0I7e/rQoWkXsT/3ytSy3I1bCZOw/kfZ/I+6UnvUYThjRGmYUiyv6jc/IFie2AuESDjTeEhVThrTYmFOsBCNbXCHHZKa+Amet/Q2nC7A1Vpf/j2X/PfHS+9SDZ8Tf9GZxY1kR8duhk869PdzAJalKyO2vL7bZ/3nky+bzesLLnjlXTn7mVncNuf4UzxR/ZOxT314YboZv8nw3tQfj0v+0/6jvchzgL2UetNescMQTZ+PnXfPX4k6DqLwBByZ+8Jv3Ypv6QFjBR+0x/D9gCZYHFvbjpTc/3NsLHzOaGVIMqfrhHm+S2SUxEUEmb5G51dWPf5KZ+sYZ//hutKevX9/xQibrwOtEx7+uzs5wzktmYKlcFrPEhiJCxahRBeGs40DjLVGwf3rpbRSLLUdDrCytGW/HJwVHfoxfWSKQTS7asArmvDQsDSx4P7oDRSdg9xHbqqB4VechQwfulEeQP0qnMvBEmZoQTLKQqM76Py8vvZHbUBYzb4vAu6GD8ISxGDvA9IiT0WLCqIvImOU42v2Qs28Ji+TphI6le7DPPGoj7EHn9w5Q6itTKcNl8R2GTIesP+z3Erz09ktSdRFVTHzCwJfe/8F5RY32j8VQ+9P1c1BpuEJ/N3aWhPjobhyTsf9E2v9NmDCe+Zi8dpz0tzCU0q00jKuYnE6QARb77BVYWVoz1ilVTE4nCMBJeH/B9xhSLaRXh/+PZX++4D0tfYeRjcAyD+OFwMnYVsvBt/SOaG3zYTA/ZKOu8NRdZoVn4x3Epnhf6NuDsoTVgBhzaepbv14SvvuHZeG/eBLnoGtBWXCN/r8eniKegAM9n4/lpx1w40WBpl7zmPAsYQXmuR/iVOnLf7U0/PHf+H6CCvz4gyRl0Je78UJ61qx+Oa+JmzCSfqfFTxhCtwIwkfzPypFj6//CUtHfhY/79OwpDvoiKF5ZNqRZ/zHGv3PxcwGcMLJ+loXB9DvIUBYrY+2a32EkkuVgzKBmS88uRgbFgS41Gu7AhHHEOXh5J3fQlGHBZl0lyd0N5UcVagOaxhDMV9VPfuWQmVtma5SETx3gFUNKHvBNQL8dDWIlRKasU5BV/XxhjAnjvbfKh4mkUt32m3Bb7WZIWH7JXFzolG+5+K7ws+vxBaoWXjLv96j+8K5DN4w/y2r5GTOU+hf8fIncHXGOFRHgOOFpWJLan0tZkVdi5q0Hk8416GM+Go8GsWxg1xZyCJNJOxsaPuj1d2HC4E++TsX+ItTkonByd5YUsfwd4Q3P6w3P2kUHAm9eq4vW0lIWK7Z6TVQBUsqxGY4xQyycrz9RCMZZpkqs0vI1UQVIKWF41WeXYucc1/DNIERX9SM9jf4v8k0diuPtr8eb4yBI/h5Gpf7yA0rn3SF36VpEq4vFAe8+8CHZbrPCwXvPwdfH3Xip62wmbJm3biGedxZwOOYwfrFyYbj8F0v1J52Zxfnf4x7ahxum9eSj1Rk9TYNjlkwoaQTAEePeJSPhGvwmzWe+d3+4Fzutmv0fL737Z8jvYey5HZ4waC8vCzBPq+UPKDkNZKkF6pRvjlz/tyYmc1W/7p6Kp9xKO02s/XlE0MeO68d2f9okB1//NP5mMiDjYMwQnSO2fzwaxJiUpenazGFYizXn/Tga/OTPLgu33cu7Vx3ER+RugHSYRAZy4FkWPNp2YMsdZ1opLHBy11MpeKlB5eQhE1SpkE0YmuQGsPH0X3gSlqTmsSD8ax28ft0lxZfefBxnPj5h9OZ3GFEM66kfhOlk9rsbV4RXn38XK4jisv6QCse5+LWbhq02wIA4RjD9eZcU9eqUcYJtq63kr+pPNYQwbkrhybj/xW+NV+0vthT7Z4Gmn3XVOmf9xMkX4dx2G/OxOSZi/4m0/7uwU+fxD2t62WhlsTiXl9BY9bfxT6vTnN9La+YwrMU+x+T1n/7lZeGnN2DCQOHUjrQxZes1tZ9gSvtP1f/Hsv9uGBztO4xqDXnDccp5t8V3GJEa+zqLTPtugyeLc0/ePO2ESuWPdElL1phf6tV8OfHjWP7CElK2REeYjQfyy960JX5igHmS9CRgMu3/zV8uDe//GjahUAwLH+1uwvrx0vs03NTt5X9xT51HeM+6FL+49zt+h8HKqYjS/yFa5EJ2pf+P1//4ToObTPLHpSwVy6j9Pyk0+4OyGT4VeM+hfWEr/A456bwJYQ4JsXySFtPLxaiNsXHIE4YlTJhKLrCNQgxpnHEewG9C4EtlHMv8y3+yQqDSULwriiDzsbDMx2D5DcGJhFVULscrBM1FXXq6AJrIZEc9zErWlHMM/TwaZDO89BZ2ZklqE0BsEWTCwBPGEjmiQ/XvgC+9L8B3GFZE1R+zQRQt8fJP4LyoW3UbrdX/4L1mh/95nttGm9QmoNCdJwyrXUc4/mlYktp/Lv2wpf5cQRXHuzc7rbbQZDKyIXJbWaFjiTSZ7d+Jj/v4Vfhk7E9RST8BBLFhxoZPvbQ/bCeP1kqvXi3/ZOrvZVh+waVEAjxrI2ycK6t//g8H8OuP+LEuGHZ1+T8rZOUXAGnTrxNG80tv9oFX4AmDv4dR9j84FvobZWyLp+5zT9pMj6qns7QIST/pKZEAyfUyTBh/v01PijYxc3Ei86WYMLowJoovIouUPcbGl2UmTAFQ05VY/jp7ASYMk+EyUTYnjFMP2wg7r+q/O8H83Far32Hk+iclxfhDbh28CTEoRuFW+uXsqd5ZUk/Jg0xjjX9779gdXvvcGWGeO+MwaqhFVf2qpMCmPLUlKWUrmQuc9Yokohngh3sf+y4GR/LHagqEi9gvYh1ZWlvuCsSE8WUNJgPecXHI5bBOOg+HkjlTvCTqBywTksklWuhj65+Pwwf9h3vKnfNQTIGDfu4wOpC7pDhhkIiwPX4RTz7c06S7au4F2Jnxf5ffFydNne83xcv2L75uc2l4y1DoikiPW/DzReGDl98vdbPq1V96mzTGmjtBSNKcnDCOlS+93UtL4MW8zCM9Dwixv+bO9ide/qf6SxqZeTQ6P/Cj1onYX+wHWRKgs9r+PHH3Euxk6+KXwBQoBbQMMd+YUcwHHoFwMf9ryqbcOQ95Ctwq1H/DHXgy//QS1JIaV4//j2V/WZJK32FEm8T686X3KZgw/o6dTRLoD6DZnSy5t8XpB+e+fFMsaemyiEjAZSr2f9nHb8P7HUxOZn/okwnjjVvgPdpY/hDLjfKMpf8KThg4El3Ek7Pi/7Nw+OBpOK5nT04YpFXCWZhsrvo1fmgNrUcqdSnQpF+5Ep/JAqKVfkrsxotw2c4+gfHviMf3hqOeiJ9u7WrSr0UztT5W7pyHNI+rTBiOMYEJELk+ZW0nOE8AJ48GOfYTy8Iy2XWH0YnW43/wyQQgA0AsjUgmWR1OkkleBCTKHDQ2fFbbFTnprPLSinwMFkvjttZ/IU+rTdtqmYmSERKYgITm+u1B+HBv4TIuuSkrnzA+86q4rVY482UQOzGO/sgd8vvZOqmpIV57wDz85CtvASw4XQlMgDDxpTe/w6BevhNhzLOkjuM7DMDNoZRBnvThHk+rjSFbF4iYJeGYRr9Xh1a9pl9YhY4LRoMu/twr3mlIGMf+qZ3AnHQxowjFGf/4Tel9d8rLdREtosfyP2FIF58rIRsAx5fABAi/T60K/SdhpxR/h8XqnwBRnC3Epp4O/x/L/rvhBa98h4GvnC1Y/eUHlPDEfAPu+gXHC/s0Z4MY9Aljc30H0to5jR2xSfeg4uwJw/vfLNz1L3jzFnjCYP9HnqzaySQ4JlF4OWG8H79pwaFcQsqiAI8GecfhOmGYGt/+7+Phg79bXNRfBZG7Mv5QhxQYJIqPIbcuEBX9kkb/k2NEembJe5BW7S9feh/UF3bn+xYJSVhMt4ocXwITIJkqE4YrJ8gla1WJUsfiuQiHD16Ax2zOubpvWmdW5uFfxb8EKXcftDEYsuzURFIIGXSjh1ijsQ0EzpmEl5ex9PM7jDxheJ0lnIQB4IRxAHdJYaeTqWv1hMEyfRBHk/P7CToEy8I8O2/dGz7+0k1qTm7yqM/DTDPoWVL3gaZUXnmWVPEdhnCWl8ytthyEDx+HbbX/4S/uRXtTZKP9ZVYEMfJpVJEIpLc/nzJs0hjL/m58kQp7/VyHnf9yPl2UddFURX8Ti8NVuSWtSMdV2ryB7HirEh2pAaxyS7pBweW/GQyfwJE6/IGiTKbFGYhBMyDiMhAbZGX9fyz77yof7rVakhqJP9HK/i1FKdqfqLQkhQknllYZcZW0Ismagkd52CYMZjT/m9PfhSWpLeRr7iSgBaCyskSBchJfaeMJA8tK3v8SGf7P38M49TC8w9gx3ghVasQnDC5rxWZxpdA+r1NG7v+UncY/rZAYpZV+NS4yISN3T8mPP/FJA2m5J4MM6398MnwbfoFv9gxpGSmL1kWvRAiUk8KT8DHVQEb95BkvCkjZPGCPmS57AhPgMwBW/EJslDr4Q0ukItbMpOmgSR6OBMprWpSuWBVKChdDeNcFA4hxIYEGAo4vguSJRazFHGQArzAIs4rRjIBL/fxNb04YrWpCfsuhsnF3js58EL7DWISX3qZ/Ox4+GN9hMI/x3r1oOBz+wdvCCnnSIh7SULYPvmQjfL1szudzxOKmqNR/KZa2PixPGOyEWv/jn8LTauMHf5Iv609iEqA0Likcg6ce/qY3y6palMlbTesf7U8bJvNm/bpkSLkMiQGOzRNAbc3XpJo1yT92+7/hefj+Ar+8ZznMpkBEMAFU7EIrPFmMZrFmK1NOVLQMa7s69N+J02rfs2B5+PPNeKssYdX6v9nDvIxpayl76c3TY6v155LmyefdiicMLhNZDhY4t/+2G/fiHQaXpIizYHa0WPFlyngZa8le/vFb9QV7Eo+X3tjRveDNW+GGwsvXPKmtvCiBTZPFyvDN+ITBFKWRqkHtPwtufCqWpPZ6GJSmrAkIZ12KXVL80tvVX8ar2lik/V+H3ar/q8Ym/elrjlh/+fEnfANl44/OFszfET6A02p3eYg9XajMfLUyW6yUMpW5zf7W/pgw5MEmc6ScCci0ClRyZJcTtki8Frs+3vElfrmJmqJhuZ2UdU6PZNn6Kl0mBWTW2yjFuavX6eFcsWhuR2RlW+nXCSPv8c/FcQKcfoK6S4oTBgbsRBsNO+DL1dc8d8Owy9ZYQonZ+fsVv7+RP+SS6/+MR88Mb3/RPJnTEqPJSWoTIJTFWP5674J7w89vWB4GuMUJwTj0HcYcpNmxYzCiJJEQuyICyLlUjgaRn2jVCUPtTaEgUshU7M+sttst6u+Sc3mw5dbVn+JFPuNUC0lE/aM4cK4zvP9IHpEQ8Q1RUUXImUz9s7hSSi5OBZ8zJKjkmD79V/5+MHzkW8vwJFuvvNfpYdpR6888oDjiWP5fMLJm0v7IjPbf7aE92CXV6gkD71twNIjuXJKMMWscBCFiW5x+IC+9uaJY8T/m0OAKSkRKJkDY+A5Dfw4WRdOMmDCwJIWX3voOw+ofiUV2JMbRL08YC7iDEdKpoOL/PBrkVNkllT9U9SrOuuwu/KY3nzBy/a2gNftLBeymNkoRfdDbQn+sVTYPEXjS6JEvwilQ5RywW194JX54TFTIhYzj159cElKlEmAUidMThik0ajZ/hoyW4maZRaU4QJ2Iddkb7+BPq/CeUuWpc1OABS+MJuZgTOPbIQDRKGYbUHKbKtJIXhJbnxpVUl1//gGlMleudYaspDZhLMEgzvZVD2ON+LjYEZ6884xw3JPXC7diuef18++CdtXLGvHnLi9+zeaBZ+lIVmaX0KyfP4V56c+Whot/vCjct8R99oo8Vv8T5Pcw8hNGKSm3rOL1yiUpvvT+L35AqbX+aH/MMLolEHnNyE6/IY1UtRhfhPNr2cm0/9lH9YZdcUwzS19MBLG0ElUrGmlVtKU19tfWwrLWDHnuValffnHvS0vCH25iWVet/+c6mZWI0f63+3b4BTwck61PGJmTkOySwpfe13PnUnSKavvzN2LOO2lzDGrGoZLz1cv0+n2rq/1fzl1S3GFoSpB1Lr7svvTNNmFkWaWkZv+v8lyBF9aySyqKUa3Z/2fhy/FTD91AnzBMlRPC7zD4k7BEVT2GOI57MqKh09KfeQNFK+fghCUZWX+r/ie/p4F3GrTLNht1hne+CEvsWMqlmSyYZI391TgYG5fich0yRIpMGHbXWZBcfq9CYEcTRZJGEQs8xQMBw/wJPwbz2guXwsmIq7OJ8SQ7TRqriqyyqiT8nDrYceLSEfXIAmCUJnq9fsogEn8yY1ua/KV+2VaL345WXW5oEpmeXxG8jqAeJ6Cz/FMOMqMOIK2wUnyckIkD23rw4dISnlnDdicPwoux/fVEfGjnQ5P9B/FW+q83D4RT8VOTd+GDojzRstGgJNZ/Dg5iezVOt33m4+A0Uo5CMnDglTJ5vH/C4CFuLL4OErS/VAUPnopTr2ilX5SKXihJ+qmQ0wOClJUTKZ4WMGkIChdfpGr7P/ux3eH1z+ZuFGGPYlW4XJOeKE3SXr/m07IB75UZycVN9s91sWqtXv13LRwNJ3xyCbaom/1Xjf+LBdFG6r5l/9udv+mNJ4xeGfDL+vPj1VPQB2QQr9mfBh+RHxU79+V46V09TNPZXvXT/2jn1v3vJCxJyRZeZDD/51Egl+EdRjcfQ1VApa1RsBb+74vA9udvWbxvAX9qgLJArfj/bOySesehG4c98R0Gb9SyT1EHPtzDOwx+ma54EaAqov+LP3mlDq72vyb9Y/U/HljY1z87HINdUYc9HjupqF4CyxbrY6iGeDL+754wKpIKo5DmEbFpPSpld82e6KPhjK8Nhu/9CcsfwOWvSVOmCoBKWi2QQcU4uYJD05LAwdgCZYMmMzlwFCHGF1lx1CZPnOWZLT9hMOWC5U0oj9CttV+5ZlH4+HewxdUCZTfpjzXYBvvS5+NrcPlgTwpmGcv4viWj4Y3z+c2Gnsipmuv15294n33cxmE9PJrn4PhSkRMQmzEfDaJPGOpUtCc5xWiydqg209xOLrjYtWXOKlWPWX/bPeXtn8utEI7ACZ8/eVbYjHNqcnzSXB2i/rLjan7ypWEnZUlAqn9FuGXOscuiSI+IOjwq5Zw+/Z++eiBceh1+TAlzL/0q1ctg6p+I/cfw/1TsAtD+t9v2XJJq+onWUTnj6RWcMG6P22qZH+Xx/r/NxliSOhnfYXBJyhpTbNZoODLlUGF5WZww1CXUFuvxCeMteMLIIyTyOzslGQlo2f66JHV31M/60+jZ/7mt9h14h7E332GYDif2LOyw4oTh65/GHxqG9WfhKTaNP8QzRJolma7oH6/9d9hiZvh/R+D30PFjcMlPUvkS0LL+Wg53dVkUqwg3YSjC8yU4ASbQIQTUNK8MtIuGzHfT3SPhJefpgYRKp5FA5wwoVcRAzwaClWUgAlomZ1x07zXYcBeBAse03AvESUFNFO9pk35vZNJUk5VP9V+Is6Q2x8mOLAMpucSGSSQAFjLX7fcNh0/hXP7v4cwbdmwGk5L1s274waL95soxHtRWD6NhyUCH/Pzqj3HGzaIB3lHyQQJSxHlYXvwHkr9Edsqz1sdLc9yFS1G0PLwyZPmKJ84gi+UdBr/0vouPfbSflpGM0k0ghLxN+tkltS3AIwKr9hekyFSKymbZuXOKO6hSZSrt/9L9e8KRj5cRRvRLXVQc8lhwCAE1zSvDROqvnP6aZVh+xYAnAcbvEAJqmlcGy+8zWg6LldNfswzL/y+c83UGPoD9951xKXIV+P9Y/W9XPGG862A8YXBl0AolReYNR8CHe1iSwlMwnZK9Mfc/rQu/9P7IiZvL71dYvS32NVe4Xn/j5a92noyvym+8a1CHjOh//FGji16zRVhffvddex1l5aKahNwSGVOW4Is/uT984tu4+QNDk//PnNGFo0EwYcguKSdFQP6AEn9xT8/P05LQIjZ5Zf/POVHK2vgHXAv97G+smGSJ9RcY/JyATsXTz3674GvwKdbfLJTLZxgIdEhdkjIljiDm5GjAgiIkUgIEnS9VfEP64msHwvk/4EvWSGSkcwQqCj2iL4vU9ET1QwJFJNkQLmWnEgQOTPGoYa//wlfyN73jml8slmZgHpORcjggcQnw638MhM/9cGH4zb+wNUzqwohlz/q7sUz1AnzZfTh+JGnjueiFUR8PM7wcRxNc9KOFOIcrrttRakX/vFmd4RhMOgfuOUvO6SFLCrWyg6KmUxahG1N8wsC22ptx5HPa9mBkE1rRL+KqPInX7B+nZuEr62/254tw2RZIHtf+W2Lino8v71OYlH7kqtU3SYq2tsLHuIxSe6Rca4H+C3+yIsznb2RY9RKQSqkA/Hsq/u/tX+1/uz20K5z+Qp4l5UwT9fMdxinyexjxCSPpz+3fgTv/R2H7+FsO2RAnQnfLETTaSKXhU5USEKsEx7wVN2Tvw9377/7Nj4CBr/DwxfdrDtgg7P/ImVj2dDap8Gk+Q8YY0WJ8fPuxK+8N38EL62F2vcKHwCB9WL/0lqNBdoR/ep6o8ix8h3EVZGBqUCGiotn/UyXIk/wfsOSJAhlN0P/2xcGL7z5i47JcNVmQxxlGCh/jMpqQ/vyE4QrHslqoqDB0ERtPXWNmI89CLLUcjY/5lmJdVgNjmc+TcWTWhJ3tzlRkM412YNuxCXSlNXMIjwg0iNOPTh2CZn6QTDZlaBjFktQsfcKYpvp/H08H51xxP34yclgGYtHj9LMC1P/aA9fHCZ794AvhzRfeiTt9TKSoIGmshdWE8Uw8Dj/x4f3h7S/cAKl6MN6cqwVPZoy7pOLhg2SP9W/SLwMR7Y+mEhtG8ZlX20L0CzLXQ1iBM/tb/fkiXLfcavuzvd7wvBnhmY/m7WwOVmSLMyVDmZahTFVIKDWyQ0xT+2vrVrXHlnHqXKkiCGIcnHzuhXgH9prPLwk33Qkbw44073T6/1j9jz/RyncYM9J3FLlk8tIbd/3X43wnu49u1f4zsXT07F1nh2c/dnbYDici5Go6gzj78wbmxtuHMAAvCt/81WI9UWEM/+NZUvs8bKb8WNLO+DnXPrw7rAbR5NTduXAoXPOXpeGyny3Gic1cKgcRBWNOshmrxED242v10/Dh3l6cMCqBPO+TwwfxkwUiIMsRVuC8/+fspgWYcfTbClW1/22IH11715EbhUdsxfeDTl5WIpBQamSHcPb3WY3D4jxhNHEZzrgtneI6oY5JzAL87B/D4W2XYJspai5nu0slQbKWIsDCyzgSkUjSyWT1Ik7gkoFW5PqlEHTQ0j0lUWfMXpYAKcgz/fyJVv/hnvBWK1FNJ4F1AjErMCF+AT8E85mr9RE3sRtAJqy7zcaWqaUDmFisTsQX9Q/h4Vv2hndid8bmOO2zHpr1s9pjBmTjPetxH8aPOMl3GOBOtqI9wRDncZGDZLI/VUqbkYG9GJ0DOKIpwqoC0MmUVL6QH/XvwXcaHfFF+GO37cI22v/f3peAbXYU5fYkk8k2WSaZJJNAREEMkSg7sssiirI+GC4IISEJVwQRkEUuisoVDVw0gggYEkDWbICCgICQACFsgqAJmz6IJCFEEJLJ7DP/Mvd9a+vqs/zb/DOZIV/PP6erq6rr7a6uPn3O+c6CHxSp5ca8Rrfs/J5iv2qoZoL4aLRO6ywwuovXLUeVvqDPCeVKQGkx+FdfO11eegnemsDH88PBHCcUdjH+47CKjmfjOQI2/npbre2AZWBqF/Tlg9/D+530d0mrWZvnDLGJZiJcTlizsjwErzl/wn0PL6vxSvIh/2/B5adLcXno8q9tLtfjDj6ZG7AxV/xpu0s5Ep9uvfdJB5fTHnQEXqmulzVri5Wawmp0xdVb8NvQzeXbeDOwfA+jaWvtv9tlfigWPV6SahcMdk4do3dJbRrtf9MOVGP874dbcOfyf8Yf6v9+uGLy+PseUX7z4WvsBYw6hJ2haqClQPwlxn+7YIghdwFMj6w60YLqL+mbX7vryUWPG3YId/W8dXv5Ot+jj55xZ8PE4OFvFcJTFmQspz1XwqNT2DwZL1SiA8jgnT3kUUaWOFr0WCAfSAbM7F351SBQEZHhqxEojSWxq0IlEwPsa34wXd6By0wfw1ssJTACH0LS+M8+MvE+sNz/nzhmZXkOvsB3z5/GkThdMJQS3BC+DQqAUNkcLbtJlLnveSp+w7ieR1cUd/CFh7Y1/ldFsUevSNNJkMZ/jr+MowiVOex/UZb++/tx3vC0Q8pJx3McaceSDGKUnFtzBZWy46fa3ijLqUGS4w8CZlN1kZGxN+LziPvcD24tH8fzGWwfE7PwP5hLjX8LC3qliT9i3BOXpP741EPtR2tyauLbDp55Hp6NkNtq3ZfmUWkcdFEcGv/bHX1A+Z1HrSk/jwdXV9l7oPgw7L/917byV/94ox7xo3pv/hPebDf9Vyj2QBRW487B0x98ZHkkzmr4/ATTDJz1QzxE+9oP3lg+jw800acy1uJEmm3nH+tkfH0Owx7co5DJukvylXJbLc4w2MB5+h/xR9UF4hNDktlmdtSh+5dzzzqm3O7YA60pqUFU9qLk3JC1a/GP9qLFblhM6qZlpVIik/qiyKuumykvvhAPoPERAHEANvJLdzWTYWQ1lEkB9TjCqrpOmS+9iLxylOqUASLf9MZvGKKaamb86nkotIJUY4SE/j9/e1t588c2lG9cz52zdkBa4rYYudb/o/ADHn/nePIDD0uvPHDFJeCPNEveVitf3MMgJHxXT4iyM+IiS7Xwf3WlV0neDlbwVJ3bfv8fc6+jygsfg3f+p5TxG6e3glRjCaTb8jyZaFmplMikvjTSbXmerLSsneVr350tf/q+LeVH6yGhGwdSf0gqR6lO2UFGxp/vInrZqf7gHusiWR2sF+VlF/6gfJY7Xw4pUrWu5byt+Dr+/G79/e90SHkEduqs+U9XbSxXfnVLXK72ptHG4PwfAMssnnj93E8eWB59z8Pk9t4rvralfOBLm/DNC93piK6DjPSfOkzEP/6IA8of4ZLUybept3urVLdyhiEvH8zcSmvbuO3Hv0ysRe7/uBD/1iPWlCfc73BZlCvSIqjoP+p4Z626i7RYS7pg9DCqQogGWCITfhIGGYTHWOSs98oPbceRNwcvYlBodawdqQpHN1yV+Q0JauvWhBjsFdiLKRdSgeXxQsuTIx1Ucb/Izg+6rzltVTnlxHxdlXZr2w1lkCUyUU36QQYR1t7/xc3ljbgTYxOeEHd8R+N1V76n5uVP4oeUat3lxM9Wb9oyW/h+nu/jy2bk+3ncwv1v1jr+lwGAs3m0F2MilB//aY+8/wdhx3HR89YVXoutKbfUuAMskQg/CYMMQvrnMRPjj8pOV1ynal3nhJFgGCGqST/IIKJq5YyHk1rNmsqZwVT5m8u2l3/40vZljX9az2h5/O8eCwa4WUmbhI8bTZeP/MvmcvGV6+U2W2FzAi5i/I/EUTJN38yHUpEyPvme+vPfGjRP/PHM4DC8U+lHeJaJN5f4mHv80b5ZEqguPt9j9qA7H4IbVY4oP7UOT1Z3rwxLZb1L6iNYMBYb//PhS6Ow6fb/LrhD8pWn47Ur/L2GQu9ZkEFE/yqn7bNj1DxrGtdYWDD0I62yL4ZsQDV4Wea05xWsS2WNSl9342x52nm8owg7FoyeXIplicEWp2m0ZW9RgVMkFslCcksMAQ0Ccmpiifc+xV0LFKnXqxKoVfvPllOOnyqvfMoaeUrb7WYl53lOmdOeZ/2Wzho78bT2zvIMvBb6hpt4tmHhif6/7uxjys/jiIgs7U+14hY8p8Rpz6t2l8oaSvOp8Qs/vQFv22V5If6Hl9GoYf+jvSLUIydH53Khv1ElfuN/bcvZD8UDR7h8sKfjz9vp/d8X8G/ETu+3Lthc1uMDZT6quxr/3v+h+adnGId0ntRWz1X8Uq7Fpdc3fPiHeAXOjrItXluzsPGfC1/nAef/7ou/MXy+buRYvI3h6fh94AFYMA7A8Yz3mR5w2nO+GkQe3LPAWmj8j+HTzFj/uQj+Me6KuvdP8yuXrmfAvSxrZNoVdf4vOP7lkpTUNWOSZcOZT8Usc9CF51EbxCVfmCoXfII/mtG9Gcdo8ZjR3O/I3tSeRrUdGKvJ/ioOGViJdZCcZI5vWHDBMGuiwir8XCIf3V65c1P59fscUp6K21YPWuWVmVuNXLG3S6fewhLvXz8Tvx1cgy/dKT7qwfbF+Ore8Wv8/sUAUyHxghXEwgBNizv7T39jK2793YjvMOPOFpQzfnhGzBsGYB2Yl6L0DK/jf2hQjTU0sWSLhAsk1wL15GwGBB9kfMdz+FlbJsOUzOgeP+mJbPGbsAxCQiZMmESy0II086mcZVF5wUTUBrEU/I9dtaP81Ye3yRE9x5DN2eX4H5l/98BzGC/D9zAOXIkRyw0fiP/N+LH6yq9vxusxtpSrv4O3Osh8S+5iZ2Ekm1lM/GlI0cauxx+tsCFj+Cces3/55bseVn71Hqtx5stoRY3c8IH+y8sHv4IzDJHNHf/z4ccZgyvSppjUqym/9POry/Mec1T8PsPuLDTlbiwl/kYuSSX/eEvMwdIH8Bis7aoUTamVhcUg8bOAZAy8jXg9+NPO24YjJnojJ5wZACDb51WaWRwGyYUN0P46CYLRPu8YIE8ScXnIxF+2ZJHo4IMn1+RFmXXEYJnevrHcBp9r5UNx9znpIDxBKgq6oQpUDWHJ/ZcPF73uhnIdHsZiMz1d8vx1WDDq+S5ljiU6u4D/bdyieP7Hby6f+3e+BJGGc/+9BZorph3VJRGqDPifxtz/yBv/QyRBPjD+hv+Sx68pj+ArTQaSNDPzwVgO/6vJnvWMJHRPYy/B5xH8n713C15COWPzw/2/i/HfeEDn311/cmV5+RMPkdtqZYosIP5vwqWlT129ufzt5etxGz0CAGPN+dnE8hzxp83gLGetmsbjT2YvpjtqLDL+OMY58a23j7vP6vK4XzgCnzjdv32CfJ7xP+fdPygfx80tkmiY+4554r+Lr5W5He//QTimPPdpx5WfPRF3FJqDaEf2i+4xZahjhvzPwXRdwg2kngYYMv/8DKM3rHlFGDTYC4Ok5XCem8iLnqPhn/rmbHk5nmblaSc7IT7Ahi/RlY+l6+FTsq0k2ytyVuslMmPERCp2wd4pCwlYjEB3HPks429m+wZkM+V2R68srzr9GAQOHjgSC+2m569GTNus5bkJaR/kGfix+Vp56V+V8wzjBJ5heFoG/+/A6cwb8WP7uz+7SfsAOHmZpgQygSp+0x/6gnMdvpc5SDVJTmhAz+V/uetEZ4zUrP5HEbYfcPJB5ZynHI2CerfBZ41l6H/uH01Gd6PbQUDUiee9GP9z/zFd/vwDm/F8grpJ+tZs2K8lxD/GQkYDG59/d7rNivL0hxxYfuZ4vK8ovROq568O/vfXz5a3fPxHcpCykR8aoxzNWlj8QRfzvx9/FYT4c8XfeP9pG/+9QSBW4nLTySceWM582JpyN//kwALGnwsUn+F472c34FsYG+NdedLRUf/38dmrxp9s20j/f/1+h5Xf/lXMG8zRzjJMM5Y8rj0fY1d5g0/1kf6v4E8Y6jwzSl38F39KPR04SjOf5Zx6sg6jU5SqwsPm2W/bWr6JFxTyH1PoohESuGgNd1wcIHkPkynIWmKDH3VI2FyxN42AoTs47xMxgue2TIf3tk/hTIM5f5B94J0OKr/32KNksgSGGmi2PVmH4UU5w8AlqWvxpTvhmeDS5x8vRzU06rpCc3jsUCLzG/BOHcr4QNK7rtxY/gc/akdfG8uGY0bpG5LcRii6/23hEP+L1OrKmEglqUu3iw0a44IDBuNuCP98fLrzpNviZgPDp5anzNIzTRo0TFfq5LmOiDqMTrGqDAgya2/E34bnfP7ig1vKp7+JGFru+Idnov82/ocdMF3ud9J+5ddwR9PJeHJbR6MdgKjjbDD4zZW3XLYez1VsELpbT+pYRcpIMhmLYaPzvxN/qgUx5VYp6lBIY4Px5zU1lzrY8LME556przChJNsaG/8b8IaEj+MLe/ws6/fy2xJoYJH41GcV4jIFPpi+cHP/d/vjDiyvPutYvGol3yDSqaPFZGRE7jgB5hXbqr3+g+HtdBO1Zm36gGyY5XDaDmzZU3ojJ0LaTpDsq66dLS+8aBsezdfo58qpi4daUW8qrauqLS1kMdE+TeLfLC5N6dEtd3tgcpFJOy7yZI1M+LKDlDMMw0A2xTONnXoL3hF4JcdpD1xdHnXP1YWfhYyk6lFUQpmx7fSftyCe/tobyrU3YkcOJWk6NnJJ6kgGQnZWBsi0QQ6wvvCtreUdn9yIVynwS2hQ8P6zCmnvP8+0IHZ8sSihQB1q0bgBiJLSlJEv8k7fKONL7LU+baPOAP6j73lweeFjeXbRTYYX7FzOtCkMsLzNKsK200ap2Ym/gPP+BiMDZPqWx7/hptnyjPM36Y/MOiTi92WJfxk59tf6DPs7p7eVg/ffXh51j8PLU/DG5UP5wssBlzhTRTvLu7FYXPDxm/QuqoH4E0+y/UyLij/q47/XFXJh8Sfz3+If1cpd73AQPmjG39I6BptylX0Cl9zeevlNeIZpGs930IKmhcZ/Fz/6MEf/+aP7ix53dHk4fluJVJsULO+DirBd5viX3zDyKqKAxLeREOSAl4b5GFVuy0mtV5KKdH7aSWcd4p/7jzvKh/+NR8M8NKAUGwYYZHwqEhfQURRDagYkS/qsJCvocHHn74mUlGUgoE18/kldEORLZqe3UtfwIZrehh+xZnEUJ/dIr5CnR1/02CPLXXk3k9hmdShKvcoh1SSqWP8ZYE/DdyiukZf+KRaPEt/9Ap5h8DcMUUaOhjGJedl0JSqy7Xd/NFPeecV6nBrjBY+siiqaSQeNAZp/kKmfKr6c3hPPK1Ix+x80W8GkZ3koQ2U/jo+11X0xFz7f/XPp766Tj9+oNcDAhp9FCb6iqFi6LpuKbxUrFw2RpBwr1Ixs6ZfrVZFI9lH8d31mO94/xpdesl/LHP/d8cf8m5nBMxdYOG5/HO8eOlrONo6UNyW7X/v+f/dnNpTzP3qjfD+jN/9kTDAyfvlZhgU2xBw2o/EHRagNxZ/EIuubGSlznvv4Q1bjX5U4n1999vGCLnpCSSO0iApT+JjVN7+7vVz06fXl8/+BOYaps1z4C+n/ve5wSPk/p64ta1bX7+iwVz7ntPHKsY7UjGzvf+UGtZj5pz96C06CFwDYM5+F5TmIpkpT6FfqicG4Dtc8n4b3THGAuUgIOEfWEqeDHNWqBDsZNM525Gym/gZiTaaM2jgIEhNaNEsaAyyQLVvima0GH1an5TcNHDW7TdS47VH7l/OesQ6nhmqBVrylwmkKlNbEk6jT5ZLUFBY79gk1gH/JC3GX1JEHiJ3odjVfDQxQf3v5xvIWvoYESfG51YVWn2qXIsWStHlYJBN+v/9QdXzkuf86EuZc+IVqw/5H7+g3KphPnvUrh5cnPkC/B0K2JMpsoIKkIBREa86NmdcqTaFfrScOUJt+PYW+jS6nqdIUuprhitq9JeLfhNtrX3bpFnw3Ba+XMQeLyzxWdzX+IxA5FDrqs9PbsWhswW2m+5V74bmhR9/zcHxUCLd32lgpvvUZhXd/5uZy/sduks8auyda90BpcP5B22wyZxw181+ZqDtX/LGe2XFQFJ1U8yvwu8WB5S/PPk4URb1VkK8K/iMe+vv0NzaXH9nLQWXe0vgy4C+k/3/65OPK/fGSwbHUNLkp9Gv0xGQscP6twOmRj7VZltqJJslBbTKTO3tE6FoQy9OaEQGOwRDQAafqRZ+bKm/6BH7Ja/QoSfg4S9CjWvJhF6bkiDfpqMTbRqUBfNjhwjTLAWfkcENj3lExwopcNDYhs6Nxwz8YLwT85bscgh+gjpSv6OU2StW8Sfh+l9S1OMMQfOv/JTjDOF4uSbENbBATaabUfy3J07X8hvDbcfnpe/5MR6pKCzKw4DEWZrEgyqvKxZwqZvzov02Cii0VtMhmWP9pgUkt6Ta7bgj/jsetKhc88zh8g9n0USGPf7ZYaVL9/qt8HN/lkgNuIfGndbxtLJFm2jvx2boPf3lH+ZuPbcU7kVDITc9F8Hv9xzguKP5hp+k/58nUtjI9tUWidCUeHLs/fuf77V9bW9by4UsOfEqyYHwUl6Qwt/SgA0LbOc0dfzQy4P8Fxp80gW2hCfYfMTeGf/fbH1T+8qzO7d2oNoMzn/d89uZyMZ5b4oOFYmo34IvL6FfZmX2qYBAAADjaSURBVLGx7kQilvKLd14t3xPfD8+GkONSyrRs3K6QCkzg98ZfrCx+/mHM4BVUFqwRwBG2NmYB26Y+C0zRa5VyuxX3cj/tjdvkqUxVABeOpB956Yl1ZJ8uBtoNzYlMCBTMPjPs6r0oscqdlAYtBNnlbITVU8Lw4aLZ7TdDE8dx1Im0sxy9eiUePDu8PPIeh/RfOW562Sy/1nf6X38fd0nh+RNiWaMvxm21JxyJS1KBHyDWwlq+Cq96fhsWii/i9wrd0TemqiIomhvtf8KXNmp3BY9GRCz+59mICrv9Xwz+n+EDLw882V4BEv1U7zj+QvrPti0mKYLVYIHpxwR/I+bMH1+yqXztOotNGbTaPxZHx59+sOjq+98MDc4/zAScacxM88FbNbEOBztPfMAR5b543cexiGN373twhnHeP92krw6HqhyPUEpCIHR0+vhiGTqc/4w/VrbpYiLJxEZjKksFYrT/hn83LBjnnnW87hLA45sYrvoOLvd98qbyje9N4eBs9+Kz9WP9X4vXwp/3WyfY8yBN1xZcUA+bOgtM7LsklY7hUyXXx4Jhu4DMVUt1SxUMHGty8QusqjFKVbNDq1mqZoof/+p0eeUHtseOmVjSxB6+SFJvrEx9kHIQQxr/5RwGZwq8pdb5YLtQ+iNecJOsLwqau4umt23E5MOZgchM2fRuj6PnFz/uyHIS3i7L39M8dfvPE5Uz7C4p16H6xbiuP/xGWgjN/z/AtwHedPmG8hH5UEuLLy3V2djpP5dHTLeh/lsDxBIbylmJvLY59X/M/2ZjPvz7n3RAOee0Y8OvUc2JDOo8z/dg/Dlkk+/l+F+9brq85KItZTs/1I7Uxv8c428+j/G3kMpzXGVQHBh//p4hi4ZNnpU43jnphFXlUfc6vDwUb6VdhbOPS7FgXPBP63FJCkfo3flnTg783RJ/jEwgzBH/PMPgXVJUu+o728rff25D+dJ/bpWFY67+60yxTrDy4PybH18xYKfTfz5tfjZu9X3SA3EJt+d/x507r9NqYfvfQWsp/gcuSVkVUSLN7vRTbUhfJnscZw9Wt9rIcnB6lee9Y1vhK50VWg2IU0WBw89j/YGW0WyTUEtWCK1TxV18s15B0DDosGz9FxF4/E2DwcdrxhKICY8v3vwZTJi/xms+OFkkWeZqcpcUHty7ll9Rgz15FQqE3Qf3uvh8luI8fA6W3/qmySH82NNbR6XXfETbWhr9l8CGlYQv7aNh67Yu0uRqB0wUaovF/9tnHVfucLw/Z8KWEB9/yBRBTNdNx/9VoJRZ6LKr0CXDxiH98cJ//Ue3lvd/kZdzc6JzB8bfA2Vk/MVCx/90I33ORNrHX840cHlKkg0K5af8xEHl9089Ftf9N5Xz5QyDOyxLEX8+/mY9g4zizzP/sw22dGj+d/C5YPzJbxxX3oI7n973ed4diXbuQXzdjwA0tx34d8SLDl+O3y6O45WHTjJXd7hWDEejTJu9ZLWRLXb+xSUpsTnQipZVgaJzczTI63oe7W4YqWDkV66ZKS9413YcqWNhAK/6kaeGuDgCZ7KjjEAuvN3E3zT4ywzNcdGuiwt52OGysqzmNID/YgyKRqppHJcP4UNnahsf7oNVCap+A1bjWyZ8SyYvVfFbwKgS4ya/YbwWl6Tw4jatr6B6W23/ktRleIPnW3FW8R28SoSW5JZhD+YR/Np/+ou3Gjq+9kz6O0//WYN2sv+Xiv+Yex1anv/oNXWsskOydxo+Go3UsqzkTM9VNW1V4GLPQ6FhpEIiXbdlWcmZnrty5CpwsecdsRWTNJGu27Ks5EzPofw93Kb9h5duxvdNcINGxH9//Hc5/pv5h3jEBIzLU4xHJMfna8aPxZcl/+sHeC27iJY7/ggmkM3G8QnZnf8xyVP8r8PNJnzm6prv4/JTmFxI/IfyLuEP7X/Ysefj+a9H4qaCesXCBtyyzuRIbVCFUTUXSI1USKQba1kY7/jR2yWee42BXFXGFfuSLqeWg3LC8r/A22w/grfZ6lMVHGYKdAfCXHbDCNYVuKVwFhMkxw1LDBpJkplRMoSsZXkYjbpk5ehCmYvRID6iX58I17unvG2C5xCoewI+enQmFo2H/RxeM8LXXiLJgvHXOMOwb2nvxK1cbOslfknKmsZvJb/jio3lU9/YhjWtRVAVbWC+e0QAsBG5O4QF5Qzmjt/rP7RpQvu/dPw1+KjNpS9Yh28qaP9hEkl70FDO8lz0hjeqMq7Yl3Q5tRyUE54PQwtXVcYV+5Iup5aDcsLzReIzri757Nbyzk9vL7wyFQdStBf+RoEHRzI3OLoYV4u/3vhDtcZ/HX8xh5rd+bfTf9OQWJ1j/rE50R5QaI/MVRrO8w/FGn/SUlaURNXAR/3aOpfv+/j8XeWc047DQpbnjffP+i8eUl7eqn/m4lSNoJzwPFdPdP0NI5hegzmTBpYGGooubslUSgrgdlNIhYhSUlPed3HEdNb5W7GD7eKjjIDXYCIJSm6JZdggUKKB4POwhoqRNLg4BBTFxKEOy1SHbbVOBpMJZaKhKDk0YGCHPBGOS0uiIgapYHWQWfppfJbyD379KNy/foA86HPm6/AcBt7wmfFlwcBzGBu34neKyzaWv/8CnjaX1MUHEx3gnI+joXnwzZBk7J08cyGVra0GQQX1UGL0+g+lBeLTyjN/5bDyJPwY6im8I0SUXIzcecyZrC3hf2Mhc01q1VLLVVndhlSIKFWFsEoZ076Dz9tsn/fWTXgTMgcXaaB7Mv4c5dx/H27w5o9/2IU+q0QI2YSaxqKxUy5PUepGQUay+QcRrupCxRqYVOePPyjLHU8e/yjTjnYIRs3mPozPg6vzf/t4PPfFt6Cac/aS+LdXg7iTY2R7xLCGcz1vq/HSkT6Q5Ttzk0Pd+6/jO1z/7744XV7/Mb0u29egIyXqkLtBXzDUPm8AIz6DcJY5jbDE4GJZTEAHAcgjLbEDnhz1ROBJpSjRgiYqzsgLC3cil4E1LG9Oxt8fv2ncC0+UnoPv757BB/fwoJ0cWaELxL/4d0+Q9+68Gc9TbMTEl7YYEjNy2NxKSeONa9I58OXloXQ6raD/8tuJrTrd/svgCCLxNC0F/47rVpY3PXOd9BNetvbDHowtZPwdm3nFH+KOSHcx/oaQMq+2au/Bv+IbO8qr3r+l7EBc5fjL41/jH+22+BuO/9rb2kOnOvEnA4q5hTunZvBjOGd8i1/nX40/2Occ7cy/Gn/EIF71tBRk08FndM0Z//sG/v64M/nx9zmiPONXjsLt57W37vXKIeVczzvS3RD/cobRwEUhiLYVAyXXtP0w40F3xq7rCl7u5I04CjiCn8anFs/bUn64geGHxD08jSMx47U97ojkHmOUuaPXow3HR5k1jS8HImQhmURoWhQ2CdIoKKIqh+4QPhoytQM/hOPXbMXnTLXFSM2hSbWNh+BjLrx8sB1vHTU4yU/Eyw6/yxcSgjmOD4Neie2UYrW9EHz6ijWjT2ZSe6qF5cL/f6etLffFW3+lzQEAjE7SFhkzCkF0tPtF1/S48zw0XSEYLdGIoxBEqzxQck3H9TxUXSEYLdGIoxBEqzxQck3i8jenV/z9pnLFN/m9FUtN/Kv24PhThLSQ8SfW8PzDDSFTO/DFANxyK/awafANA5nBteEB5jg+Wk1gS9qHbvwTT20wzqWwD+HzBaR/8uRjcYOIn114b8dzekR6av3enfHXuySl4N4EbWTD67VmvCO5Nmmxg42M30i1Bgs6l399upzzfgQgzmHlyWTBtxeCWDyIKdCyIKAQbPeicPr4HTEqIvhgH1tYkScPwMKOnQ3GodgoPupM78AlJL5GBLXnx1et0JMOaMOlex7xFujksfUVHzX1r84flqG4t+A/AA9z/dlT1kq7dUT6/mevuqk7/pQ3PHEQPbfQpLWpLRQ2i4m/qGetEIdzj7bgtOfxv/Xf0+Wll2wuN/L14hI82t7a/xR/tXkyTOLe8DgPfBj/6oUcf1KNZkWGHHSOv5n4TQNtkBnR93+uToRm/skL4Mgbnn8y2VmnwTcMZwuAtJSa2isUffz3RvynPuSIcuZDcYOI+SzabWNyS8dfZ8GozvX21SEQn1c2BwDqejQg44qN6vS3yW5fmDhJL8idcsfUv36HvxVwV85gVyi5gwcFCX82xq4qiUHWZ5LJbUELXVlUGDE4DZbkelQN6yiQTyAnpFw1KGrwcYYxPYWH+8hskmiCg5x/EEsPSDAl9Wrd+FLFekw99E8nNOxAxlt0G/+zT+xbk1ju9N8bQr3dgM82vf3Zx+EDSZ3baJt2DRXYGGt/kEFIhVzaU/EXbUIL9gX87bj1+s2X6222Ols647/k+K/9l6iCM0bjD7LZGT7ctw2V/JIt9MFfTPwHIh2PUxo9oFPcGv/YvXbnv0QLN7sW/3sSn791nnvWCfo2WvZXpkIQ0qNcuiXiv7NghHt6jRNGs9Gm5w404k6hqy3lgcqZ5fTXvztbfuftCDzbu0nQyQ6XAaTBQ+cK7ZUSPldrvW9clhaxQrXe/hVMOfrgQJFGJmNmW+WAJ3oqbfARwTN4uE9uuQ18xdQpO4JveIIJmpOwwZdZCTzja2b43kYwh/u/5/Efe+/V5fmPwWdXwwfuS20z2ULVYmhmVqZDIQiVzq0TyopnW3Kl3kDlzMp0teSUSufWcd093//r8Qnk57x1A26i4H1ufmv1SPx5M9GZ8fhnTzWNxj9UbFq6Kk668a2bKbx/Cv94QMS20BL/x/yzuCZzED+vSsSQ+rSgtiTOsBmOf2rNM//3AvwDsBjyG913w0sGpT/mI6dR7KRO/zvSbrGrLWVlNqqZlWlXigVjSKhKeoSbhkZHW3oyVmuMT4su89xRNBC0lLeK/5oPby8f/LI9zIeo0hhCEIKQS0YSLazHhvmhN2niMDntQUu+n5Kwd8qnvmtKNZHwZBw2JZrBnQsf7ZiW14jAPvV7bYF9afMQviKO4rNlYZJtTv1HqdbO/c80dXYv/nF4lcGlLzhO+mgN6mRsg/eQuSbnernmPjJJI8ggqrpQY3wKXea5Vm1LynOJRkbSCDKIXAH0GJ9qLvNcq7Yl5blkqfh/94Ud5fzLNuFMmH52n7s1InbjXxFds+J34x/WGMM5/kbnHw6icHmKz2rorVFzxZ8ij+JH/A/Mf/ErW8zanZgXg25178OnLx92l0Pxyv9jcfu5er1u9674x4IhF1Zy+9TnEdhV1KXaIPeOmVYjRMF2thJXHLtIjWKdTx38G9bvLGecx1c5M+A1tTUd3wIjCWU5ID5PaRlLrC6HQiSSohQhpUwPo8hpUtbONO3oVER9gPA1IvxyH1MPXxrgQW1WBA/K5qcl4UvTbSeQGrcn8Z/7iDXl1Put7rgVjdnF8RdHdjapi3Sc+d+UGuGtE5/PY/zBRfw2Ch+cQ3A08Q+hzAR3FHOkXYk/VJfX0GAk+KcTTeN/Bj+Ez8zi7im83x/7RwIZvCmSR1LwKcN/0p1k2sLNNCvLnX9Sh3WhYtWH4x8KgmmKtyD+mkNXlpc+6dhy95/C22ij3UF0PFCLrcaeif84w0gttcHQ3Z8MBDzbHzqotS2OnnTZXtY8b6NKz1jtfqXefuWO8rZP4+4PmkCqMaWjHWNOmWiIFtT5g7EcdyBXe9o7MyS62i6txhDjKbTWioUAXDG8EHw50+BrBngxjMdyZhGNpj1OYKLURLq2WrUMHzNMnjehvneS2ijqnFKmi7RutrVn8E85cVV5w28eK72q6DVMtId5W3tftZRX+1CprC20mpqX7WoZ2Xm1csupqJWquka1VULcZXtZ87yNKiBcS3kVtVJZW+i2Sogz+5//c7q84n2byha8UE8jWu3NHf9sDTWWGv9q3RvE9jD+p6d34LbbzWJ57vjvzL9Fx3+eSbSV5v+C5t+exee7t577qKPi4V76rY56pdyfkeeBDmY3kmpZ1fM2VQJi9lpFrRS1ZcHwo/5GlOpnCKGTTJojZewiGj7Ng8E9Wt57kN1JC8VnkD0VZxk33Ai7cgGUhoiBjIctkpNHQBYoI76XKUtqWtSdt1TnlKIuEqq6SZ063PHbnVM0vRB8PqeBjzDt5Pt8WGckaf89SNECtoVnUiA4JoqvOc3UhxVpEBxhSge069IHHkFSDD7n/R7A/3PcRvsLvI02EtsGfPzNlRY6/jQkXZWNWyQGaB+sBouyWzf+Fvz095oPbymf/Hp9z1TjPriuG3/iWTCXLf7SmHRfI0IsWTygo4dUNl4IXx/SJc8/BobEP42z18PplsQ/Gq+EP++ZJ5a1h++P1rKn5qw0SEqmbZLRa/wLZ1l17Sll5s/hrgt3MfMvnWF0LDaNoiwzrGuZFdVTt0MehJlJ5ajXIXoqyrjsa7zNlg8G8agbdbgz9ISy73ZlH+k2xCO216SOHWV4tX5uAcaIBZKaSf0S3gLxoSsfYfJrYTIR1JY6g+g6qHLGII0hPhW1zWP4smYtpP/WA4nF3YT/4DvjBW5P1NtoI+zd/47PvgkvBNLbwU1PJTNsLDIrjKRxCnkQt0r8r183VX7vwo14rkn9X+OffmFinOe0sPhb3PwzDEDunMH3NOTuKccHNsVRJD4KyzH/BJaGMVHY4Cb+U59vAXy+jfYFjz2mPOLu6bOr3iQ2Wdo+xLjl4j8tGNrC3M6ggxhovMhUgVum2s9a0SnPVTNvVZLlQQeh+i9619by5Wt4NqBxxUDgyoxYkOT4enyuazZlom+5lGQPrVxZaOzj3373hhycYKNPxrIiFwkMlgXzgvGhv0Oe09CPsGj7sO3hg4e+yjKhJE5kiC9RXptMJWnLWP/VYbX/OHZz/Tn7vzT8lSt3lnc+Fx+Akk/MSjOBwlQHzinPVZ63KsnyoINw/cQQUsvcMqEXlqqeU567Rs1VkuVBB+HaiSGklrll2hvx33jZ5vLez+PVHdE+tHIs/qDE2K/x34m/eeNfUZr4g1foF8efxeWpGVyeEhBwqTvr8496xEeu8Q+KlX3+UeLxLAYXMP9RX7pLM/gv217/MfPQt/782z3498aXCv/gVH65UxClTdIdaZ/2X9qamSJLDCG1zC2T9o9U1XPKc0rbpJIsDzoI+pAJNQcbZoFBw6M6jhoKxhgsO9PyNksgbgMKCAwmr0niK9fOlBe+i7fZpoQIoyrXXulNtJ1lJEagveo5rFGkMYL+szIYCidVtKwMsxpVVSFt58PHnJvesR4macmsEQ74cdtBgJjd6EPUSETCJhn4tjSKLbadBDPQA/1fDvwzfnE13tt/ZMd3wGx8ybJ30PI26/dtUf0fwgPPk2DdevGncHbxO29ZX/7rfxgfyfER/5XtLlta/C88/ni77cwsv49t56S7c/6NxP8em/8d/INX7Y+7otaWh9zlMB+NGJal+R+1evMtLJntXY//eoaRJmeCic44VJY5XWWVcpnnIumJE2OR+K/GbbYf+gqP2GOJAJTb4+5f+YIPR4p5iGXcvFGib6u74ftBh4aw2WZ9zAMuSBwT/aWjajjqvPh8uI9nGjDGOlWfJDg8ajKu25Tc8dFUP0pi7aprE45WhVntUI887z9pr7cc+Cfg++Zvf846fOPZrTLvJ+mHdyrEiWH9D5ERruF5V85ylVWqqyeSnjgxbgX4H/3KNvmc6za8lkZTv/81/mucyIFYE/8q8xHnLGkjri3l+OvOPz3TwGtE7Cm8apM2OvPP4n/O+SeNrXWlnzDq8d/Ft/N5U6jtrrMbfWV99n8Z8R/ws4eWl5x6TOHCIWkfib+6YGizrfHIOHKeUlw5S/O+oM9pa0gJSu03Zjs6XSPdMtR/gNc3PfX1mwq/EiGrgAWtPqBn9tgH1u0mw5dva7hC6NIeFGQdMSaKFodyDVR9Qz1EEW5VXBQ+bMuX+1ZM43Rb79mS5hmUOD7wreEZH7R2ig3UWeyLCE2AU4cubIKZE2zwG8fLgf+ix67Btz9wG60lNo+wcybio9E6PQc0u0a65ajSF/Q5oVwJKN0a8TfgIb4/ec+mcvU1eIUN/D9//JvL4K82/ullxF/Ev+otKv4Svv4Qjo8w0SyjJ+LfAjjji47pWfwvav6xKmwsLP53Dz4f0nvr808sx+M7HIOJfSS0p27Z+eKwrKgubDmhXAn2f4nzr10wxFBqKweOkTKWUkeUTAzW8aLk3JCF3YTxXSwCFcrYB+I8+G/91I7yzs/oPeZ0AAONd3Z4zJElgS5ALFCF+NTB0YtmAs+dFy8X5SMQOAdlWTm0iWJHSVSVuKZNVloUPvbq03hhoXzulX1E8g8jzYmvisCTrlR88LVpdlwkbVLmcP8FUPu6C/h3ttto2SzH15aRg6RMy1kguXzjH/YDygEFaoLv7pBc/f+Zf58q5/wdDrQQgxr/yl9Q/Lk9uLeNf7XFgFzY/FMDGX/n9BRerbMFQ8oI0dSbf2RbbDf4YLKeRZfoMKyXff4vAz4/LXDmQ48qT3nwGmmx95WmycjzXyY4J/BYSuOhZGKwjhcl58Y8ZHwXi0CF8+LrgtGrWbHUWFJIZAAtlXBbnic7LSuVMgn6DLzN9vqbyIxYSlYsukLWKbstjlLcJqvVXcSSrMbQkcFsDuFV17fVep+jsqrByVC/3LcE/GrKwXwuRZmEq2nOrXZAyt7JpfQfBl575jHlrj91YIO3qELgW0NTZRcpK5USmdSXRrotz5OVlpVKiUzqSyPdlufJSstKpUQm9QWTfFPyuR/cVC6/Cj+Au62ljP8AosbYgAAslXE7Hn/5lltvGq0Nzr8BsD6rcpTqlB1kKf2vpthESX1W5Si1otzptqvKHz1pXeFX/todulvR3JvWK7WCttJiS27L81S/ZdWSLhhJUcmqEKIBlsiEn4RBBjHolyoNhEQMSAdYrHDZ1TPlFR/AD2cSkhgD0ePxUr04JUcbGLFsQnb+ZCBlvg6sHAcLXzX0aIVPklJbtyaBoRX4MXlJ+PxNAx9h0jfx1nboURaPmmqSE6gG31rdwfejEj3mYktpt/ZHOeCBoE2V2xU4FLRvVV81+v1/6CkHlT/8X2vlyp0aMsvhzCCkH2pX7Tum1XCIlNe6wRxgiUz4SRhkEBN8OCr7n5emnnHBzeXGDdx517gjrXrzj78e0UO7E39yUwfiVC+26giTp890pPGHKMefasIcXiEyPbUZ7Zgv/tlapB4+eIKf5iRZVLUcWS/+HV/1FtJ/WkFaBP7++J3vWb+6tjwO37tggxxTDeVtbqnxB1giEX4SBhlE9LtyWl9kZKWzZouPBUM/0ir7IsgGVIOXZU573gd1TtbIdJX7gzPkDGsMDDh0dXBLedGF28tXvsObzGuiHXkdsx3RiET3ulVJKIQ+Bl1+ikBZXy/A2j6g9uI21JWFRyS1nRpaZGodE0tpQfi4DjyFh/vwlQypM4zPCQcEQHiQEc37L5cBeD05pGyNX6NO/Kb/1cL8/W/xD8b3jy/CJ2WPWs2HjTKq9z7nWSPTrqP+35fjz8fEe9Tmuc+Zdq0933/G0cWf3VLedcXWMoVXdSx2/Nly74nm9ECKM5EvPf52Tm3DLbdbsaCodbE81/yTiUDdmlha0PzjTNnV+b9A/JNxCfcVp9/WbqP1tu758XdkzReJj9XfPK2Do5FgtFjMfDKyTCEXs43aIDBOzS5OSqIQWhUvWEEE7NW4zfZ338l7zF3GHEkG0nL95FhokCA+rylyTxx1xYTZYX2vwailQZxN8OiHf+I5qKoJ8qye1FF1r46bzEXuGuQHPs40prbra0RU37RQxfF5R6ye4XTwEwy1pWE+eVnfAQmGAovyq0zgq858/c/4T33Q6vK/H74GFRefvDlsyHKN/2JaMcHXCPlvfMb1Ze/ZWL7DTwVzLCQyECPiIPNSij8JqTnjH6Mg+tzY4kHSHT4a/6rTxZe7p+QjTGZLMrXdzD+D5YFbBSMoUsPSgjeH7Yr5t9D5L0c1Y/OvAevhH4DP57367BPKyT9xkLrJ8FlLk7VMMqNFkPlkZJnWXMw2aoNYyvwbuSQ10KwOAHeW7VFhNKVWFhZDQYY49SvpJm4mexpg5A5mfMbSqz6wrXwMl6cksTJPGeQBhwF87NjlK3ii7AOtVXWL02EA5P7xJ45Z2JQTZbYFjVG52t+Pl6XYQKal4AOPT4TLnSdAqSfUapJrUR+fQI6PvMGHSCbZfP1X+77VHozj327t/uVtz14n7s3+0QsIqf/uVh4Z7ubxpxcm+OoFGUcnJR/3/wf/ZWt53UfwQzP1mrTQ+GdFtb8fx3kZ4k+bofh8InxmipebMZ2x6cc/tR1/F+efAtuW0cSo1bSr+NxRPP6+R5RnP/KYZNGtG6uTEbPRAIPudV7e/6luquGk5NoTr6cwrtABTcWeBhiC72cYPbO5RcmQkz19F0jucJ6b0IueSyhoV3r2Fol/0+ad5bQ3bCnb5MuUBLDbTs3FggL2TllIIOYe2PHJl7ItbFDmw0Q8+5Cj+v6MkoASOc30EplLwAfODH7TkLfcYmcv133Z8MBwQgN6Lny9iiwrhrSu9h/FYNOeSKQ/sazTFyP4L37cUeWR9zi01ReEvHG7npvMi55Lxwbwqb7I8c/o6jB3nNoXueN6fivH5+WoP7p4Q/nyt/U2W8aCeIs7f4y/xj/Hwr3rxPzxNx7/sNWNP5ht51/Fn+FHmHCJSg+kvB1sks1Pb1IVgSJzEfNParCO959wyzf/b7v2gPKy31hXbn8cbhBpwlIxASz9ifknDMj8iIzlTurtLxu52/XchF70XPyk86Nnb2T+reBPGBolFTHsgaVH2m5U+1s1K5XrCLfD6BSryoAgsxaD/84rpwpvtfVY4R2x7DdbrQ4RWNsYz8A4WNRhCnx0WwKHMtLY8D08rsDx9J8Oog4Ji9Ul4aPBU1g05Ctlji8Ll+EDHGxtgrSJLdYyYQkvCtzh9/ofraSW2jCW2yQ3zgg6+He93YHltWf7UZKYiE1r2Y2HWLFqUSip06to7TLdxYw/+xCpY7dTFLUJfinfvmG6vOSiDWXDFp7TMg2M/7LFfzsK2f9zxR9WDLx7CmcaqMBZ6knmnxXFVghADMa/KzBfxPzvzD+3shB86p724KPKaQ9ZYw+3eu12/lXuXh7/foahDW7cDlYuZ9q6N8DyOirCNp9HuVdk5JvpPWIwA2R6RB3ssy7YUq75H7aCuz3FzztO8mSN5GiHGV8IFKMuHoYp0Vxlah2VyWKyaGe9WfmNw+8RgQIXmbTjXhA+qk3xI0zp05a68hFBwWRx6/hW8DFTmGtrEz7bybZ4/+1XfrHGDZOsrtShFi2oFRTlB0i+uvzOJ6bbaE0sdWOjzNh22ihqu3H8vc0TfNu5zuP/aZxlvOkTW8r7/3krHrZWrw2Nf44N+jjijwOqISlxo/E/EH80LRpD8w8SsTGOP4tLUzN4lYiGqkanhyctM7Hd3Ze4x/yjwkD8K1t7nPvYjf8s0/7THv5rg2hmEH/NoQeUNz3nxLJm9UrRkc0+HP/yG0Y+ilMvaPe1c9ja5RoZcxZF4P7KXsu0KTGTitiknXSSYiywcw+ZKENsKGJSNmqmSmy8VKb2dpZPfG2m/On79VXOtCDH47IjhB4x+Acy+CgTX06/BZOHJrRGAQIJMj4ViguoKBILEsrFBk8mGFpkaLgqTS01EzissBh84PLV6PgwsuKjLYpOMwRHGbD7sX3aYGypoXyBQ2lOfDkMgw66rP1nq9lO5tik/v/SKYeWlz7hKO8CFRxNdRNHyLyRhtOuGM4SrYU+LNf4W+NbjAk+/DHu/2/dMFVe/t6N5b/XIxBGxp83bTDemCL+QNf4p+drLIoeNnPGHwOPYYamzRd/xJfLU7x7im3kH+rW+E/zj+1kd+fDN6W4/CQ1RuZ/eitDzP958FfhNtqXPun48oCTD7UGsUX9tJz7P+11BwO+UIfsOr7+6E2DaVGw/eIgdqcpUZQ20Qw5TSFUguiJlxn/JRdvL/xwDMbYu1Xb1GseWiwRi0YgAhngXCSkJ+EIlnQ6sBPso/zAJw/7UcIzYO2V9l80dh0fVvmcBn/T8A8oacs4Ma1z3KmP4qM3nFXaHGhp0pbSgvZ3uP/QZT2kww7er1z6/OPLoQcZQ9nNVm1alabQqEmhJybjxyj+LBTCf10P7G3952ucLvzM5vKOT+nzTBr/HJPa8jb+EX+cXPPG/9zxp5ELkMH5N4zPh/tm5Ylw1GPMzBn/EVbQq31xUrs3hm/2WU3IzvxX5pz4D77r6vLSU48v+8FVObX4kJCxj8T/Cn0Ko9sddWX1Mp3KTkUWFZQ9InQtiOVpzYhA04dR2UG7nuQuY4E0UwXOUkq0bFzLvnH9bHn22/TuCukJ+D18HCZwYvB7x3LEwI0sFGaExofwoadHNaIgVeSIK7VRJd42NbNkfLRpejs+woQzDYHo4sM8Qzn7iPjsN9cKihiLs5jc8qpoEaq+9B+a4iPvv03C2vdSTv/Fw8rT7W20hkQrkrRs3K4wKfX6ry1E8wzfdb0vYZ0Ex6bJRMrNBJ/eGXGOewni+fy/A+H13DffVL7N22xtbLx64/9u/MH27ol/9slTGn/GKS5P+fc0tOe6dTd4LTlWogj/eZVAD7pQtp3z3PFPK6zM1OI381+kffyjcAnqD/FD911+Uj+7Op//BUY2ZitoEglfSyLlRrX7+KFgSsuFD5/JvacKnNuaEEfYSWNusqnPAhN8oEmlsm0UXe5OqeWFUH9z2Y7yni9MCQxPtB1O9ocsSdDQ0hg+a0CGAJUDIKHBofpAEm1vv+fQI3+X8TFEs9vxanT+a/BRkB294oiMgCnNiZ8aLU2u5sQCxSfd9sDyxmccE/5LphdMim3XZoEp2qlS2TaKqsbtCLsqzEM19VlgmuCrH8y7dMu/fGtHedU/bCw3b3En0U+Mf56NgmdzwSoio546ktuIv8oW6dLi31BG8PU1IvzEAayzaRnfqjIjfxQ/VZImp3abRWTzzH+x0cd/wv2PLGc9fG058IBYzrVVxGBiPUkK2sd3efZy5S2Garq1i/hYMGwX1FjtNIcqcBwHRlbtjniuYjU7dDaRalbFxDRyCfhTOGJ6+gXbynU34nIORwfXS3lLbawTNG2YMuaOjzz3UWVg9vovkrBhISMNjiObgFgGfDRW3nKL8CdyxpMiuboaavvZHyT1Os6Jh/qvKmJPooCnzuw/MmIcsHJFueAZx+J2QPxg1+u/VZ4nc1veEm37QKWq2BcuYfzdSDW7Z+NvX8SfhrMuvGJLuQRPgfPlhEwcL9lF9MZfJDVYVFPqtPHPc8iR+LPBUQwHg0kwyGNSGRQH8Gfx1b4ZXJ7SxErQ45+R5CsEGEuIf9afC1+tU4up4p904kHlVWfcRi7lKj7lPx7xN3BJip1DkklKgi7rp+qIvkxGydmD1a02shwcXkXyZcBfj1h68cXbyre+z50sB8xTF1/CwqLDdDr4pgEhlx8c8Qvl9rxOp0zfyQqldXYZH23ibxq85Za/mchCmCGtW95RQeUj2qYZ+DKx0DbYk1eRuI3khpWY439xxtpyt9vnb3S7IqqK1VpuqAAaU7LayHbn+Eub2KdemuBLsA/4f9uOneX1H91UPvnVbYWXqUTPtvQaE106Gn+i4RtoDsWfR89I/Ent0fnX4sui4Z97tWH1+BfNofkX8e/xlwLfOzmKPz7/+UmYn8WT3P/3ySeUIw+171zQdC9ZQ5Hta/Efl6SkT+7w1MGWVTsqUdMKe7Vc7HkoNIxUSKTrtiwrOdNzV45cBdxuwOn17797e/nm9Yx+XTbkWqYcTUPDg4d1UfQBlOMiyPSCnYhEQb4hIIGu+jzw6SZe0+WP4sQnTF1clgEfdvUtt+iPBHW/ARVff9jO+NHJOfp/9Or9yrlnHFvusG6lT23rInsEPMsiN2nNVGFUzQVSIRUS6bZalpWc6bkrR64CF3veEVsxSRPpui3LSs703JUjV4GLPe+IrZikiXTdlmUlZ3ruypGrwMWed8RWTFIjt2LReB9us33/l7aWGzfpGS1FHPg2/jFLBibAXPEnx9mcZHPEHyN6YfNP8fNbbtnKir8b5h8azjMudoHx791n/jB8Pe+pDzm6nIgH9ThP3LOes22SGkYqJHJQ1S26nueuHLkKXOx5R2zFJE2k67Ys+Dt+9HaJ515jIFeVccW+pMup5aCc8HwA11mqMq7Ylcxgr3/hZ6bL26/cIR/28qN+2msexst7dxhhEHC6SGzLYEmMSDMkHKCwArf7zWKBYPx4YolBK0my1CIha3lJ+AjYGT6ngX9c/JjnJNa9QSJyvH7Ou12krRSho6fc5sDymrPXllW4HDWW1Irb6mv1JV1OLQflhOd9s8FRlXHFvqTLqeWgnPA80PqEqowr9iVdTi0H5YTnfdjgqMq4Yl/S5dRyUE5Yzmcy/v36HeXcD20p3/0h7jg0dM/njv+6I9WKyTj3tDI3GF+I3E78xdEVqtT5VyN8DJ9vufXLU3POP+mHt2eO+Q89tnDe+Y/+HIkDrGf92tHlQaccIQ/nVesChk2XU8tBOeG5Vx3IVWVcsS/pcmo5KCc8H8Alq/6GEQpegzmTDmw69FYWJK4palFquSqr25AKEaWq0Nghe/nwr/nhzvKhf50qH/zydNnOz1R64BoEoeXoxDGlVV18lG2BkCN3TgC5vVB236jpfQJfzgBS10TKozQV7RI+rsnukMtTaIU00XE9z7iVZivlnndtPARYENGgu9zuoHLGg1cjX1X2x4vSdHRZT4yjiNxIyU2DLE2O67nz2zykQkQpKTmPOdMEX8biFvL/NH7YuPI/tpdPXb2jfG/9TFm/ebZs3o4zb8RPhFANaIyXj19LciSZJP4wppwaS4t/1tOo6OLPTOOAEM9pSBM8bggaSQ+u5JnVqGzGLNxUw2JO6rXxx7lz0KpS1uCS0xF4W/N9fmZ1efjdDyvHHM4H87we8+EU3sn9b1RdwxrkNm+h8Y8+Gb69GsQb2bS8KQxrONfzpgqCAms9DxMkTHjtzxLUvf8aX8P1XZ35sIZzPc81UGcEfzveHvL5b8/iFsLZsgnfBliBHb7cV04Uaa62OZw1iE8diboq5RkHbfAPYt6Axv6TN8uczSQA2iW/HYgJ6CwVH79lyHt2CEi7c+JDzEaxNZyt1EWD7rjuAPxOsaqcsGbkc5FsMpIhaCG2zvU8BEKM+d/9w9ao4eH62dqwhnM9zzXo5r0z/vbF/m+bmi0/2riz/HAjFo1NM2X7DsZ+in+Z0Bb/HFYM7m6P/wF8PKSBcccvLD38Gv91/iFu0IXx+VfjySNsJX6oOPzQVWXt4QeUY49YUVYfzHnj0qpP6scx/uQMo+luFIJovTBQck3bD3E8uD+qyRUqp6EacRSCaHSHCq7puJ6HrisEoyUacRSCaJUHSq7puJ6HqisEoyUacRSCaJUHSq7puJ6HqisEoyUacRSCaJUHSq7puJ6HqisEoyUacRSCaJUHSq7puJ6HqisEoyUacRSCaJUHSq7puJ6HqisEoyUacRSCaJUHSq7puJ6HqisEoyUacRSCaJUHSq7puJ6HqisEoyUacRSCaJUHSq7puJ6HqisEoyUacRSCaJUHSq7puJ6HqisEoyUacRSCaJUHSq7puJ6HqisEoyUacRSCaJR7l6RUrVVueL3WNPYGCtWWUNjIwciAJlkNluk0vAl+ZzUecWSw1XssCoXNxP9wYfinJZpYM1HDm8TfJP6ao+E2fvoljR7yhcJmX55/nQWjdq6eZSWed9q84nPHHTE6C6sxqzmWJawgg5BKuTTB17krPsmO6bl3TmHSTnpBBjHxPzyQvTGJv0n8ce2QmMiBkWaUknMKk3bSCzII0culWyL+OgtGZ0KgiWNHYq6ZO5B63iNVr2oLVYuhn1mZDoUgVDq3TijbRK/aQtViKGZWpkMhCJXOrRPKE3y4Qn7fsYgSvw04L7MyXT3plErn1nHdfrRKvYHKmZXpaskplc6t47oT/K63pDzgvMzKdPWkUyqdW8d1J/7vekvKA87LrEy7J2PBGBKqEu9r8B+zbPkI5SDcnuVjfIpd5rlWaUtmRrIJ/sT/k/jLi21MoUrkCQN6fDZVWavTlrK5yfybzL86/7Bg+KNpFiQROUHk6GnoVsMDq2uHZWjahTs/jaqGWis11jv8WiGoVmOCr4Ft7mmcg8LE/3K6PIk/vYwUk6hOOGVF3ARRVTtUqzGZf7eG+RdnGPXIw+PGu98JhBw0bcSEpMv2suZ5G1VAuJbyKmqlsrbQbZUQd9le1jxvowoI11JeRa1U1ha6rRLiLtvLmudtVAHhWsqrqJXK2kK3VULcZXtZ87yNKiBcS3kVtVJZW+i2Soi7bC9rnrdRBYRrKa+iViprC91WCXGX7WXN8zaqgHAt5VXUSmVtodsqIe6yvax53kYVEK6lvIpaqawtdFslxF22lzXP26gCwrWUV1ErlbWFbquEuMv2suZ5G1VAuJbyKmqlsrbQbZUQd9le1jxvowoI11JeRa1U1ha6rRLiLtvLmudtVAHhWsqrqJXK2kK3VULcZXtZ87yNKiBcS3kVtVKUyILhR12NKNXPEEInmQBJ2X/9UUCH9SPbzO3SE3w96pv43w9SECEpxpRM2ySbxB+cIf6YzL8cM5P9Dz3A2EBc2C8J6pP+djH733SG0THUTErKMsN2bZkV1dNuL+RBmJlUjnodoqeSGRN82bVml4T7Jv6PZSf8E8Qk/sQVyR8RNx2ip5IZk/l3a51/acHQgGjDwhanzJS4SgwhtcwtU13Qqp5Tnqtm3qoky4MOwvUTQ0gtc8s0wVc/5EXePea5a9S8+tD9F7pBuHZiCKllbpm8/gS/+skpz9VTeauSLA86CNdPDCG1zC3TxP/qh0n81ThxynP3UM1VkuVBB4HYwuPrPCPRIAvCzPi5CoohCqJCCdXlD5adaXmbJZAJvvoUDrKHhNxzdSAm/m88EA7y2EFe95wWW65keZtN4s/d446dzP/J/Ovsf+oZRgoOjxfmHkOeZ5nTVVYpl3kukp44MSb4EZzuM+buIc+zzOkqq5TLPBdJT5wYE/9P/D/wBLNHiOceTzmvskplOWmR9MSJMYm/fSL+6oKRRziNo7C75dDtC/qcUK4ElNpvzFaRUF0j3XKo9wV9TihXAkoT/LjSX/3iVNeJ3bLrxXIWjAFOlQU18f8k/uSNz/kUMKKjHiU5axJ/WEzcGTnvO6bPyfpG78L8axcMMZTaNrLqRxNS65RMDCp5UXJuyMJDIMZ3sQhU2P6oP8EfPOrI/vJAUl92POpFybmZ+H8Sf5P5N9n/YEeABch3D7Jj0J3DvPtfXTB6NbvGkkIiA2iphNvyPNlpWamUyKS+NNJteZ6stKxUSmRSXxrptjxPVlpWKiUyqS+NdFueJystK5USmdSXRrotz5OVlpVKiUzqSyPdlufJSstKpUQm9aWRbsvzZKVlpVIik/rSSLflebLSslIpkUl9aaTb8jxZaVmplMikvjTSbXmerLSsVEpkUl8a6bY8T1ZaViolMqkvjXRbnicrLauW2jOMqFAV5mKJTFSTfpBBxEpWOd0FKVCMyJrjrAk+PCCuSv4KMoiJ/+EmntFXj7S0xFGzyZomGGCJRPhJGGQQgVs5E/zsi8b11akte6yC8JMwyCAm/ocnlyv+sWDoR1r9967q5jpezvOcEqc9r9pdKmtk2vVwTzceLpngqz+GPTQ+4EP67tm+xSHtif8n8TeZf5P9T39v4fsR32tIbnfVQmZs5aLsv7JkPk1YmeQSUtQG0T6EmHFCCwiZT8AsW3wDojaICX4d5fCrOCi8VP0drCAW7/xqTeAm/p/43/cyk/izeSVZnmOZzymXZYufglEbxFLm38glqYFmdQDy79HaiGhKrSys9ORx9C/pBq8lehpg5A5O8LGzsdmmvkoec1Lyif/794O5g9qYy6WeBhiT+KsL3GT+3Urnn59h9HYrOSLyTDK6p9/o+HTzPCppxAU7CKybnWk9wa8R2fhWCz1/NTruV88n/hcPuDs8T0drPX9O4m8Sf35E1swtLfTipdHxAPPchF70fB+MvxX8CSOuPnX6xSKfA19hjot+ml7OerIOo1OUqsIbEGTWBH/i/0n86alknhd57pHuyTqMTnEy/9xnA47JrMn+p7P/8TMMiaBe2DWug0q94lgjTmvWrdaJbT6Pd6XRo7eMR+VczrQZGmB5HRVhO8HvDRuOAkaOHrsOzeVMT/wvHhhwyST+1Cmxncy/H6v5J79h5FVUA57TIV8gj+GXeeLLRuW2HFHKGypy5z9yijfBr6v4xP8SLIiXSfzJFJJJJhs5fCKvnW0qE93mAEs5shWXYjOZf8kplZzsfxa+/9EfvSXmNPCCpD89MqtvRynWY5IqTUH5edsTB6h9iLKnkGsP002VptDX74nJsMc/g2S1Sf/7zhvhND5tCv0KPXE4fTL+4Qq6bRJ//eAZ4TQx1RT6FXricPok/sIVdNtA/K3QpzCyU6WKMZJrjZ2lVNLyiNDNQty+u8mtDP105DK3zhwtH4FQ9ohwgq8egHsm/sdRVMwAixcEVeaGsxo9cifxN5l/TRhoqGB7a9v/yIN7nBDScZ9H4Q4lRtgdrfFiU58Fpli9VCrbRlHVuB1hV4V5qKY+C0wTfPVDDvnGUSZGNsKuCvNQTf2J/9Vbk/izqNHokG0TKDWoRthVYR6qqc8C08T/6odFzv/6HEbjVbPlmf9ICp2h37BcbSivZoeO5lKNqpiYRk7wEeCI8In/J/GHMIh9XX+m9Dh1Wk3mX/9sMrmrOioxjZzsf2L/M3BJKjuJ9HB4zuVfWbTMzHB1q41sdAGSQZrgT/w/iT+fSjmfzL+xmQEv0TmeBsNnsv8R7y1h/xuXpMS/A1HYsqqjZSFohT5EyFXgYs9DoWGkQiJdt2VZyZmeu3LkKnCx5x2xFZM0ka7bsqzkTM9dOXIVuNjzjtiKSZpI121ZVnKm564cuQpc7HlHbMUkTaTrtiwrOdNzV45cBS72vCO2YpIm0nVblpWc6bkrR64CF3veEVsxSRPpui3LSs703JUjV4GLPe+IrZikiXTdlmUlZ3ruypGrwMWed8RWTNJEum7LspIzPXflyFXgYs87YismaSJdt2VZyZmeu3LkKnCx5x2xFZM0ka7bsqzkTM9dOXIVuNjzjtiKSZpI121ZVnKm564cuQpc7HlHbMUkTaTrtiyco8WP3i7x3GsM5KoyrtiXdDm1HJQTng/gOktVxhX7ki6nloNywnMHG8hVZVyxL+lyajkoJzwfwHWWqowr9iVdTi0H5YTnDjaQq8q4Yl/S5dRyUE54PoDrLFUZV+xLupxaDsoJzx1sIFeVccW+pMup5aCc8HwA11mqMq7Yl3Q5tRyUE5472ECuKuOKfUmXU8tBOeH5AK6zVGVcsS/pcmo5KCc8d7CBXFXGFfuSLqeWg3LC8wFcZ6nKuGJf0uXUclBOeO5gnfz/A5zMC4U1zxXfAAAAAElFTkSuQmCC;" parent="5E6sWLluoOo3w7mo-r-d-3" vertex="1">
          <mxGeometry x="16.21" y="30" width="217.58" height="200" as="geometry" />
        </mxCell>
        <mxCell id="5E6sWLluoOo3w7mo-r-d-7" value="AWS Cloud" style="sketch=0;outlineConnect=0;html=1;whiteSpace=wrap;fontSize=12;fontStyle=0;shape=mxgraph.aws4.group;grIcon=mxgraph.aws4.group_aws_cloud;verticalAlign=top;align=left;spacingLeft=30;dashed=0;" parent="1" vertex="1">
          <mxGeometry x="80" y="340" width="310" height="230" as="geometry" />
        </mxCell>
        <mxCell id="5E6sWLluoOo3w7mo-r-d-8" value="" style="sketch=0;points=[[0,0,0],[0.25,0,0],[0.5,0,0],[0.75,0,0],[1,0,0],[0,1,0],[0.25,1,0],[0.5,1,0],[0.75,1,0],[1,1,0],[0,0.25,0],[0,0.5,0],[0,0.75,0],[1,0.25,0],[1,0.5,0],[1,0.75,0]];outlineConnect=0;fontColor=#232F3E;gradientColor=#F78E04;gradientDirection=north;fillColor=#D05C17;strokeColor=#ffffff;dashed=0;verticalLabelPosition=bottom;verticalAlign=top;align=center;html=1;fontSize=12;fontStyle=0;aspect=fixed;shape=mxgraph.aws4.resourceIcon;resIcon=mxgraph.aws4.lambda;" parent="1" vertex="1">
          <mxGeometry x="105" y="380" width="78" height="78" as="geometry" />
        </mxCell>
        <mxCell id="5E6sWLluoOo3w7mo-r-d-9" value="" style="sketch=0;points=[[0,0,0],[0.25,0,0],[0.5,0,0],[0.75,0,0],[1,0,0],[0,1,0],[0.25,1,0],[0.5,1,0],[0.75,1,0],[1,1,0],[0,0.25,0],[0,0.5,0],[0,0.75,0],[1,0.25,0],[1,0.5,0],[1,0.75,0]];outlineConnect=0;fontColor=#232F3E;gradientColor=#945DF2;gradientDirection=north;fillColor=#5A30B5;strokeColor=#ffffff;dashed=0;verticalLabelPosition=bottom;verticalAlign=top;align=center;html=1;fontSize=12;fontStyle=0;aspect=fixed;shape=mxgraph.aws4.resourceIcon;resIcon=mxgraph.aws4.api_gateway;" parent="1" vertex="1">
          <mxGeometry x="195" y="380" width="78" height="78" as="geometry" />
        </mxCell>
        <mxCell id="5E6sWLluoOo3w7mo-r-d-11" value="" style="sketch=0;points=[[0,0,0],[0.25,0,0],[0.5,0,0],[0.75,0,0],[1,0,0],[0,1,0],[0.25,1,0],[0.5,1,0],[0.75,1,0],[1,1,0],[0,0.25,0],[0,0.5,0],[0,0.75,0],[1,0.25,0],[1,0.5,0],[1,0.75,0]];outlineConnect=0;fontColor=#232F3E;gradientColor=#4D72F3;gradientDirection=north;fillColor=#3334B9;strokeColor=#ffffff;dashed=0;verticalLabelPosition=bottom;verticalAlign=top;align=center;html=1;fontSize=12;fontStyle=0;aspect=fixed;shape=mxgraph.aws4.resourceIcon;resIcon=mxgraph.aws4.dynamodb;" parent="1" vertex="1">
          <mxGeometry x="285" y="380" width="78" height="78" as="geometry" />
        </mxCell>
        <mxCell id="5E6sWLluoOo3w7mo-r-d-12" value="" style="sketch=0;points=[[0,0,0],[0.25,0,0],[0.5,0,0],[0.75,0,0],[1,0,0],[0,1,0],[0.25,1,0],[0.5,1,0],[0.75,1,0],[1,1,0],[0,0.25,0],[0,0.5,0],[0,0.75,0],[1,0.25,0],[1,0.5,0],[1,0.75,0]];outlineConnect=0;fontColor=#232F3E;gradientColor=#60A337;gradientDirection=north;fillColor=#277116;strokeColor=#ffffff;dashed=0;verticalLabelPosition=bottom;verticalAlign=top;align=center;html=1;fontSize=12;fontStyle=0;aspect=fixed;shape=mxgraph.aws4.resourceIcon;resIcon=mxgraph.aws4.s3;" parent="1" vertex="1">
          <mxGeometry x="105" y="470" width="78" height="78" as="geometry" />
        </mxCell>
        <mxCell id="5E6sWLluoOo3w7mo-r-d-13" value="" style="sketch=0;points=[[0,0,0],[0.25,0,0],[0.5,0,0],[0.75,0,0],[1,0,0],[0,1,0],[0.25,1,0],[0.5,1,0],[0.75,1,0],[1,1,0],[0,0.25,0],[0,0.5,0],[0,0.75,0],[1,0.25,0],[1,0.5,0],[1,0.75,0]];points=[[0,0,0],[0.25,0,0],[0.5,0,0],[0.75,0,0],[1,0,0],[0,1,0],[0.25,1,0],[0.5,1,0],[0.75,1,0],[1,1,0],[0,0.25,0],[0,0.5,0],[0,0.75,0],[1,0.25,0],[1,0.5,0],[1,0.75,0]];outlineConnect=0;fontColor=#232F3E;gradientColor=#F34482;gradientDirection=north;fillColor=#BC1356;strokeColor=#ffffff;dashed=0;verticalLabelPosition=bottom;verticalAlign=top;align=center;html=1;fontSize=12;fontStyle=0;aspect=fixed;shape=mxgraph.aws4.resourceIcon;resIcon=mxgraph.aws4.cloudwatch_2;" parent="1" vertex="1">
          <mxGeometry x="195" y="470" width="78" height="78" as="geometry" />
        </mxCell>
        <mxCell id="5E6sWLluoOo3w7mo-r-d-14" value="" style="sketch=0;points=[[0,0,0],[0.25,0,0],[0.5,0,0],[0.75,0,0],[1,0,0],[0,1,0],[0.25,1,0],[0.5,1,0],[0.75,1,0],[1,1,0],[0,0.25,0],[0,0.5,0],[0,0.75,0],[1,0.25,0],[1,0.5,0],[1,0.75,0]];outlineConnect=0;fontColor=#232F3E;gradientColor=#945DF2;gradientDirection=north;fillColor=#5A30B5;strokeColor=#ffffff;dashed=0;verticalLabelPosition=bottom;verticalAlign=top;align=center;html=1;fontSize=12;fontStyle=0;aspect=fixed;shape=mxgraph.aws4.resourceIcon;resIcon=mxgraph.aws4.cloudfront;" parent="1" vertex="1">
          <mxGeometry x="285" y="470" width="80" height="80" as="geometry" />
        </mxCell>
        <mxCell id="5E6sWLluoOo3w7mo-r-d-17" value="" style="shape=image;verticalLabelPosition=bottom;labelBackgroundColor=default;verticalAlign=top;aspect=fixed;imageAspect=0;image=data:image/png,iVBORw0KGgoAAAANSUhEUgAAAOEAAADhCAMAAAAJbSJIAAAA/FBMVEX///8xwvL/zADtMEnGKEL/ygAPvvH0/P/GJ0H/zQD/yAAkwPL//fT/9NH//vf/+eT/9tf/3nX/44z/7bXsGjrDFDbEHjvKKUP/+vtx0vX8///r+f7/4oX/997/++7/55v/2FKK2ffoL0jVK0Wr4/lVy/TV8fztKEP/7rX/6aP/8cb/zx//773/1Uf/2mD/3Gv/1DruvcOb3vj3q7P2297F7Pvnpa3DACnc9P366Orqr7fdLUb0lJ/uPlXvSl/6zNHgi5bTVGbdg47QRVradYLlnKXWZHPLNk7fhZDbdoP11NjOSl3ww8jXaXj1nafwXm/sCDLxbXzzgo/wWmzYtpntAAAIt0lEQVR4nO2daVMbORCGjW0Zm8G3x8RgMLCG8QkDwTHJZhNYlnhzsLn+/39ZjfE9R0sazUii9H5KqlKFnrS631ZLNomElpaWlpaWlpaWlpaWlpaWFpUKpU63VWlWWt1qsSB6Mdy122vaSbTQTvK4kn9JlPlyH6HkuhDqNw9FL4yTOrYLbw45rIpeXHgdNpPeeDPIXKUoeolhVBhc+IRvhTF50RO9TlYdVfoQ3gzSbu2KXiyD8nD4VgN5WRK9YDoddQnDt9TOsKNOIEvlHC3fNJCq2Ed1SLE9NxiTxwPRy4dUrASaAwFkrnUkGiJAPZrq4h/Iy7xoEG8dtezweDNIuytf1SldhtyeG4zJslRVp9CxdzjiPTOi4UCW08dhk8kcCCD7UjStg2Ou23ODUXjTelSJKHwrkH2BTWvvkoM5EDAmy0Ka1t0uN3OAGdGwE3fVOWRrPUNA5poxVp1C1d6Jl2/KuDPsxRPIYvTVxReyH0PT2ruI0BwIGJOXkdrHbov6YBsBZL8b1WbNl2MxB1goGcVRebfDfrDlL4SOq3wDediUYHuuCzet/KrOQKbwLYUDyaXqFGWoLn5Cdmj76PE92PIXypVDzDwK9FNPAULIZrzfKcliDrCwfVA3rYXOsTJ8jhC6oJp5FEnvVGQSRdPaUyt8S6HkBUHVUaO6+GrH7kD7U2k+R2gYnI990QsML3QcBNhVPYKOUFAvdyx6dTyEygGEtujVcVHQNh2KXhwXXQYQNl9EHgYZRlH06ngoF2gXHe63ZLELAX1N3u8RmhrC5374lMH4VkQGEb9XkWuuRirnAEVxDwc8KZRPKEl/X9wZKgPJ/NKoJN+U1Euhrvt3q7KfhnH2hb1zK0b10oKHUI7P4DvS5xbswtnH76btUL7RFLJbNNl38+UV8C8KA5ky0sk+iOm23R5tP//x1Z1pmuP7KwiS+N121CJ4YrPfPssYhpG5dv7ydmJm0+ls3azf3UD/LwOxd9xTvBx8z31+YhhbU2VOcAQ/nKZnMk04kIKvopDdhYrnQftszucgjhKva6nTvTlj3Uz/DQaSyztZJjwEv60dNbaWeFhGI/EhhbVAxLt1/PAOzEgBgUQEz2oPrrcya3yOEqmp/kgvlTXrBIGM92KR4Jpwe9QwXHhLwtSf6VXGuvlVokCShO/2ZMuTb0m4juhkpPn5CxTIfByBJHiaOPUGT7xVwtRpdp3Rycg3YCC70U49nFeJUPiW3gAQrpTUZUbu/QMHMrqpB84+KHzr3gAQrtebRUbCgdzt9iMY0aEdG3xUuukNIKEHohPIMRzIUplzRuLwQUMlT2+ACDfrzbzsjB8e3wI/76jLb3xF8KgLewMJnpvQVW+WHvn0LaZAohw4E/T3BpjQo94sMnICBrLg+6lm8vDZ0KOKfbC4BBN6J+M8I5++QWWnVA7RCKB+BQof4A1EhP6ITkZOHqGOjnV8hZLgm5iDIGunIPSpN/NAmp/AjGQYKBN8bp3EGwgJU6cBiNPDMpiRdB8lJRjpYm+g3J6BhL71ZpmRn8DDMvGzW3ikuz2i350A4eqR0ScjzQk49SD6xgF4pEvjDRSEQfVmkZH3VwAj9MFg+GO/lN5AQwgjOhk5Jhhf+Q2UCT57d07auTARBpbUJSRBRhZb7kYAJYdQ+Fi8gY7Qr4VzZ+S/YCAPWxe55TfwoH65G403UBJCJXVltz68gxhxK5DvdB1V4a8XYvYGWkKSZJxBmmN4fEWoMN5AT0iM6GTk/TuwEYB1fsJndxITEtWbmepmGh5fBYcvrDewEBLWm3kgzQk49fAPn/fEM3JC0nozh8QZyRLIg2ue2UdHCLdwm4Ecf31Dl5H7PgPr2AjJ680ikPWnjxTh4+YNzIQ09WYeSHOPKJB8vYGdkB7xeQ4JTT14e0MIQsp6swjkw6M/YwTeEIaQtt4sArnnU1lvIysuzITU9eZZ9bpnOo4izT5GQpZkdBA/e0UwHj5aQjbE7NiDsCEpIVULt9DYY5tmYgKkJmQqqWN3Od2Wl5Ch3mT3PIxCZkJqRPNRNUK6epM17z0KjeSEFIj4nHHn1dTITkg8osJnRe/uW3pCohYua5p3fqcLBQjBeoMbUl8+NQiDkxHzBd7AKUEYgIj3JzCPUoPQr95kzcmbQDx1CD0Rsyb8QFUdQne9wXzgVZRahOuIdXMCvmJQjnCl3tTNe0I+tQjnR8b6+BPFqFspQqfeZOn4VCNMpUzzifLyUC3CmvWe+nJUJcJa6j3Dvag6hLXaf0zXhYoQWrW/XjNehypBaNU+sPIpQYj5CNpPdQkxH/ikTWVCq/ad/IJXQUKr9jMsn9SE1o+f4Z7MSE5oWb/4vO2SlBDzcXjWJS+hZbG0Z+oQ4vY6hP1JT4jbM7b2UxVC9vZTCUIcvzDtmfSEodszyQmt2u9I+GQhxO1L+PZMYkJO7Zm0hJb1k9fTeykJubWfkhJaNW7tp5SENZ7tpwyEf23w8W7PxBP+stb4uLdn4glvfizTLza+WAkTr2vWjC+i9kU4YeLj7xrW9zj5YiZMJG6uriK2P3GEZzGDxU5onLx4woOXTWgYI1GAsRAamcatMMDoCQ1j61rYDo2B0NhqiNuf0RMambO20PBFTGhkTs5F0zmKiNAwztr7otmeFQUhLi4nAovnhvgTYm+YfzOyFOJMKNwb3OJKiL1BiuKyJn6ETnGRLHxT8SI0DDm8wS0uhBJ5g1vhCeXyBrfCEhpGYyRt+KYKRWhkpPMGt0IQSukNbrESyuoNbrERSl5c1sRAiMMneXFZEy2hhI0nIDpC+b3BLQpCOYYS1CImxOFTwRvcIiN0vEGmUy2NSAhV8ga3QEKcfcoVlzUFE6rnDW4FEaroDW75EirqDW75ECrrDW55EarsDW7tbxLiU63K3uChTb6XUFzW1c6s7E71vcFD+2ezr6ST4DIzIm03pr+D8YV4g7du29ftl1VctLS0tLS0tLS0tLS0tLS0otP/sXZaz4evhoUAAAAASUVORK5CYII=;" parent="1" vertex="1">
          <mxGeometry x="451.5" y="90" width="80" height="80" as="geometry" />
        </mxCell>
        <mxCell id="5E6sWLluoOo3w7mo-r-d-18" value="" style="shape=image;verticalLabelPosition=bottom;labelBackgroundColor=default;verticalAlign=top;aspect=fixed;imageAspect=0;image=https://www.drupal.org/files/_brand_assets_images_logos_zapier-logomark.png;" parent="1" vertex="1">
          <mxGeometry x="561.5" y="90" width="80" height="80" as="geometry" />
        </mxCell>
        <mxCell id="5E6sWLluoOo3w7mo-r-d-19" value="" style="shape=image;verticalLabelPosition=bottom;labelBackgroundColor=default;verticalAlign=top;aspect=fixed;imageAspect=0;image=https://cdn-icons-png.flaticon.com/512/2111/2111615.png;" parent="1" vertex="1">
          <mxGeometry x="449.5" y="190" width="80" height="80" as="geometry" />
        </mxCell>
        <mxCell id="5E6sWLluoOo3w7mo-r-d-21" value="" style="shape=image;verticalLabelPosition=bottom;labelBackgroundColor=default;verticalAlign=top;aspect=fixed;imageAspect=0;image=https://theme.zdassets.com/theme_assets/11652238/65e44023b157c8f8978c5fbdd731f1ebed473814.png;" parent="1" vertex="1">
          <mxGeometry x="561.5" y="190" width="81" height="81" as="geometry" />
        </mxCell>
        <mxCell id="5E6sWLluoOo3w7mo-r-d-22" value="" style="shape=image;verticalLabelPosition=bottom;labelBackgroundColor=default;verticalAlign=top;aspect=fixed;imageAspect=0;image=https://pbs.twimg.com/profile_images/1235868806079057921/fTL08u_H_400x400.png;" parent="1" vertex="1">
          <mxGeometry x="472" y="368" width="112" height="112" as="geometry" />
        </mxCell>
        <mxCell id="5E6sWLluoOo3w7mo-r-d-23" value="Flask Server" style="shape=image;verticalLabelPosition=bottom;labelBackgroundColor=default;verticalAlign=top;aspect=fixed;imageAspect=0;image=data:image/png,iVBORw0KGgoAAAANSUhEUgAAAOEAAADhCAMAAAAJbSJIAAAAhFBMVEX///8AAAD19fX8/Pz4+Pjc3Nzp6enNzc3Z2dmoqKjw8PCrq6vV1dX39/fCwsLx8fGHh4dfX19+fn6VlZW+vr7j4+NPT0+fn584ODiQkJAkJCR1dXVERETJycldXV2xsbEvLy9ubm41NTUcHBxnZ2cODg5BQUEqKioXFxdUVFRxcXGCgoJHaA7RAAASgElEQVR4nO1d2ZqiOBQmICCIiKwiKKKAWr7/+01Owk5AuqYs0/3530yNOkwOZ1+SCMIHH3zwwQcffPDBBx/wDNnJ4ntkSu9ex6sgfSHkyGqETst3L+VF8BFS4J8uQv8miZgwlf6Voft7l/IihOha/nVASH/rUl4EB9lKECTu4ZD9oxQaKItQhX+SQmxpVhWBu3/TYSzR+VxSGL57LS+CVgup/O6lvApJSWCuvHslL4NyoiR6717I67CkFDrvXscLsaMkWqWcLsR/zqrua2tz2ecltf8UkQFi4F/yHS6LQHR897J+Dg6TQJS+e10/hU3GJhAl717ZD0G9jBD4r3hHpo2hiDfvXtxPIBwnECNYv3t9/xvLIVW++tXIbZ4m8t/NSWNIoY0jGiO8NR9ciq1j/r06qQ0oLKtRqt/9OHfE96702zgNSKxSqKT/hfrWhX4bjwGFpaPXkoEV+jsD1VWLgrsmS3qMTPJFiAaO8u8MASp/mH9B3wK4lNHSN8MIBW9e6/dwJGu/Joqbnm+3k5/a+BPg4qIivaFwf3wc/jpJVejar9tdh1uRsQQt9B1V2XR95kl795L/EGNRN1Dp0oimL65X481r/iPYI9QVYekasFAOI/O/JvtfmDsGcXlquU1VUfdYbN79Ba5Rcq37frj0wjEW5HuxCmFSac1Kr1LeS6usrL5wWpxJ0J6KYliw/AYC52lwHMelA+psVVaSMI2v+93RMheCWcU2GsrGU6yMV2ntRZx7x1sm2bX9ibZBZRyKqcvqWuPejyxnZRqyB5APCWY8l1lH3KUw0IYWJ8P25QK6BilG8YWuX4HrSQMbCqmJn3BnWpWKjMtxOyZ/CNiWq4sVusWW251gMEKz+tOjP444G3FYU6GzDS+5jlJIsQ2NQVsYh+Q1hfXL4oyREG0fZdkarbJRLloHVgHDtZYNMa1S8omrzENxA4vhDVsogjELUrSZ2tHoMz+y6lnTzMtcTMVC1sJHZD9W/f+49XfHKJ8vvHTn9LFglGBnqeDIl1/YpwObbxP9mW7WIUuGn/0aFRNgd2EotppCdeyBtgb+y115EwakF+vsD9gKcUDimIDuj1orK5ozV4MjvyxxE7upZd0VYf/29DFiEBdnzqHSro23mPUcZYUdjUv/loPK4JxxgPDmMjmDg3Y7S1jgBPdpNUZMUlJMtZuPZIeGRZjU9zJxUALFsDq/gGRw0iLqSR0HdZ2Dp21zHAaFb0049KaqdPND06NG5+qW1kR0sawmTjCW+olK8mh70V9b93zU1d/0QExJJbMR+VbEq0/ZplORD0F0b97PNsLh0O73Fj4XYiWXFZPKPLiMMgn9cYtETz0YqhlE/q5VUQSTiVm9OaHtrxPwFFQLr2A2ZXO5qDODUhM91ar5KeharzNDsIs0V6Xqd+BxoJh4igJbcx2vPrfWtfffV6m6ntLpPXVYfcq3mtEW4fX+/AYSnoC4ZuAgtoY2Xa1Sqmbt4dVIEcwh+47uIAY45r+38rkAbfoSiHBear8uHZz40Y6m1XhAH1bP4Vzmg0NbCkuFMCRpU9jDkD7XCPwbDtD6sUrAIYX70m5C6ayKPCTFk10r86kQMuSTRGGioWVW72kahxRCMAKJOHGDZZhdmlOEIxEvOLcp221JqcYde5qG+CuXQvECshta/qRLL32k341WCKBeyg4A9AN5Gn9lb1I2Uuqm6Basx4FhViqMpob3fAGSwE/RogaIqdXKgX07uo0TaI49RkZoA3VzDgvepOrgwQqfoxif27fQTbCl4/greCMgVDk3RU4WSFiQTzYkLiiSkLBDo0bojSBadxuO0DSwBF1Vl5PVXWx+3UMhcjqaMV0kRbNyPvyavNBZcjqaMTINHK8CO92e5lGIDZVyNfCTHi9f7jegj7BuCx5OWKdzdEtDyEFCweuUNCvro3jIoGJF9cNxdw7OJhSMI6eT7sNZRApzmWgkg6yYqE+5Q8i2DBT/0pr/DGNi6nvlwOWpsqPRaNgZ0ddw4zAFBtxHxbRElXUc4tHCN6V9t/+N9f45JibXKaoS2gLl08XdY87nnlrGZHcPZXIs4T/PU2MIX5xuV5CeNbYrP67jH16muBjxuuU0nSawaY8toml/ECFOR/jG+4fbMEjKoS+BtKDU026iE8Vl+gQY8xf7RuYkHYd3ewc7fXNCEI98ht4Ca5qS4ND8YolOruBpyJ9kUsxL236A4XQ+Qdv0Y6dZqIIYnPyJSsWp3UDkCkxFvO+qEMZelRU4KIsb4Xh8ekEcNO2Z2DAIbHHDgwqiCR9eJktNCuKxN0NxHlLYlHuXwMCtKJiP03QWb+CAYF7P//fBmKfx6y9VW1BuKFdhjHjSWqoRynnd1sbq5pfOO8R+Yq95eWla9Uk55fewF1at7SIJkgiit8JCfFUOwYxSYcxpYIrDMYYiolNwR6mK+ZvFdSP4Ce5c1hMJxreR3Nd0p9esx/h8VtsAKzZ5YYKZuwlmU3hB/Y4bN2DniNhuSjEqwNSOBytWS4ARty5fkFj9GBJkitCQSZyq3ysPAu/rpf4THOLvrPcb8PHr7xFYskPt8E92hK4xUVrnEFhzpfkd0LBMdsPTMgAzgks765WQEHdCMyzfVmVeZN3n1iHCQjMhbVNI3R9E3BDe1MdgIlNF91afhgzN1nmWw2WDjQKvc7HpzHKRHXcu4ebGrqUvKoRde7yrS+EX6g+B84MM6qLd+jfU1VT8z60Q1Ccp4gDgkLQbFKS5SjVRStacNmcIsEe8YcPYNTaqsLlBPOM0XBPRVUKtiVMxr82LBs3UYvhoTqCQZfebGArYRxvzsGHNFmk2avX0C1RNzh5RkHBsTMlWEF0YuETsKSOsjYRnamGCZuY2JZ6CvBRIRMRbBBO5/E2cVAgJQT2niJNC5axhZQOH4BFSFvuON6Hjf0CWB66/aNevOAMEbjfJa9NXVAXeBVBogMZd6q5xbWzEPWgwfgCUwzN+Y29BAl4k3WT4amEH7tzTADvL8otIkIhPaYXYAT3ljAR0AY+DwhVATK/9ZltulJW42soGMJgQJK0QW2odPGQ07Ub+IFOT0U8zlL6BVQQXS6I6YlG4Pi4L7H42aOzf6zJOXjGRYIRVZ24r+0KZBiuD+rBclYwf1MZMd0ltbuveGOuSQz0KwdnTTWmelGRFOK1nCddHD39hKvYLIe1SSFaskBR5xnSlgjj2+ZRTCUtMsdc70S+f4sRxekFtzbXeSVMBTIvyFRJ/8fx8T4tnj0htjdbfkrhbC0pO9+PPKJyqPAffAk6BiwcS+wd7XMLWBOMzLooXjvN8MuSlxPfpIaJn0wgp2aTCK3BcE+jImZyKfianOL3itccG8HH2ENAcdwzPRrsUxG/3QiB2whSuKMvHKbw8e0bMtTUVdshnthMb+M8eEXDt9IE6j9X1bmHqPz/gTMrgdOC7xOKKQ+dpJpaBzYZV3iZTtM919a0gMjZJ4QUnvNIav4YjdnxaTyCPOMg7TWyv4QALqFCkkySewugSkgDoCzOt6xpkdICXxOc8dAmcBers48raKGhZzhb8XrZ0TMi0I6dTigQLWHfxlMTSZXoGune4aGABNRHfDiPEmji1R6+DEBverv+Q6HZGDnfq1dChODN+5lcXOzC8XYZR7nLb7wZgTTTFiaimA7nTqBGabbacTtMSiDd0pqN6M7Al8UHLZxjH8tyW9xHwHA5wZWTqdLvUuvtMCT2dIEaiGxx4jr9B8Dx2lphdoGwjB71jB3spFSn15BwX3aDMHbNnwXQhoRKpd8S4X6IipVVux4cAV6jXeH3y9iu7bp4t2znkMNK+3X2+PYZLrIfaJ7G2mcsyJMjjyHZcxpavINA5NzZ30rEY7Imq9K3JPgq2V/BMeEu8zu4DIDLVquPL25am+r6xQxHLomw8oowcN6KElMhpXxUjjUjkOt4em5DAZ1SeJPgs4fHoqBowwF/QXkYbpU3pxgPnsb2XB67taUAsyyAEP9KGr9iZacjHQrQt134fnPqyfyjfHd1K3eqWOo7JkjWnz3cr6kDltCuQ0SIsB0oGxRzmyTUBx1NS1NhY/QFiLKX0hGBpeF40o8SGf8VxU5hs2zMG+6LqgeHh/Dujv6i++2jISYAgXqWhV6x2d6UDEhn+L+U6VfSpnA47NQ/iH2Dcr1DbASpjFy2MB3A7OUw308jMPfvQy1YrxWxUkrHFFAv5nt/LzGBaaMs+WuIuCx7dfaq1Tj1j1fMj1Bmc5gywcnWYR1FR3UiUsBgrmkvnwvoxzBqr7PrKc2EK5PQ6uFqgplEuv4ixL3SB3H4l2IMzsuAF8eszEiKGT4+WQBcNTgcdCuMZDkB1R+SXD2Cvl4tjO9q7HGXlSnQeE94QtwNvmwskvtMXP1bYDj2flJPgGwo33DakID5VhXQWieg8CE5VmiQGiGPP75CWpxuzrkoaYq/1nJ9W397Cb0fqXprCkW2KGK4KqbKqyxrm9cXpJlIBDUy3HHNRvJVKNIy199Tp31S4YSE/qgINA1iXeJGmJK8k4sWR84P6W6LJRhPFhZtYMZMVLMZ3EzsNY+Wj4R2e1HXyam60csqkl/FXblw6ZCjFpB3CAg7QtBysdHl/CrNMwngdzowoOVJf/+ofGDtywFs79d/1dpeUPUlei1Mxffv9ylTLjYPLO987p0x2d7JVg6ucxqgwJAwcc3ut0/tKqbyDRbbud7/tlFKrekjBZ3UKwmcQO93t3+i139qBaaj444ekON3TNOOOwamrWnzaG6Na2aBh0+C60nvWqOj4jZrE5+PU74BZ6h2jyjaB7rxNnWnGXEoqxDRgCfXp0T6CvWMdaVLcPZZHrKc8uMw1IHz2IWtnk3hqFeUgZxKVAIjs2c7an2Q8spEkUdikrplHD+/XUpMqQ7KoXYjl7Z3cuqmDPx4rqRWJCvPc7ysOO5PSmEIDuKrR9WfD5UpUJ47QfhvIDIIJN80ErAMXC00RywIquHun/M29XzFdVm07mz9RJXJIEr0FO/E/V25/BxGCHFj2IzSHTVRdKyWdvwJOUpM45RkpspUxUSn1qBgMYvRJLO09Kl4cvpuloGLIc8bfrn5mWxY7jPFcENfb7AsvldJKvTi2XYKZoXMWs8c0x882JY+4BrMux6jbYK8uv+qgQqcVmI+5Y5oT2kY9TB4+7980vuj1tQK6v20XrGZGcJMzw9XB8Mcn67bmPe6HMF6VYiL3p+ps9dn356n7klsh/a+4GHnqRoUhptnTam7dkxFpDec+7McgjUygsvEkQFu200o/YU3KzX7WD8L4EzZeXUEy1HGvEHTiwCJYdoOEFpd/s9AjNZdHPL0oAxsS/EJOtQi6/b6wmGSk+HoqE5dLpsn1b1oFrl++n0CubKmjMOPUAarxmi0OSwznGPvb0KypFnVF2cgtZu7vjql0Cfz9ESSwcHmwRUdROMyhkTrGIqxnVDF2q5biDU/ijNPWv9zYy9AHt6T9HJY40r4aHjmaJpgRxS1xenk86s2O8RjUOW3s48aafFNnywmC8H46H62G+/IVXZKmXSIN77X/XwAzZ4tycXEF8Xmj8eYmZ9SUHc9qybU4qW3LQg3Hbxbp4Kgt4f608v96z+yH/ZVt/WJX3JkN2+8CLoLELExgueuRq2tGQC46LW1L3m52iGbYYuXFDoLAsX1G4n27jlm5H50zX+J3fjGEJIejl4IZhrUE1cqGo9vDuqVPYkJ19dQK20XDDdLiepm4XKzC0w29fwYzJje3mTE5EWxkeKOPiN6H3f11bDVJJTWirIhvTt/9ZynENOIXnnmCF52wTzZY12EPoErZiXVS8ykyvcV66ZQhxdk/Zr7v37NH4B5UQ5YNN53x9BdcGwoX08ANfC4mVBBnOMgdljV13hTEN/CSKXOoMPl1Om98zdCW1+FFhzjqwQnt64uuxWSm2X8B4pfthZDUFK7Trf5V/qMc5MdgvzbFkhI4BPxQmcTk+b7in8Ntlwbmb0y0KnDNdeSW4rqcZVr/N3aPqUtUXkBkkuFkwjoQKvVgOz8Q+B4YQ2evh6SGN0j1ViQJEjw3iGa05v4AqaZuFuJydXznrI5o2sRzX1MnkUE1RcMMontx2l9ut9v+HKfa3JJdF5e2NfHefPOEooalkF7ukWN61BIsRH1TJhSyFm39GMcuX3YYrLTgkT2R6duXyd1o9Vpxw/psn5OfOa7KGLlt4I7TiJWbvwukKyyMJLy3LmA6HS1t5apLpVyypHuGmwRRPEymb36YqAdT5XlXYw3JU10nOsanGWHdtfCzMDnI3AnlLEi6Ii8PieZYjyj6SrMtQZZGkf3A+ugasqfwK48ffPDBBx988MEHH3wwB/8B2QkEqXNmDRsAAAAASUVORK5CYII=;fontStyle=1" parent="1" vertex="1">
          <mxGeometry x="474" y="628" width="60" height="60" as="geometry" />
        </mxCell>
        <mxCell id="5E6sWLluoOo3w7mo-r-d-24" value="" style="shape=image;verticalLabelPosition=bottom;labelBackgroundColor=default;verticalAlign=top;aspect=fixed;imageAspect=0;image=data:image/png,iVBORw0KGgoAAAANSUhEUgAAAOEAAADhCAMAAAAJbSJIAAAAmVBMVEX////qKEXqJUPqJELqIUDpADHpDzfpHT7pGDvpFDnpFjrpADDpCTX/+vvpADP97vD+9ff85un73uL+8vTsRl31pa7wdoXxfoz2srr61tr0m6b5x83zkp72rLX85ejvaXruXnHrNVDvZnj4w8nyi5f3ucDtUmf0n6n6ztTtS2HoAB7sPVb4xMrzjpr0lqL72t7weYjuWWzxg5A0ddQFAAAPVElEQVR4nN1d6XqiMBSVAEmAAIqK+0KrVsep2/s/3LC4QAgIhM05v1q/dianSe6Wu3Q6DUPvbRc/w62lN72QynD6A1WsKrIzN5teSlVYEMEDUMCw6aVUhYUsBBzh1/96VEdqQFHAx8dJtcDcanRN5aLrgDtFdOgGH1lQJV/7ZpdVJobwzlBQ7eCTs3s5EbSXza6rPJjCYxMFLdi4oeJvqTFveGWlYYUeDNGX/8HX/QM4mDS8tJIQbJkPw/vexI9vJXxqenGlYPa8iMIfT9ZMX4wB3P0PpsD+yVBZud+aRAgBKd9Nr48fT4bK2lP6axRmKABj0/QCufE4pfLFI3iCAgWyanqFvBj6Vo1EFt43J0ITdGXqp1NcS57NNjh7X1/kOEGX4q3pNXLBQv42eVJ0P1BZBN2DOm16lTy4uAyJZ691L1BiE3Tv6LbpZRaH5V48ZeR+scc4iZ+nGHtNL7Qwbjgw1hYEJBN09eKu6YUWBgZA6LuGjJHGz7upP02vtCBmhkDcO/atvSEoAPVDvakpFo+upQZSj2hwTr+aXmsx2EhxNf0oRcg8oX2mL7VG0Oz08PstdDdx3fRiC2GFXSH5o7zn5wK2YBO7prk87/9ux4vhcLydTayeafa7ab/xSy6dzjVR00c38VIXDwZMazYcrXYOgLJBCISKC0gM2cDAOV7t22JvsYlutd+O/k5T3AGEZtxh8+/06yhgoiAkMUQiAKKEsEKwc7gs4iFC88+0M8nIUIDjusnp1sIWNIKRmEFSAAkpRDvMZ9HNXJ8625hLmABpXS+//cWRFZRFCoYgupt9Pe1fx21/y85QIHUe0/GO5GX3gISJs94+tnLR+cvwetmAtbkY+lBI9nSyAEgQjALhr3csptvLAhrVw687FWHB7QuTRNpgEZy6LBZN8DtOLfx+BIWfnw8RInuvdzpfmc8DSVWu5WDhlMXPA0DwODVziJrKzZrzgIjl8fMhqnCX+Yfh34oJngwu+ZJIMvNPKotK+fV2mU9TVcCVBsBnAnq/hIqB7AoJDrUSJUxRSBU6+tPMarlKVGiZzjNbVpWiumAN68GkCVR2D+etOKIuUEVvNMO30cy6oFJx4d9+KQTHLTmiQtx9GpQS7B9nDTLUAEjFQQTlyk+wPUfUBYmeSl0TFO4A3LBFOygAIbo4L4bF+2Tz27gpGgatLHy3i/Dko/TXrSIYEzQ3z1IGpHiu5sxp3taOQKZibUff75KOBZNvuyNYtrfLCYkSnL37CcPFLJ0tyhwgqguQ8n+f0Q9SwDH+PhgtcJaiAIA6pI80TQHgnFfRHA5IJeEKPtCSNJR7Kw3y8JutgNKyCxiANmhCiakCzJpQbP3sjMLR+opByxl9EN4H8jb13ZxspxdHVlt4Ou/QKA7fEWtLGqSqDH27FgyIW7p5AWLP+IfoZsC0jOmxAKU2k/MAMJX39U175UaiPO2u5bbTcwHpwiiHlobSIYGguWudZmcgltc2jedvEPYjuH5sme3JBCBUzpfFkBl+glwc60/YwXh+6YEl81VWnKpFMZgUEFpObthenRIXNv3YfW0jIP24vU2IbjICxj/t8nDZgLRzdE5U3DJt2eifsIUxgsvkB8eYBb5vSyw7BYQWH6aTYlnScY6f1gtSINOhtGVqaIVW+9mTIBoCkuiLtQfpaybRTXRqWWZhAPhFp3mNjTeSg7qJ9Sy0KDCImWGb94LD+P4QhgBrN9oIOx8yJBN7mfEv7NqqLEQVj+gDqt/kTGJDnoV+aZpQSdUsACLHUyzPcutkXGzkrb/XPqtUUmVhNKMjEvo4RzKWeg5vYpsoIgUSfP2ZxAIu5jxXsieOmLGr9himwB5P4jnA+nKx0zLVY7z+oWjkeNSe90Fpdxufe68d1HvnxWhgKLnNEir6P21PlEZEChGOuy/7trnZX7ujQBRURNqLlP3dricYIEoSQhghJGWpAGCDdqLMS+tjiTkRr67Zt2kXSwBQY+pm0FbjpiDiZQuXTwgp5kA8h3HfHrVYCgCI1X4z448fjHgR2L5NmU8lAMV7adjZ6jg/BQDFDMDu4f8SNiReBGYO/iulyCoC07/SGzd8FoAYZ9jpDJ22ZUFxQGaWSPWHgza5xFygE6ZfasO/jWGpA4BXqgwJMWQXhlepzWP31wU6OeWJpbeJ2L5TdD02KDoH+3fxPdtPrKVlTfbf2+FtPXAwxK12SQBISD85y566/A6sOHSwh5Ml8yf71vfvWmhz/o2SUKt4Nlz2/bGv/5XfhI1+0pxMdzJfRXB1UBLa2k78hjF+hzExU9Vtf3xV8odSagDDcPNhycrNaxsjxDPlEmEuDrB9FpGYkAfW07zMlY3LUMlTzbi/qG0ziRgelA996pVL33DOlE33T7Mhartka2pZ9C8GJHf/sP48rSFZ/VDSKjGmSqGq6d4It+g+pha6jf8U7EAxubYnPzy14LRbvEhj0ZptBE5FTdD7q7Z4YUZlPSYWqB0WgHx+v9aCsI6teFyGFfYg1u02+JlKpX2lfkpoYcMLXO1IiW2+h9sqgCpuIz0pvdFLXkhVt1i2hIZFqlh5W1crLU+yBoCczkMRijma61SBGhpnWQ1bqdUz7Eya9RlrYJijZeCnMmSMAvjfGHZWDTr+9TDUG9QZ9TDsnJuz32pi2Bk25mjUxZCerFIbammV6cMss5tkdoDj+6WVhZ9Gzmn1lncIjWQkVdmhL4ZJE3q/rqa8AewGhA2udTyN1YBlU3G3Uxq3+ilWGU1kwKw/N9CoLiLMRP1ZunI5PQczY1l3ZUdlLzOJWNW8iXUPGoiMcqwFVbUCTUbdFQFJCTUV4qfeFymj/rk0y1ozrfmHtpj76ci+nWY5/p0k+9upgqHE6Vn0RgJREUKYCKvMj/4L9iZKdhUFyZx290Z7dt8AKPM0rQS7Bp82FSgSLpvNjHbYz54+xZamcDuu4IZijlF0Jt15Sc2a9HBimt9wuS8/BiDyhDAG9JnCWQ3APctyE4/dCsxynjEKNq3W6Pa+yegLjJCUlwhavs1qZM0djWMWW827XvCLw3W0DZTKmqEvPEfVKT0YpxQm2NnFFvlGlupHJCEibLzLumFcROSKhAO3uqD+RBwd+ONCISHd+Cmst/5vAFV0P/mOW99+5TVrb/MRHEQpMuqesiIejWBP0tKfobyHigDatGPFTVO/9IM7UAWi/ZISutNlAcNBUJm5tmf5/sX2dW/loR6/cJr36yNOhkCwIqeA45CaMTmT8Oc6/bl72KF+YkCxYvZZUNty42ToHvVow9biY5MYullk2d76UQtsinnYXEGrFX3hggvDG8RxjdCv0D8hFm3x7WIcFxV010YfMyNQSJPo46G0pvZQDIIpvPfQlQVhAYHf1cKkgOEeqKzQ8lryO/vqA2rPHOqX7+nmvF3HZCuyMoPDJmUwZNXWWFrQu/jdI/7DTY0r2XxQIvcnsW4tCxinVFDirabdS0Fm7iV8Z42p966WRz6N76nk0LtBpFVUXjAHTsa6v3odDIxJZ/ouugbQ3Svh9J48w+/VwJzLregsWV4AoLv8eofO6L0fjvEYv9Hl9C1kL8zwVLV0//186LKHhBM7LJ6HHjVx93Zjnn/sM1+LyqCI63HSRYcvRz/BgsTO9snRCvbu/dUij/uSfdgq+z/3fcGHtEqtBsoAtpvu8iGD6V1G0xoicWFP04ozkhq0nL+/GgCBs8wiOeAgKuhon8ZbO+NLYcjc43MtQHAs77atwvvyq6cJdhFhmLnYUnvJdD4H+B43DHxPIHES9Cr3eFbzAnw9nHA+gd+LXYP7U2ReCQWrnLhYuMs6y4zIjkeYyL/MPDb3E6W8A4rhVwU+uxvfTSq/PJtr+tMDnMrLB8Ch2E6Xz2a7u2n+zJKSRkCWkBsjh//UE65z/zSzPYaweOFkGD3uhFEtYsjOuQSN8QgTuac0V/15GhZ879WAkndcuuIlWqY4W4+ETOBKGAVG1BWJh5jz4KXgfzHh8Zqi6HIUw4h0KDOXbKa3G4CnYXSTy8zUswp3I4o1ITfzyBlwdKIfhB5gVqDUDKHJm97oSVAGdHQ1V7tmtKA2UXup1UN5Z9THuUiRATAutMnRzSNn0OhvVMjhUM5M2jikQlgec4tApMYrc4d5AhiGHrWKAebNt0hkN74cc28hgLv4erqsF8UkkGHnGvlvGTGwMtC/ORrM3+BXFVhW/zzHFqJrpxvpTQWcarIPu/MC/XaQsWEdKDOH7QCQRT2T84Wc0tBbafk4Ii0h6SaPLiQ/9+ZHD/BFDd/gvMKZjVNRxUlJRd85dKE/Wi7ywJQ5j6cYrF/HyNLLDJHjPOkVIY/bBCT3zvXDcVXMPc75HbqT6UGGaSMFASLK6js59DXKoex9fytckcqfmZcJ5tbGUGU0GQQSghDYKfQYA/5SAP33svC15Xipz4vJdH0EBKpeI3UfWCGqc7DHb1LlezkIBvMdw8ozqR1bRdB75+3PZmTbq5Vtj+bDmfX+BMWeFlNwD9SHMjn8a9lyZA0ce3Tu8ylD4ROt3mqRIkgYf8ckeA+ghQYAlxauqA7DHO9pj6DHK6waG2nZPixoVS8l26fGwy16vm4kNQxsESiCItau2yRnjDwUu/WUvVrJvm75mIaPKMCKN/zokiB4XuMdn+kkhPOBsHqEZosBbDg3L3AzTBA8L4L64xwrtdfC5IT+nE8kqZqz2fuabp/QOIu88tMeeS64zureIlgevcMGJNfY2/08rB4zoclLeLzj3UpH6QO4m8fWQJI3Euiwmb1M1m5CSISEnnPvRjfiTEOoGubqjwZ2lyE1uuqLKWWAHHbhgzwEyWm5nphPt8v4HrAnT0gwrBMCX1kSOBLWmsOI6ejjYyQu4Dv3ktDyHWRjziRI1hHfwU80RsePJMjssgQMKhDqJRrjQy1Ofdk4sXYQSVQSsxcYV67tlqIJuDH8fECd0MBtio12/gzcGEcUSbE47w0DWGuPi9KwiqsJYFxjCmFCpJobQJSELmN2D0aMQP0RfqYQteIDtiU4YsSXTn9q7TNTGrYSbYuKxpUVpj/XGBgtExu66bdIHCaT7uUjTyhVSOzyg07CS9lHavnOVoheQYkMxi33+nJBv0X7tiJ5t/2f+HX2kQHbkiKv6u9fUSW6tvZ6MxQxPAw/86IlYuw8tTzA8nHzf22fa37t7iE1ICmaM4/PGP9w9Gwi+U+niiqsF+WkurYJ5s1QEIbE2V3ePZ1+JKybJjvX0Wmb4en0I2H+nfT1Bm7dPxpFGjlym6ItAAAAAElFTkSuQmCC;" parent="1" vertex="1">
          <mxGeometry x="439" y="480" width="75" height="75" as="geometry" />
        </mxCell>
        <mxCell id="5E6sWLluoOo3w7mo-r-d-25" value="" style="shape=image;verticalLabelPosition=bottom;labelBackgroundColor=default;verticalAlign=top;aspect=fixed;imageAspect=0;image=https://vuejs.org/images/logo.png;" parent="1" vertex="1">
          <mxGeometry x="544.5" y="480" width="75" height="75" as="geometry" />
        </mxCell>
        <mxCell id="5E6sWLluoOo3w7mo-r-d-29" value="&lt;b&gt;Framework&lt;/b&gt;" style="text;html=1;strokeColor=none;fillColor=none;align=center;verticalAlign=middle;whiteSpace=wrap;rounded=0;fillStyle=auto;" parent="1" vertex="1">
          <mxGeometry x="430" y="345" width="80" height="30" as="geometry" />
        </mxCell>
        <mxCell id="5E6sWLluoOo3w7mo-r-d-31" value="&lt;b&gt;SaaS&lt;/b&gt;" style="text;html=1;strokeColor=none;fillColor=none;align=center;verticalAlign=middle;whiteSpace=wrap;rounded=0;fillStyle=auto;" parent="1" vertex="1">
          <mxGeometry x="414" y="60" width="60" height="30" as="geometry" />
        </mxCell>
        <mxCell id="5E6sWLluoOo3w7mo-r-d-33" value="" style="shape=image;verticalLabelPosition=bottom;labelBackgroundColor=default;verticalAlign=top;aspect=fixed;imageAspect=0;image=https://gitlab.com/uploads/-/system/project/avatar/17493240/Spleeter.png;" parent="1" vertex="1">
          <mxGeometry x="92.85000000000001" y="790" width="74.31" height="80" as="geometry" />
        </mxCell>
        <mxCell id="5E6sWLluoOo3w7mo-r-d-36" value="Typesense" style="shape=image;verticalLabelPosition=bottom;labelBackgroundColor=default;verticalAlign=top;aspect=fixed;imageAspect=0;image=https://res.cloudinary.com/apideck/image/upload/v1602704504/icons/typesense-org.png;fontStyle=1" parent="1" vertex="1">
          <mxGeometry x="610" y="855" width="95" height="95" as="geometry" />
        </mxCell>
        <mxCell id="5E6sWLluoOo3w7mo-r-d-37" value="" style="shape=image;verticalLabelPosition=bottom;labelBackgroundColor=default;verticalAlign=top;aspect=fixed;imageAspect=0;image=data:image/png,iVBORw0KGgoAAAANSUhEUgAAAOEAAADhCAMAAAAJbSJIAAAA+VBMVEX///8DnMcIjLknuewArNMmwu4AqtrA2+E6TlUmv/Q4U14QkLU8SEw7S1Hi5OU1WGIAsdonu+QjPUU1coUyXmtMXWN5hIgsREzy8/MzSE8lyPY3Y3ERm70if5YTgqnV7vK+xMWfp6rW2dqVnqEsa3wto8UDpss9Q0Qxhp8ajqsbi6cGk78Ah7eBjJDs7u4/U1rO0tOxt7pten9cam+or7EjfZowi6w0do+5v8F7lZ0LMDosjK0oo86XoKMtlrwrbH0AKzZrvtnC6vKa0+ODyd+es7i/0tVRtNS04e1JaHFifoaRtr9yiY+HpKypzNSQrrZ+utBok596prP4uNZ8AAAJz0lEQVR4nO2daXvauBaAA3QY2ZGgFRhFdcvqlOl0WI3jtCHMbafLNJ10uf//x1zJbJaxwaFekrnn/ZTyKKA3R8uRLNGTEwAAAAAAAAAAAAAAAAAAAAAAAAAAAAAAAAAAAAAAAAAAAAAAACAnhpftEPKuVZJ037Ad6CjvWiVJlyKCFQhCRt61SpIuJfXfVP59hrWnCk/0f6HhL37A8KEBhg8fMHz4gOHDBwwfPmD48Kk8bMNJ4yBTTqzHCo/ubDhMp/Zx6FF+EIQQUbnz+nDUSKf6MeixYO1JiM/PGtqcGZWUDA7RY+T5M4XfsH7+yM9jC1tqkWd3NOwwhDgbp+Wwnx7DLx8rPi+x/kQZV57WsKUUefTiboYVIVjFiF2mZrEPaajU/lHyhlOOnVINIzpJTWMPGRh2KUKlkuYIxXZqHtFkYNjg+EpbKrJueiZRpG84ZDKEJU+RG2cpuoSTvuGEEVfzFEsWYYMUXcJJ31CMM/PSCoRo5nNG6oZnI6KvBbVFn2ee0KZuWGHE1DaKJqFZz4qpG7YZdjaGpTnOfFWSuuGM4avSFpOwdoo6IaRueM3wYhvD0gLzjJcZ12kb9jhe+GIohlOU6px4FkRU4KW6vJWG6sO0Gv5TLfICEWPnnSLqHTDULJJq7talwcfVHJE/nyvUCFIfh/5eJ3W1yHMRiJ3n3p3wj+yorVS7wjzNWb/LgotZubrdeYSNg68EiuCdNbEwjjCcqCONGE25fTIczwa2bdj2dDAbJ9popWFVBSFdfUEPKbL7SuAFPdKwzYhvthD0RSeWjYdzJLdIxI/2LLltnC4Lbio9Rvhc7XXnWH+kFrFw4Cn3Lzp+Fuy8UYYVSup+Q63vNYBlQ0BeC+GMTpNK5jxDdeiUhsrQKQxfKCU8Q6XIEz04AP8eaTgUjaTsN5TdolpzTgsep46lS0k6TWZhlYPhic1xwW+oI6dQVjitiYDyZJYdeRheM1LzN9NFOQSHIDp7qIZidCP+ZhomWL7CKJlTVnkYnhjIn3uHCpb1pPZwcjGcUIQPCFokqWw1F8OTEdr0xHDBBDdw8jFsiyCuMrcIweQ24fIxPGlwhMqRgm6SG6n5GA6FIa5HCBbqIoKJCeZiWOlRTrAbLjh3MOEowf23zA3P2lPGEK4WtDDBgotEC7WTfHwaw/DpMYaPQw0rkykSC1BMrkL64PzUrRKZkO7pv7FQl+HjUEOl9kfH8Nr3WZXxpDNlVK6vcfWqpG0EzZrrOK5r1UlfLkQZG/xsAMc0+MBar6uIpZ6pUCcoUERHulrEFL+kFpFryM2HMEqpt3tAMHLnnl9pPS/4Vt6cjno//2D4kqEAB59ph70S55fUjxALv37dKZTUmb662f2g1Bi0k5jlOxtDPTuqpuU6F/NSSQvkaguMjPakc92ZXSa2dyF3upbvrmVNyHLCIiyRJZKfwcawlB+byUE0pcQP1kw5KeRtuJkgnDQ2Eqcc5W24nQLFMJP8oZr8Dcv+EE6TsWrfJ0NfFkMQDa6RKsfF1PblQbuGyiAXhVYezfeX02pOnDcqKyG0g4L8OENOp5vJphEYabTShRlDsCCyrcUeA61sYrFcOOhYvqrP13ko2gnhJT3uDNE1QxzNVo7qbKGVFqJmZnlvzbRSwZL70f1aVBjFnwnJpxv6RXl/i5BZGnKWji4J9MLxlCI0OmLiX2YxbDTw/mBixj9dGWra3KliL+Fy5+E1k/N0YVnIS75qC22noKaVHR0v8ySMrEV5t8imXBUvC516c6F/p2I4sZk81cnvvHQa2+s0jTM+nY2F4ZVsIoUrxyJ4VXXRBHVnUfaM/CnIfOHUCca+BFNkzv5ysoxTV0tgvXZRKJeUN5PlLkyCt4Xq9c1u2rB72TOY5+dVs3OHMFZmBuW+DFgk+ct/rp+a+RCJManLpczFxYUjFjSWifqijFrIq10fmTVR4kIWqu68z1KgT6rm5s1c19T7IeU4Ff2Hy3WHv5JyBRUrSa1cDow3b+gOaOdpoI++j+hSvnJxyoSVk7a7dVvz5j9s2hkfaK7DSrcSRhehenPJaYY0A9QIN0Lr56vpsemOgfTikleFzCgGaKZ52qvBcXP1OVn5vQoKFutpntibMOJkG8RdQQenecKkQom1/qRMBHf8ik2c7olEMT9maLgbwGKxitI9VerriOk30xC/okVSPhncpqSWURDDAlhM/3T3Gd8203hBPDbUYX5eJ0z7EsKAb0bTw0F8+6717q+j/EIDWCyilDuhZMyIWYyp+L712v7QepeYX7FKdpa9KWBwsh5rDrTT89aU0V9brfd3bagRfmKq56MMLubN2HZK3B/Etx9F9j/9cHvHIEYFsGiKjDuLK2tnYoHTjKX4/qO8ZEandzKM9CtaKU/1Wzr+nrhP8VNrJEZe+uHv+K002s8TbGciKPMa3Iyl+PfHEWOvW58S8BMzPcru5sGEoqrvs/cptsRA8ylmCPf5FU2coaD3+MLdr3jqmKas9Ke3cQO410+MopkKnlRE9/K104CiPOOJMOmfxnQ77CfmwawvG4rstOo0t5LLdri4ct2afFxLOGO6m5SeWNMTzrO+wiXvbIfsH4nX5FHrzzdfviTmJ5NtPsr+6rbNfWcJlgcK5ImC6s0/t1/F6NJqnSej580SLNEzMjEZiqnu9tvt7esVt7ffvv7qqa346/AIGkOv2JRdMPt7lJIK5yPhpNDyc2AQjaO3bKEslzvbJ97Zmh1Fv+SeTOZVPL1iUx7DM3K4zryiTTn6sKO4lXwbqhjXTuAi2UKzv8y8Zcw4/xaiuLY8D7rFlysueyBD7Rz9pKIYQf8JV5R8FROlx13E1n6md2cizwB6dEec2budcc33P45w86iJBsqMnL7cQ2FoMI4iWqrg03GKsgOy5M87HUmDInYTqXh+hKLl3c7q5d5AN0zEeINuk1JsLv0GeX3BTihdmyH2+UsSDdWR53wZvV9+ko48WHsTMeK8javomIiIVQnv5fg9V5FUpqKpRsXxe7zWSbzmaeeVoh1kbFBRv8+3YYH8utgfxqaInnctEg3yy9BicClPbnB0EzZ3fP8jwvFVU24IkOXV1kSOMadKW06OokeGRPLreVjHc03vTLdYWqJGO+/ax6PbG8lAcla9ef1F0WxtHZtNETirLo/beLFD9vW9bpwBztoNTr31P2PVz/bNj/8u+fHjh2uZ8qKBjpZuMnR0dPjkyz3krN0z5EklHtjmWF1EQKsNDzTttB+e3Iaz8axhjMTk7fseCO9ayMgw7EZvMr53c/pRnA0r4/blZDabyP/SYjzudiuVez9cAgAAAAAAAAAAAAAAAAAAAAAAAAAAAAAAAAAAAAAAAAAAAAAA/L/wP0fE011dTtKfAAAAAElFTkSuQmCC;" parent="1" vertex="1">
          <mxGeometry x="80" y="690" width="100" height="100" as="geometry" />
        </mxCell>
        <mxCell id="5E6sWLluoOo3w7mo-r-d-38" value="" style="shape=image;verticalLabelPosition=bottom;labelBackgroundColor=default;verticalAlign=top;aspect=fixed;imageAspect=0;image=https://engineering.linecorp.com/wp-content/uploads/2019/08/flutter1.png;" parent="1" vertex="1">
          <mxGeometry x="592" y="385" width="80" height="80" as="geometry" />
        </mxCell>
        <mxCell id="5E6sWLluoOo3w7mo-r-d-41" value="" style="shape=image;verticalLabelPosition=bottom;labelBackgroundColor=default;verticalAlign=top;aspect=fixed;imageAspect=0;image=data:image/png,iVBORw0KGgoAAAANSUhEUgAAAgAAAAIACAYAAAD0eNT6AAAABHNCSVQICAgIfAhkiAAAAAlwSFlzAAAOxAAADsQBlSsOGwAAABl0RVh0U29mdHdhcmUAd3d3Lmlua3NjYXBlLm9yZ5vuPBoAACAASURBVHic7d151GZFfeDxb9NAsyOrSkRAJWFV45JxVxBcMiqJI47GqDMuILIZNWgmMwkmOWMmiShBJS6A0SRGE50ZlxjFCG4IIqggCKJkUHBhEXphaeh+e/6o7mPb8PazVN3a7vdzzu/I8fRz76+q3udWPXXvrQJJkiRJkiRJkiRJkiRJkiRJkiRJkiRJkiRJkiRJkiRJkiRJkiRJkiRJkiRJkiRJkrSpJaUTGIn7A08DHgccCOwH7AFsD2xdLi1J0oDuBm4HbgKuBa4CLgTOA24smBfgAGBIuwIvBl4GPBbrWpIUrAMuAj4EfBi4tUQSdkrp7QW8ETiG8AtfkqTFrALeA7wN+EnOEy/NebLObQmcCHwceCpO7UuSJtsaeAJw3Pr/vgBYm+PEzgCksT/wEeDXSyciSWraJcB/Bn4w9Im2GPoEI3AU8A3s/CVJ8R4NXAo8d+gTeQsgzsuBvwO2LZ2IJKkby4AXAj8lzAgMwgHA/F4FnIV1KElKbwvgOcD1wDeHOIHPAMznKOBj2PlLkoa1Bng+8MnUB3YAMLuHEaZkdiqdiCRpFFYS1pO5OuVBfQhwNlsBH8XOX5KUz47A3xNeN0/GKezZvBF4aekkJEmjsxewHPhaqgN6C2B6exGmX3YonYgkaZRWAr9KeDsgmrcApvdG7PwlSeXsCLw+1cGcAZjOrsAPcW1/SVJZq4AHk2ADIWcApvM72PlLksrbAXhR6STG5CLC9o0p4jLgZOBgHFRIUs+2J1zrTwYuJ10/ckHOQozZ/YEF4hvsLsJuT866SNL4LAWOB1YT358sAHvkTX+c/jNpOv/DcicuSarO4aQZBBwdm4i/Rid7XIJjvA44L8FxJElt+wLwhgTHSdE3aYLPEH/P34GWJGmDpcAVxPUtn4pNwo5psv0jP38W4X6NJEkAawl9Q4zYvklTuJm4UdpB+VOWJFXuEOL6lhvzpzw+sQ9ruHqgJGlTOxL/cLkGFvuk5qwOBU4HvkNY8WnV+v9+B2HEGKv140tSL3L3L5pRrgZaBrybcG9osWOtAd4JbD1HOVo/viT1xgFA5XI00DLCqyHTHvPfmK0Tbf34ktQjBwCVy9FAZ85x3DNmKEPrx5ekHjkAqNzQDXQom582XyzWENaY7v34ktSrogMA1wEo71XM1w5LgVeO4PiSJBUx9AgtZjWoy0dwfEnqVdEZAE02dAOtjDj2ihEcX5J6VXQAsGXsARQtphGn+Wzrx5datwdwJPAYwloYDwF2A+5H+A7cRlhx9DrgSuBrwBeBn5RIVtIvDD1Ca32K3lsA0r3tQtj7/SLme0h2LfBV4GRg58y5K5+iMwCabOgGekfEsd82guNLLXkg4TtxB/HXjg2xkrC65p4Zy6E8HABUbugGOoTwStysx13DdBsNtX58qQVbAf+NtB3/prEC+AO8ddsTBwCVy9FA75zjuKfPUIbWjy/V7CDgMobr+DeNi4EDspRMQ3MAULkcDbQ18PkZjnku4RfHtFo/vlSrFxB+mefq/DfECuA5GcqnYTkAqFyuBtqasDzu5qbT1xB+Oc/TebZ+fKk2xzHfA36pYi3wmsFLqSE5AKhc7gY6GDiN8IT8yvVxOeGBuRT3zFs/vlSDk4AFynX+G2IBOHbgsmo4DgAqZwNJ2thzmO/B16FiLfC8QUusodi/VM4GkrTBgcDtlO/0N43l63NTW+xfKmcDSQJYBlxK+c5+sbgYXxFsjf1L5WwgSRDe8y/dyU+KNw1Weg3B/qVyNpCkvYjb+CpXrCDsPaA2FO1f5tnHXZLG5k3ADqWTmMKOhNUCpYmWlE6gAbGjLOtYatuuhJ36WhgAAKwCfgW3225B0f7FGQBJ2ryX007nDyHXl5ZOQuqBzwBI43YR6e7RX0bY4vdgYHtgW8K6/scD3054nl4iVunzt57f6NlA0njtRZqO7C7C0sGbm3XdYv2/uTPROXuIWKXP33p+o2cDSeP1YuKvAXcBh81wzsMYdlvhliJW6fNXnZ/PAEjS4p6Q4BivA86b4d+fB7whwXklRap9BClpOJ8j7vt/GfP90Npi/WdL/wIvHbFKn7/q/JwBkKTFPSzy82cRduyb1QLw3shzS5vlAECSFrdr5OfPjfjsFyLPLW2Wi9RMFjvNYh1LbVoC3AMsjTjGToQlhOexPWFRnzGLvX7Wfv0ump8zAJJ031LcZ12TIhFpCA4AJGlxsb/A94347D6R55Y2ywGAJC3ulsjPHx7x2adHnlvaLAcAkrS470d+/hjmfw3wmMhzS5vlAECSFndV5OcfDhw7x+eOAw6JPLekSLUvJCFpOEcTfw24k9mXAr4rwXl7iFilz996fqNnA0njtSdhUZ7Y68AdTLcZ0PHY+ae8fpY+f+v5jZ4NJI3T9sA5pO3QLgNOAA4CdgC2Wf/fJwKXJz5XDxGr9Plbz2/0bCBpfA6i7Q75uPRVogHYv1TOBpLG5WXA7ZTvxOeNFYQVCFU/+5fK2UDSONwP+GfKd+CxcVrqitFg7F8qZwNJ/Xss4Z3/0p13bNwK7J64bjQc+5fK2UBSv5YApwB3U77zThFvTFs9Gpj9S+VsIKlPewCfpnynnSq+DmydtIY0NPuXytlAUn8OA26gfKedKlYC+yetIeVg/1I5G0jqx5bAnwFrKd9pp4p7gOekrCRlY/9SORtI6sPewJco32GnjAXglSkrSVnZv1TOBpLadxRha9/SHXbKuAd4dcpKUnb2L5WzgaR2LQNOJ816/jXFCuDZCetJZdi/VM4Gktq0P3AJeTrkOzOdZx1wAfCwhPWkcuxfKmcDSe15CeFXco4O+WxgZ+AkwkI8Q53nNsKaBUsT1pPKsn+pnA0ktWN7Qoeco+NfQRhobOz+wP8idNapzrMSeBuwW3z1qDL2L5WzgaQ2PBy4kjyd/yVs/r37HYHjgfOANXMcfy1wIXAsbuzTs6L9y5LYA4xAbCVbx9LwjiNsgrPNwOdZB5xBmIpfPeVn9gCeCjx6fexFWK9/d8IsAsCNwPfWx9cIA4efJ8tatbJ/qZwzAFK9dgI+TJ5f/bcBR+cp1mAOJbwV8R1gFXnqbchYtb4s7wAOSVhPudi/VM4GkuqUcwe/C4H98hRrEMuAd9PXCoibxhrgnbS1H4L9S+VsIKkuS4CTCVPwQ3cqC4RfzFtlKdkwlgFfoHwHnSv+jXYGAfYvlbOBpHrk3MHvZ8Az8xRrUGdSvlPOHWckqbnh2b9UzgaS6pBzB7/PAw/MU6xBHUrf0/6LxRrg4AT1NzT7l8rZQFJZS4FTme91ulnjnvXn2iJDuXI4nfKdcak4LUH9Dc3+pXI2kFTOg8i3g991wBPzFCubKyjfEZeKyxPU39DsXypnA0llPA+4mTydxf8GdslTrKxWUr4jLhUb1lioWdH+xUUEJoutZOtYvdsVeAbhtbyHEVbIe8Am/+YG4Afr4wLCPfblixxvGfAXwIkM//25C3g94UG5Ho39R0jt11/7l8o5AyDd246EV/G+wnz35u8BvkhYwW+7jY6bcwe/7xKWD+5Z6V/hpaN2vZeveTaQ9AsPAv6StJvd3AL8T+DV5NvB7xzCxkG9K90Bl47a9V6+5tlAUngq/hjyddBDxQrgdxPXTc1K13fpqF3v5WueDaSxOxC4iPIX89iYtINfj0rXeemoXe/la54NpDE7AriV8hfy2HgP4eHCsSld76Wjdr2Xr3k2kMbqNYSH9UpfxGPiFuCo1BXTkNL1Xzpq13v5mmcDaYxeSfmLd2xcRNs7+KVQug1KR+16L1/zbCCNzbNp+5d/Dzv4pdL69av1/CfpvXzNs4E0JgfR9upxPwaenrxW2tX69av1/CfpvXzNs4E0FlsAX6V8Jz5v9LKDX0qtX79az3+S3svXPBtIY3EK5TvxeaK3HfxSav361Xr+k/RevubZQBqDBwB3UL4znzX+HXjcAPXRi9avX63nP0nR8jlilgTwe8C2pZOY0f8BHg1cWDoRSX3qfQQq3Y+wM1/pX/OzxCmD1ER/Wr9+tZ7/JM4ASCrq5cBOpZOY0e2lE5Ba5wBA0m8nPNblwOuAQ4AdCFv9HgicAFyW8Dxj2tBHUiG9T0Fp3PYA1hD/d34XcByb/1Gxxfp/c2eC860F9owuff9av361nv8kvZeveTaQevYS0nT+h81wzsNI88bBi+cq8bi0fv1qPf9JipbPWwDSuB2a4BivA86b4d+fB7whwXkfneAYkrSo3kegGrdPEPf3fRnz/ZDYYv1nY879uTnOOzatX79az38SZwAkFXNg5OfPImy+M6sF4L2R59478vPSqDkAkMZt58jPnxvx2S9Entt1/6UIDgCkcds68vM/ivjsdZHnXhb5eWnUHABI4xY7AFiTJIv5LC1wzkOB04HvAKuIv4c7dEiL2rJ0ApKKupO4PQD2Bb4752f3iTgvwIrIz89iGfB24Fj84aRO+IcsjdsPIz9/eMRnnx557lsiPz+tZcBnmLzQkdQU/5ilcYu9D38M878GeEzkua+N/Py03sFsCx1JTXAAII3XMmDHyGM8nDAtPqvjCPsFxJj31sMsDiV+oCKpUT6Eox7tD1xKmgfN7mT2pYDvSnDeo+co96xOT5Bny1Fa6/lP0nv5mmcDqTe/S3iALmVHcQfTbQZ0PGk6/7XAA+KqYSpXJMi15Sit9fwn6b18zbOB1IvtgXMYtsO4jLD170GE7YC3Wf/fJxK2Ck51nq8krpvFrEyYc4tRWuv5T9J7+ZpnA6kHDyfcMy/doaSKE9JWz6JKl7N0lNZ6/pMULd+S2AOMQGwlW8cq7WXAmcB2pRNJZBXwIGB5hnO10IkMqfT1q/frb9HyuRCQ1K/7Ae8H/lPpRBJ7H3k6f6lrtY+OatD7CFR9ehzwYcJKfT1ZBTwUuDHT+ZwBKKv362/R8rkOgNSXJcDJwBfpr/MH+BPydf5S12ofHdWg9xGo+rEn8EHgmaUTGcg3gf8A3JPxnM4AlNX79ddnACRFOwz4O2Cv0okMZBXwO+Tt/KWueQtAatuWwJ8Bn6ffzn8tofO/qnQiksal9/dQ1a69gS9T/l3xIWOB+fYaSKX177/516338jXPBlKNngfcTPkOeshYA7wqVYXNqfXvv/nXrffyNc8GUk2WETaoWWD4DvgO4K+A2zKca9NYDjwnUZ3FaP37b/516718zbOBVIv9gUvI0wFfSVg+GOBhwNcznXfd+nMdkKLCEmj9+2/+deu9fM2zgVSDIXbwWyzOJmwctLGlwBsGzmE5cAp1vZ3U+vff/OvWe/maZwOppBw7+G2IFcBLJuSzB/A20g4ElgOnEdYxqE3r33/zr1vv5WueDaRScu7gdwnhFsO0dgKOJ7yFsHaO8y0QtvR9LbDzDOfNrfXvv/nXrWj5al8lqQaxlWwdax7HEX4VbzPwedYBZxCm3lfPeYw9gScT9h84CHgIsNv6WEFYvOcm4EfAZcDFwPnr/7/atf79N/+69V6+5vU+AlVddiJs4pPjV/9twNF5itWs1r//5l+33svXPBtIuTwW+D55Ov8Lgf3yFKtprX//zb9uvZeveTaQhrZhB7/VDN/xLxDWEdgqS8na1/r33/zr1nv5mmcDaUh7AJ9m+I5/HfAz+t0pcCitf//Nv269l695NpCGchhwA3k6/88DD8xTrK60/v03/7r1Xr7m2UBKbSlwKmGt+6E7/nvWn8udP+fT+vff/OvWe/maZwMppb2BLzF8x78OuA54Yp5idav177/516338jXPBlIqOXfw+ziwS55ida3177/5161o+Wpac1sqZTfgcODxwK8RVsTbnfCk/PaETvsmwv36S9fH+cCNUx5/GfAXwIkMv3DHXcDrgTMHPo8kda/3EehY7UxYbe9C5lvKdg3wReAEwuI9iym1g5/SaP37b/516718zbOB+rIn4T3420nX8d5G+IV//03O9RLK7uCneK1//82/br2Xr3k2UB+2BP4bw3bItwInEWYXzh7wPBvHNDv4aX6tf//Nv269l695NlD7DgC+Tp4OeR1wZ6bzzLqDn2bX+vff/OvWe/maZwO17bnAKvJ0yLliw3K+yxLWk+5b699/869b7+Vrng3UruPIs9hOzriF8Dqh8mj9+2/+deu9fM2zgdr0csIv5dIddspwB7/8Wv/+m3/dei9f82yg9vw2ff3yXwv8GX2s23Eo4fbFd+jv1kyN33/zr1vv5WueDdSWh5Lv1bsc0csOfsuAdzPfmgstR2nmX7fey9c8G6gdWxGmyUtf9FNFLzv4LQO+QPn6LBGlmX/dei9f82ygdryJ8hf8FHE3cArDLxucy5mUr9NSUZr516338jXPBmrDnoQV+Upf8GOjtx38DmV80/41ff/Nv25Fy+ce4erFHxJW4GvZx4BHAF8tnUhCr8LrjKRG9T4C7cGOwHLK/9qbN+4ETk5eK3W4gvL1WzJKM/+6FS1fD68VSS9j8zvy1exq4EXAt0onMpAHl05A0n3r5SGjIcWOsoau49L5tTDKnsXlwFmEJ/D/H2ExoX2ApwPHkHa73Q8QthO+PeExa9Pb38esSl9jS18fYrWe/yS9l695tU9Blc6v9BRrqriLsHTw5u5Xb7H+36TY7GeB8OBi70q3a+kozfzrVrR8PpwjwWrg2YTX1RY28+8W1v+b3yQMAmIsAZ4SeQxJmpsDAAleB5w3w78/D3hDgvM+IcExJGkuDgA0dpcD753jc+9Z/9kYB0R+XpLm5gBAY3cWm5/2X8wC8w0cNvawyM9L0twcAGjszo347Bciz71r5OclaW4OADR2P4r47HWR594h8vOSNDcXAtLYrSl4bt/hnax0HbXwKpk0F2cANHb7Rnx2n8hzr4r8vCTNzQGAxu7wiM8+PfLcP4/8vCTNzQGAxu4Y5vsebLH+szGuify8JM3NAYDG7uHAsXN87jjgkMhzXxX5eUnSgGpfi7p0fqXXWk8RdwKHzVDmwwh7B8Se9wUznLNVpf8+Y5l/Wa3nP0nv5Wte7Q1UOr/Y89cSdzDdZkDHk6bzdzOgOr4/k5h/Wa3nP0nR8pV+xaYFsZXsdsBt2bA08BeAHxJeE3wIv9gOOHbaf4OvAE9OdKyalf77jGX+ZbWe/yS9l08a3AkMP0OQOo4bpCbq0/ovOPMvq/X8JylaPkcP6sGOwA3r/7cFK4EHA7eVTiSD1n/hmH9Zrec/SdHy+RaAerASOLt0EjN4H+Po/CVVrPbRkTStPYHvU/8swArg14Cflk4kk9Z/wZl/Wa3nP4kzAFICNwJvLZ3EFP6U8XT+kiRlsSXwdco/4LdYfAPYerDS16n1h7jMv6zW85/EhwClhA4CLqS+WwGrgEcxvuV/W5/CNf+yWs9/Em8BSAldCbwQWFs6kY2sBX6X8XX+kiRl9xrCanulp/0XmG+vgV60PoVr/mW1nv8kvZdPKuY4wq/vUp3/WuBVg5eybq1f4My/rNbzn6T38klFPZfw6l3uzn858FsZyle71i9w5l9W6/lP0nv5pOIOIO/bAZcAv5qlZPVr/QJn/mW1nv8kvZdPqsKWwJsZdjZgFfD768+loPULnPmX1Xr+k/RePqkqewKnk3YgsAr4K8axve+sWr/AmX9Zrec/Se/lk6q0M3ASYVveeR4UXEtYb+C49cfSfWv9Amf+ZbWe/yRFy1f7IglSDg8AngI8HjgQ2Jfwa347YCvg58CtwA+Aywn3+P8NuLlArq2JvUiVvkaZf1mt5z9J0fLVXjkl7AkcChxMeHjsQcBe62Ob9bFtsezyW0PYbe/nhA7wKsIv3y8CPy6Y11gdSni18OmEgcr2RbMZXulrVOsdkPnXzQFAYbsDzwaeBjwZ2L9oNu1YB1wE/CPwt7i97dCWAW8nLCo0phU8S1+jWu+AzL9uvZevSrsT7v9+kfALN/Y+zNhjFfDXwP1naQRNbRnwBcq3c4kozfzLaj3/SXovX1WeBvwTsJryF7YeYxXwB4T75krnTMq3bakozfzLaj3/SXovX3FbAEcDF1P+YjaW+Cbwa9M0jiY6lLLLGZeO0sy/rNbzn6Ro+Xq/l3gkYQ/2jwKPKZzLmDySMOD67dKJdOBV9P89laRkHgL8C+V/vYw91jDunfBSuILy7VgySjP/slrPf5Ley5fVhuVeb6f8hcsIsQAcs7lG02atpHwblozSzL+s1vOfpGj5enqFYF/g74EnFM5D97YWeAHwf0on0qAWLmJDKn2Niq1/84/Tev6TFC1f7ZUzrecDZ+OSrDVbAfwGcHXpRBrjAKCs1jsg869b0fK1/nDREuCPgH/Gzr92OxEWDXKnPEmqQMsDgK2BfwDeQv2jPAWPBN5YOglJUrsd5zLgI8BRpRPRzG4HHgb8tHQijfAWQFmtT0Gbf928BTCj7YB/xc6/VdsTVguUJBVU++hoU1sRniT/zdKJKModhF0Wby2dSAOcASir9V+g5l83ZwCmtAT4IHb+PdgOeGnpJCRpzGofHW3sj4FTM57veuB84DuEV9e+R9jy9nZgecY8StuesMbCEYRlaQ9JdNyv4ZoN02j9F5D5l2X+deu9fEn8FmFFuaFXHbsEOBnYP0+xmrMUOJ40uymuBR6QN/0mtb4SmvmXZf5167180fYl/PKOrajFYjXwXtL9sh2Dw0kzCHhh7sQb1PoFwvzLMv+69V6+KEuBLxNfSfcV9wBnEB5G0+xOIL4N3p496/a0foEw/7LMv269ly/Km4mvoPuKrwKPyFiOHi0lPB8R0w6fzZ51e1q/QJh/WeZft97LN7f9CK+LpejwN8Q9wCmM5MGJDH6PuPZwX4DJWr9AmH9Z5l+33ss3t0+QptPfED/Cp85TO4S4NnEdgMlav0CYf1nmX7feyzeXZ5Km098QVwJ7Zy3BOOxIXLvclT/l5rR+gTD/ssy/bkXLV+NCQEuAP0t4vG8ATybMAKguNf79SdIo1HgBfj7wmETH+i7wLOCWRMfTL9sn8vMrk2QhSZpZjQOANyc6zvWEWwl2/sM5MvLzto0kCYAnkeae/934wN/QlgJXENdOn8medXtavwdq/mWZf92Klq+2GYCTEx3nvwMXJDqW7tvxwEGRx7gqRSKSpLbtRprlZb9KfQOb3hxBmGWJbSuXAp6s9V9A5l+W+det9/JN7bXEV8Y9uMLfkJYCJ5Gm83czoOm0foEw/7LMv269l29qXyG+Ms7InnX/diAs+PN64u/5bxxfyVmIhrV+gTD/ssy/br2Xbyq7A2uIq4i7GMfGPgcCbwO+zbC7JA4dJ6aumCkdCpxO2Mdg1YQce4jSzL8s869b7+WbykuIr4j3ZM86r62AUwlT56U7ldhYCeyctHYmWwa8mz7qr6ULhPmXZf51K1q+LWMPkEjs++TQ9/T/VsCngGeUTiSR9wHLM55vGeGVw8MynlOSNIWriRsFXZI/5azeRflfkqliBbBn2uqZ6MxEubcYpZl/WeZft97LN9FuwAJxlZBq/YAaPYv4+qkpTklbPRMdyvim/Wu6QJh/WeZft6Llq+F9+UcTNgCK8S8pEqnQzoTp8tj6qcU3gNMyn/NV1PF3LklVqeHCeEDk528ArkmRSIXeTj9vNqwEXkp42yOnIzKfT5KaUMMA4FcjP39ekizq8yzgv5ROIpG1hDc9Siz9++AC55Sk6tUwANgv8vPfSZJFXXqa+l8HHAt8stD5dyh0XkmqWg0DgNjlYHvcUKaXqf+1wGuAs0onIkn6ZTWsA7BH5Oe/nySLevQy9b8ceBnwidKJSJLurYYBwP0iP39rkizq0MvU/zeAF9Pf4EySulHDLYCtIj+/KkkWdTiNtqf+VwFvBB6Pnb8kVa2GX5prCNvMzmsr8r9aNoRnEdYzqKFNZnU7YS+GPwduKpzLplpYDGRIpf+eYuvf/OOYf92Klq+GyrmHuFsR9yPvuvJD2JnwNkOLv/5PAP6OetvAAUBZrV/Azb+s1vOfpGj5argFcEfk53dJkkVZLT/1/y7q7fwlSYuoYQBwe+TnWx8AHEG6p/5vAHYljAqnDW3eLHU5REjSIGoYANwS+fnY1whL2hk4hzQX+nWEde97eitCkjSQGgYA10d+/uFJsigj5dT/2cC/JjqWJKlzPQwAHpski/xST/3/fqJjSZJGoIYBQOz74o9JkkVeTv1LkoqqYQBweeTn9yN+P4HcUi74cw5O/UuSGrQ34VdsTJyYPev5HQEsEF/mdYTbJ7FvQcTmULvWy2f+ZZl/Wa3nP0nv5ZvKDcRVwgX5U57LzsAPiW/0DfHsBDn1/gfYevnMvyzzL6v1/CcpWr4abgEAfDny848HHpYikYG9nTDjkcJZwGcSHUuSNDK1DADOT3CMVyQ4xpBSbvN7PfCGRMeSJKmYfYi/L74K2DN34lOqcep/A6fY6i6f+Zdl/mW1nv8kRctXywzAdcA3I4+xPfW+C/+XpJv6Pxun/iVJHfnvxI+Gbqe+VwIfDqwlvmzrgB8RZhNScoRdd/nMvyzzL6v1/CcpWr5aZgAgbCm7EHmM7Qh70tfkGNLU8zrg1bjzniSpQ58lfkS0ADwxd+KbcSXxZVpHeOp/CI6w6y6f+Zdl/mW1nv8kvZdvJi8gvkLWAd8ClmbOfTF3EF+eIab+N+j9D7D18pl/WeZfVuv5T9J7+WayFPge8ZWyjnpWB0xRlpRP/afOr3atl8/8yzL/slrPf5LeyzezY4mvlHWEe+UPzJz7fYktx/srz692rZfP/Msy/7Jaz3+S3ss3s2WE1wJjK2Yd8IG8qd+n2DIMNfWfKr/atV4+8y/L/MtqPf9JipavprcANlgN/GGiY70MeGqiY5XiU/+SpORS7Ec/hCXA14HHJDjWd4BfB9YkONY8YkdpQ7dR7fnFar185l+W+ZfVev6TFC1fjTMAECrl90gzhXMIcFyC40iS1I3aR0d/S5jGj7UCOAD4SYJjzar2EWzt+cVqvXzmX5b5l9V6/pM4A7AZpwC3JTjOTsBbExxHtPREDAAAGcpJREFUkqQu1D46AjgJOD3BcdYBhwFfTHCsWc8bY+wzAC08ySupT7Vf36Lya2EAsBT4BvDIBMcq8UBg7x1s7flJ0rxqv751fQsAwk56J+ADgZIkJdPCDMAGrT4Q2Psv7Nrzk6R51X59634GYAMfCJQkKZGWBgA/A/440bF6WCFQkqS5tXQLANp8ILD3Kfba85OkedV+fRvNLQDwgUBJkpJobQZgg5YeCOz9F3bt+UnSvGq/vo1qBmADHwiUJClCqwMAHwiUJClCq7cAoJ0HAnufYq89P0maV+3Xt1HeAoD0DwS+NsFxJElqQsszABvU/kBg77+wa89PkuZV+/VttDMAG/hAoCRJM+phAOADgZIkzaiHWwCQ9oHA2nQ9BSVJI+YtgARSPhAoSVL3ehkAAHwV+FDpJCRJakFv07f3B64C7lc6kYS8BSBJffIWQEI/A/6odBKJ7VA6AUmSWrAU+CZhZNVDfBXYMWkN/bLY/CRJ8/H6O4AnAguU77xbGAT4ByhJZXj9HcjfUr7jrn0QsGNkTncnzkeSxsQBwEDuD9xK+Y47ZXyZtIOAAyPzuTVhLpI0JjsRd/29KzaB3h4C3FjKFQJr8STgX0k3CHhy5OdvSpKFJI3PPpGfX5Eki45tSflf7TXPBJwbmcfnE+QgSWP0euKuv1fnT7k9pTvroSL2mYCnJMjh9IjzS9JYLQWuIO76+6nYJHq+BdC7JwD/wnyDgF2A9yfI4ZIEx5CksTkeOCjyGM4ATKH0L/Wh4wJgjxnqYxfg/ETnfvAM55UkwRGEN6hir78vyJ14i0p30Dni34GnT1EXTwW+l+ic35nifJKkYClwMmk6/7XA7nnTb1PpzjlnnA+8hvB63w7r40Dg1cQ/8LdpvHGGNpCkMdoROBR4A/H3/DeOr6ZIbgwbuayL/HzqOtqe8PDG0xIfN6c7gb2BWxIcK7Z9JGlsjgP+JvYgPgSY3+3Acwi/1lv1YdJ0/pKk2awEPpLiQA4AyrgdeB7wldKJzGEN8PbSSUjSSJ1JolVYHQCUsxJ4Fu3NBLwTHwCUpBJWAKelOpgDgLJaux3wU+DU0klI0kj9EWGZ+yQcAJTX0u2AE4HlpZOQpBG6GHhXygM6AKhDC7cD/ifwz6WTkKQRug14EeEZrGR8DXCynHVU6yuCHweOBhYGOLavAUrS4tYAvwV8OvWBnQGoy4bbAV8unchGvgy8lGE6f0nS4tYBxzBA5w8OAGq0EjgS+GjpRICPAc8E7iidiCSNzFrgWOCcoU7gAKBOq4HfAf6aclPkfwW8kLDqnyQpn+XAUcD7hjyJzwBMVrqOnkkYAT4w0/luIzzt/3eZzuczAJL0CxcTHvi7dugTOQNQv88CjwTeS+InQDexAJwNHEC+zl+SFNwOvAV4Ehk6fyj/6zaH1mcANnYAYSGe5wNbJTrmAvBPwFuBbyc65iycAZA0ZqsIy/v+FXBjzhPX1LkNpacBwAYPAF4B/ClxszhvAc4CfpQiqTk5AJA0NgvAhcCHCBv7JFnbf1Y1dm6p9TgA2OAuYFnE57chPHBYkgMASb1aTXiz62bCtP53CR3/+ev/v6Jq7txSsYNZ3K2EP847CE+d/gz4IfAT4AfAVcDVhIGGJKkjDgA0yQJhMHDR+rgQ+CbhHVVJkqqzP/A/CAMAI238nLAvwLHAg6ZtEEmShvIg4PeBSyjfSY4l1hJ2MjwZ2GtyE0mSlM6jgQ8Cd1O+QxxzrAXOJWwclOo1RUmSfskSQkdzIeU7PuPe8SPgjcBOizWgJEmzOhKn+VuJ5cBfALvfZ0tKkjSFRxGmmEt3asbssYKw8NDO92pVSZIWsR3wl4S18Et3ZEZc3ER4e8B9KCRJm/U04BrKd1xG2vgG8DgkSdrE1sDphIVoSndWxjCxFngbsC2SJAEPxqf7xxRXA49HkjRqzyJsklC6UzLyxj3AKYxjeWpJ0iZeiw/6jT0+BeyGJGk03kT5zseoI74PHIQkqWtLgfdRvtMx6opbgWciSRpE6futWwBnAy8vdP6bCFvbfg+4ivAw2o3AKkIHdDthf4EeLSUs07sNYZW+PYF9gIcSdlL89fX/XfJvZA3wCuBDBXOQUnoEcAxwOOH75hswfbsN+H/AvwHvJ/QzWu+d5P1VeQfwCeB1wMMpPwCq3c7AfyS00/cpMxOwFjhx6IJKA9sW+BvC33Pp2TWjTCwQlkXfGvFW8lX6F4FX4sY0sfYHTgK+RP4vz5sylE8awrbA+ZTvgIw64rPAlozYCQxfyXcRRtwPzVSmsTkYOIMwxZXri3NylpJJaf0N5Tsdo654ByP1NMJ99aEq9g7gNGCvTOUZu+2BVxHubQ39pVkg3D+VWvEInPY37h1rGOGP030ID9kNVamfBPbLVhptbEvgNcBPGP6L87xMZZJifZjynY1RZ7ydEVkGXMIwFXkdcFS+omgztgf+B2H736G+OKuAR+cqkDSn/QgrXJbuaIw64+uMyP9imEr8OLBLxnJoOg8grOo31Jfnx8De2Uojze4MyncyRr2xkpF4IumX+L2H8GS4r/LV7WWEP/QhvkCXAtvlK4o0td0IM1WlOxmj3riREdgB+AFpK+7nhEGF2vAw4GsM8yX6BxwEqj6nUr6DMeqObzMC7yBtpV1PeAVNbdmS8HbGEF+kP8hYDmmS7QirjJbuYIy646107kDSvvL3PcKbBGrXK4DVpP0irQWek7MQ0mbkWOfEaD8eQec+Q7rKugHYN2v2GsrhpH9LYAVwSM5CSPdhKeWWzTbaic/Suf9Iusq6Baf9e/ME0q8ieA2wa85CSJt4MeU7F6P+OJKOLQG+RZqKWo0P/PXq8aR/Q+BzjHydbRV1KeU7F6PuuJTOPYd0lXVS5tyV19OAO0n7BRvtOtsq6kjKdy5G/fFiOvcV0lTUJ/EVrzE4mvTrpb86awkkOJf4v9trcQarVp/H9p3oaaS5gF+HK/yNyR+SdgBwF+E5AymHR5Hm7/aE3IlrKrbvlD5Omopybf9xWQL8PWkHAT/F5YKVxz8S//d6C2EvDdUnRfveTOftuxvhl1dsRX0md+KqwjbARaQdBLhcsIaWatOfP86duKZi+07pdcRX0h24pe+Y7U36LYVdLlhDSrHpz+3A7rkT11Teie07lRSv/r0te9aqzeNJM5O0cbhcsIaQatOfv86duKZi+07pYOIr6S5gr9yJq0qvIO0AwOWCNYRTif/bXIOznrU6lfj2vYcRtO+bia+oM7NnrZql3kjK5YKVUqpNf/4hd+Kaiu07gy8RV0kLwEOzZ62abUlY2S/lIMDlgpVKqk1/HpU7cU3lRGzfqexK/FOS5+dOWk3YhbALZMpBwLl0vhiHBpdq05/P5U5cU0nVvt1v+gNhJbfYinpl9qzVioOA5aQdBLw9awnUm1Sb/nS9KUzDbN8ZnEZcJd0J3C971mrJMwkPS6UcBLhcsOZ1CfF/f9/C11NrlWJTp9G0b+z9/0/kT1kN+gPSDgBcLljzSLXpT/ebwjTqGdi+U1tK/HuSr8uetVrkcsGqgZvC9M32ncEhxFfWw7NnrVZtC3yDtIOAb6w/rjSJm8L0zfad0QuIq6gbGcl9EiXjcsEq5cPE/63dhPtT1CrFpj+jat83EldZo3hNQsm5XLByS7UpzKmZ89Z03PRnDrEbYXS/RrIG8zLSDgDWAs/NWgK1JNWmMHvkTlxTeRdp2rf7TX829kniKuz4/CmrIy4XrBzcFKZvtu+cvklchY1ioQQNxuWClcOpxP9drQEekjlvTedU4tt3FJv+bOoa4irNX1uK5XLBGpKbwvTN9o3wY+IqbZ/8KatDBwC3kXYQ4HLBAjiJNH9P3W8K0yjbN0LsRdepVqXicsFKzU1/+mb7RrqbuIrbOn/K6ljq5YLvBp6StQSqye+Q5u/oiNyJayq2b6TYipNScrlgpeSmP31z059IDgBUm22Ai0g7CLiUEa3uJSDdpjAvyp24pvJMbN9oDgDasyf9d2YuF6xY5xL/NzOaTWEaZPsm4ACgLfsBVwOfov8/XJcL1rweASwQ//cymk1hGmP7JuIAoB2PJtzP3lD3H6T/X7QuF6x5pNgU5hZg+9yJayq2byIOANpwOLCce9f/n5RMKhOXC9Ys3PSnb276k5ADgPq9BFjN4m1wUrnUslgK/AtpBwHXMrJNP0bETX/65qY/CTkAqNvJhGnrzbXBWuAFpRLMxOWCNQ03hemb7ZuYA4A6LQH+nOnbYTXw9CKZ5uNywZrkLcT/TawBHpo7cU3F9k3MAUB9tgTOYva2WA48skC+OblcsBbjpjB9s30H4ACgLtsTd7/7BvrfoMnlgnVf3BSmb7bvABwA1GM34GvEt8n3CIsF9crlgrUpN4Xpm+07EAcAddiwwE+qDu0i+n7H1eWCtbFUm8IcmTtxTcVNfwbiAKAO/5u0ndk64BP0/ZS7ywVrgxSbwlyaPWtNy/YdiAOAOuwMfJv0g4AP0XeHNsRywW/OWgLFclOYvtm+A3IAUI9fAa4j/SCg99UCXS543D5PfJuPflOYitm+A3IAUJeDgZ+TfhDQ+2qBLhc8Tm4K0zfbd2AOAOrzOMJSlSk7tN5XC3S54HFyU5i+2b4DcwBQp+eRfsGb1fT9FKzLBY+Lm/70zU1/MnAAUK9jSduZraP/1QJdLng83PSnb6na11m8zXAAULc/If0goPfVAl0uuH+pNoU5I3fimoqb/mTiAKB+KUbCm0bvqwW6XHDf3BSmb7ZvJg4A6rcU+BjpBwE9rxbocsH9clOYvtm+GTkAaMO2wJdJPwj4FP0+5OZywX1yU5i+2b4ZOQBox27AlaQfBLyfflcLdLngfuxDWPTpR8S34bmZc9d0tiS8fmv7ZuIAoC2uFjg7lwtu0wOBo4H3AFeQtv3c9KdObvqTmQOA9rha4OxcLrh+Q3b4G8e3cAanVpdg+2blAKBNTwHuJH2n1vNqgS4XXJdcHf6m4aYwdXLTnwIcALTL1QJn43LBZZXq8Ddtr14fem2dm/4U4ACgba4WOBuXC86nhg5/03BTmDq56U8hDgDaN9RqgftmLENOLhc8jBo7/E3jW8CThqoAzc1NfwpxANC+JYRX+VJfLK+h39UCXS44Xgsd/n3FAvBB4P7pq0RzcFOnghwA9MHVAmeXerlgo624FTgZb9+U5qZOBcVWvOrhaoGzGWK5YKO98LZAOW76U1hsxasuQ60W+CH6fLd2iOWCjfbC2wJluOlPYbGVr/oMtVrgn+YsREYPBK6nfCdklA9vC+Tjpj8ViK181cnVAmczxHLBRrvhbYHhuelPBWIrX/VytcDZpF4u2Gg7vC0wnKXA94lvo8/lTrw3sQ2gurla4GxSLxdstB/eFkgv1aY/buoUKbYBVD9XC5zeEMsFG32EtwXScdOfSsQ2gtrwp6S/IF4PPDhnITLZlbAIUukOx7jvuJbw4NetBc69AHwAbwvEOJI0bfHi3In3KLYR1AZXC5zNEMsFG/PFj4GPAscQVo3bYDfgdMJzKblz8rbA/Nz0pyKxDaF2uFrgbIZYLtiYHIt1+It5DPD1Qrl6W2A2bvpTmdiGUFtcLXA2Lhc8fMza4d+XLQhvcdxcIH/fFpiem/5UJrYx1B5XC5yeywWnjxQd/mK8LVAvN/2pUGxjqE0PZpjV73pcLXAbfDMgJq4FziH8Qt9nxrqf1xOBbw5Yps3Ft9afX78s1aY/u+dOvGexDaJ2HcowF8DX5ixEJssIawT4TMDkKNHh35elwImUfVtgl6EL2YjdCZ13bL2+M3fivYttELVtiIvfGuA/5SxERgcDfwl8m7AWQunOtnTcRvjFew7wcsp2+Iu5P6EzTvHw2azxI+DwwUtYv1NJc115SOa8uxfbKGrbUBe+nlcLbInf7194LGXeFlggzESMlZv+VMwLxLgNeeG7lXCbQeX4/f5lpW4LLNDvRlqTnECaOnTTnwF4gRi3oS98NwD75iqM7sXv930r8bbAAnBUjsJVxE1/KucFYtxyXPiuJFxwlZ/f7817IuEZhlyDgJvpc/nsxbyYNPXmpj8D8QIxbrkufL2uFlg7v9+T5V5E6CN5ilUFN/2pnBeIccs1AFhHv6sF1szv9/Ry3RZYAJ6QqUwlPYM09fWi3ImPiReIccs5AFhHn6sF1szv9+xyvC3w0WylKcdNfxrgBWLccg8A1tHnaoG18vs9n6FvC6ym7+di3PSnEV4gxq3EAGAdfa4WWKPevt+HAKcBlwGrCIsxXUnYZOb3CYvu3C/h+YZcROjlCfOszYeJr5+bCGsIaEC9XSA0m1IDgJ5XC6xJL9/v7YAzmG4p5gXgGtIOCoZ4W+DdkTnVaj/SLJl9aua8R6mXC4TmU2oAsA64E3jK8EUctR6+3wcBVxBXjhSDgi1Ju4jQRTOevxWpNv3ZI3fiY9TDBULzKzkAWEeYwn3k4KUcr9a/3y8jTPUP9ff3Y+CThF+bz2W6neZSvS1w/ezVUb3dSNNeZ+ROfKxav0AoTukBwIYL4ZgWR8mp1e/3doQNhnL/Lc4yU/DcyHMtn796qnUq8W3gpj8ZtXqBUBqlO/8N4WqBw2jx+51iyj9lLDYoeFTkce9IVWGVSLXpzz/mTnzMWrxAKJ3SF9eNw9UC02vt+z30lH9NcW2iOqvFSaSpFzf9yai1C4TSKn0R3DRcLTCtVr7f2xLuq5f++8sZX0lSc3Vw059GtXKB0DBi2//KBMfYNN6PqwWm0sL3u7Ypf6NcPANlFdtgalts+/8KcF2C42warhaYRu3f7zFN+RubDzf9KSC20dS2FO1/MPDzBMfaNE4aqtAjUuv3e4xT/sbmw01/CohtNLUtVfs/hbCwT8oLwlrg6CEKPSI1fr8PICzlW7rDMeoJN/0pJLbh1LaU7f880iwBunGsBo5IXegRqe377ZS/cV/hpj+FxDac2pa6/Y9NcMxNw9UC51fL99spf2OxuAVf/y0mtvHUtiHa/08SHHfTuAHYN1GZx6SG77dT/sbm4lRUTGzjqW1DtP8Swqt8qS8U1wB7Jir3WJT+fjvlb2wu3PSnsNgGVNuGav8tgU8kOP6mcTFp93vvXanv9/aUWcvfaCveiYqKbUC1bcj23w74aoJzbBoXA7tElnssSny/XdjHmDbc9Kew2AZU24Zu/90YZrXAawjrD2jzcn+/nfI3ZgkVZgOOW472fzBhy9/UF4/lwEvmLPdY5Pp+O+VvzBMqzAYct1ztfyhwa4Lz3Vd8Gt8QWEyO9nXK35g3VJgNOG4523+I1QI3xGrgXcCDZsypd0O373/BKX9j/lBhNuC45W7/55N+tcCN4x7g/wJHERafGbuh2nd34EMJjm+MOxQhxc5JsY3g7k1tK9H+xwHvjjzvNO4ivIXwZcKDiFcDNwErCO8fj0HK9t2N8ODlUcAr8HVMxbP/KMwR3LiVav8hVgs0+ok7gGOIF5uHNs/6LcgZAMUq1f5LgPcBr4w8v/pzFfBC4PIEx/L6Nizrt6AtSicgzWkd8BrCaoHSBh8AHkOazl/qmgMAtWwNcDQOAhTeDjkW+K+M5/kMKYq3ABSrhvbfGvgn4HkJjqX2pJzy31QNf989s34LcgZAPbib0AF8qnQiyu4DOOUvFeNTnONWU/svBf4cWEiQl1F3pHrKf5LYPLV51m/jbMBxq7H9X0S4D1y6kzKGie8SlobOITZXbZ712zgbcNxqbf9fJ0wLl+6sjLRxDmGb6Fzujsx3x4y5tmYn4ur2rvwp98VnANSrbwKPBk4lXMTVttsJ+wb8V8L0fy6x59o7SRZ92ify8yuSZDFiDgDUs7uBtwCPAr5UOBfN70rgN4C/LXDumyI/f2SSLPoUWze3JslCUWKn9NS2ltr/SOCCBDkbeWKBsENjzin/TX3uPvKaJS4nPJyqX7aU+C2gfeunArFfcrWtxfb/TeBcYO2UORr54zvA4Ys1YEZvJ74sx2fPun4nEV+vb8uete4lthHVtpbbfx/gj4F/p3yHZ4S4mrBT4JababecXkR8mVYDT8+deMWOIP7hynXAC3InrnuLbUS1rYf234Lw1sAphJmBOynfEY4pVgAfBp5Ffc8lPYA0M0WrgRMY9+2ApcDJpOn81wK7502/Py4FrFg9tv+2hH3rD1wfBwAPJry2tOP62L5Ydu26A1gFXA9cC1xKeCbjAuCegnlN8jXgcYmOdQVwNuHZguuAlYmOW6sdgX2BZxBmdg5KdNwLgCcmOtZoOQBQLNt/eCcCf106CakixwF/UzqJ1jkAUCzbf3i7EH41l3waXqrFSsLzO74GGKm2+22S7u1W4L2lk5AqcSZ2/kk4A6BYtn8eDyRse7tT6USkglYAvwr8rHQiPXAGQGrDT4A3lU5CKuyPsPNPxhkAxbL981kCnAc8tXQiUgEXA08A1pROpBcOABTL9s9rf8KFcOfSiUgZ3UbY3Ova0on0xFsAUluuAX6bsLCMNAZrgN/Fzj85BwBSe84jbI27UDgPaWjrgGOAT5dOpEcOAKQ2/SPwasKyqlKP1gCvBM4pnUivfAZAsWz/sp4CfAzXRVdflgMvwV/+g3IGQGrbl4DfAL5eOhEpkYuBR2HnPzgHAFL7/p2wWc3LgRsL5yLN63bgLcCT8IG/ZsRu66i22f512RX4C+Bmym/zaxjTxErC3+yeKCufAVAs279O2wBHE56gfjzj3ode9VkALgQ+BHwE1/YvwgGAYtn+9duRsILakwn3Vvcg/NraHXcY1LBWE37h30yY1v8uoeM/f/3/J0mSJEmSJEmSJEmSJEmSJEmSJEmSJEmSJEmSJEmSJEmSJEmSJEmSJEmSJEmSJEmSVJX/D9hmlbOmChH1AAAAAElFTkSuQmCC;" parent="1" vertex="1">
          <mxGeometry x="549.5" y="630" width="70" height="70" as="geometry" />
        </mxCell>
        <mxCell id="Y2iIYTTKfApD3LMO0uSe-1" value="Amazon Elasticsearch Service" style="sketch=0;outlineConnect=0;fontColor=#232F3E;gradientColor=none;strokeColor=#ffffff;fillColor=#232F3E;dashed=0;verticalLabelPosition=middle;verticalAlign=bottom;align=center;html=1;whiteSpace=wrap;fontSize=10;fontStyle=1;spacing=3;shape=mxgraph.aws4.productIcon;prIcon=mxgraph.aws4.elasticsearch_service;" vertex="1" parent="1">
          <mxGeometry x="215" y="850" width="80" height="120" as="geometry" />
        </mxCell>
        <mxCell id="Y2iIYTTKfApD3LMO0uSe-2" value="&lt;b&gt;Elastic Search&lt;/b&gt;" style="outlineConnect=0;dashed=0;verticalLabelPosition=bottom;verticalAlign=top;align=center;html=1;shape=mxgraph.aws3.elasticsearch_service;fillColor=#F58534;gradientColor=none;" vertex="1" parent="1">
          <mxGeometry x="380" y="869" width="67.5" height="81" as="geometry" />
        </mxCell>
        <mxCell id="Y2iIYTTKfApD3LMO0uSe-3" value="Algoria" style="shape=image;verticalLabelPosition=bottom;labelBackgroundColor=default;verticalAlign=top;aspect=fixed;imageAspect=0;image=https://cdn4.iconfinder.com/data/icons/logos-and-brands/512/12_Algolia_logo_logos-512.png;fontStyle=1" vertex="1" parent="1">
          <mxGeometry x="500.5" y="869.5" width="80.5" height="80.5" as="geometry" />
        </mxCell>
      </root>
    </mxGraphModel>
  </diagram>
</mxfile>
